<svg xmlns="http://www.w3.org/2000/svg" width="109" height="66" viewBox="0 0 109 66">
    <defs>
        <filter id="a" width="120.8%" height="128.1%" x="-10.4%" y="-14%" filterUnits="objectBoundingBox">
            <feOffset dy="4" in="SourceAlpha" result="shadowOffsetOuter1"/>
            <feColorMatrix in="shadowOffsetOuter1" result="shadowMatrixOuter1" values="0 0 0 0 0.0666666667 0 0 0 0 0.129411765 0 0 0 0 0.329411765 0 0 0 1 0"/>
            <feMerge>
                <feMergeNode in="shadowMatrixOuter1"/>
                <feMergeNode in="SourceGraphic"/>
            </feMerge>
        </filter>
    </defs>
    <g fill="none" fill-rule="evenodd">
        <path fill="#E0F9FF" d="M65.628 0C-1.083 14.126-16.148 29.557 20.433 46.29c54.872 25.101 92.473 28.13 88.243-2.027C105.856 24.158 91.506 9.403 65.628 0z"/>
        <path fill="#E0F9FF" d="M7.436 15.097c-1.345-.359-2.718.334-4.12 2.08-2.103 2.617 6.996 2.287 6.676-.165-.214-1.636-1.066-2.274-2.556-1.915zM2.535 20.952c-.769.179-1.553-.168-2.355-1.04-1.201-1.31 3.998-1.144 3.815.082-.122.818-.609 1.137-1.46.958z"/>
        <path fill="#2D8EFF" fill-rule="nonzero" d="M26.18 0c-1.263 0-2.154.77-2.791 1.492-.638.723-1.155 1.54-1.636 2.311-.482.77-.92 1.493-1.3 1.926-.283.325-.47.415-.481.433H4.62C2.087 6.162 0 8.25 0 10.784v41.594C0 54.912 2.087 57 4.62 57h67.76c2.533 0 4.62-2.088 4.62-4.622V10.784c0-2.534-2.087-4.622-4.62-4.622H57.028c.006.006-.012 0-.048 0a3.138 3.138 0 0 1-.433-.433c-.38-.433-.818-1.156-1.3-1.926-.48-.77-.998-1.588-1.636-2.31C52.974.77 52.083 0 50.82 0H26.18zm0 3.081h24.64c-.096 0 .102 0 .481.433.38.434.818 1.156 1.3 1.926.48.77 1.01 1.589 1.636 2.31.625.723 1.48 1.493 2.743 1.493h15.4c.866 0 1.54.674 1.54 1.54v41.595a1.52 1.52 0 0 1-1.54 1.54H4.62a1.52 1.52 0 0 1-1.54-1.54V10.784c0-.867.674-1.54 1.54-1.54h15.4c1.263 0 2.117-.771 2.743-1.493.626-.722 1.155-1.54 1.636-2.311.482-.77.92-1.492 1.3-1.926.379-.433.577-.433.481-.433zm12.32 9.243c9.372 0 16.94 7.57 16.94 16.946 0 9.376-7.568 16.946-16.94 16.946-9.372 0-16.94-7.57-16.94-16.946 0-9.375 7.568-16.946 16.94-16.946zm-26.18 1.54a3.079 3.079 0 0 0-3.08 3.082 3.079 3.079 0 0 0 3.08 3.081h1.54a3.079 3.079 0 0 0 3.08-3.081 3.079 3.079 0 0 0-3.08-3.081h-1.54zm26.18 1.541c-7.634 0-13.86 6.229-13.86 13.865 0 7.637 6.226 13.865 13.86 13.865 7.634 0 13.86-6.228 13.86-13.865 0-7.636-6.226-13.865-13.86-13.865z" filter="url(#a)" transform="translate(5 3)"/>
    </g>
</svg>
