<svg xmlns="http://www.w3.org/2000/svg" width="154" height="188" viewBox="0 0 154 188">
    <defs>
        <linearGradient id="a" x1=".112%" y1="49.98%" y2="49.98%">
            <stop offset="0%" stop-color="#F5C2C8"/>
            <stop offset="100%" stop-color="#F6B399"/>
        </linearGradient>
        <linearGradient id="b" x1="20.73%" x2="63.506%" y1="8.691%" y2="70.939%">
            <stop offset="0%" stop-color="#4E8AC8"/>
            <stop offset="100%" stop-color="#65C3DC"/>
        </linearGradient>
        <linearGradient id="c" x1=".03%" x2="100.017%" y1="49.963%" y2="49.963%">
            <stop offset="0%" stop-color="#F5C2C8"/>
            <stop offset="100%" stop-color="#F6B399"/>
        </linearGradient>
        <linearGradient id="d" x1=".024%" x2="100.012%" y1="50.007%" y2="50.007%">
            <stop offset="0%" stop-color="#F5C2C8"/>
            <stop offset="100%" stop-color="#F6B399"/>
        </linearGradient>
        <linearGradient id="e" x1="-.119%" y1="50.014%" y2="50.014%">
            <stop offset="0%" stop-color="#4E8AC8"/>
            <stop offset="100%" stop-color="#65C3DC"/>
        </linearGradient>
        <linearGradient id="f" x1="-.005%" x2="99.995%" y1="49.987%" y2="49.987%">
            <stop offset="0%" stop-color="#F5C2C8"/>
            <stop offset="100%" stop-color="#F6B399"/>
        </linearGradient>
        <linearGradient id="g" x1="29.482%" x2="118.416%" y1="-12.243%" y2="120.465%">
            <stop offset="0%" stop-color="#4E8AC8"/>
            <stop offset="100%" stop-color="#65C3DC"/>
        </linearGradient>
        <linearGradient id="h" x1=".015%" x2="99.993%" y1="50.008%" y2="50.008%">
            <stop offset="6%" stop-color="#FCEAEC"/>
            <stop offset="10%" stop-color="#FCEAEC"/>
            <stop offset="37%" stop-color="#FCEAEC"/>
        </linearGradient>
        <linearGradient id="i" x1="-.027%" x2="99.966%" y1="50.007%" y2="50.007%">
            <stop offset="0%" stop-color="#65C3DC" stop-opacity="0"/>
            <stop offset="100%" stop-color="#4E8AC8"/>
        </linearGradient>
        <linearGradient id="j" x1="5.857%" x2="67.29%" y1="-6.51%" y2="72.472%">
            <stop offset="6%" stop-color="#A5D6D6" stop-opacity="0"/>
            <stop offset="7%" stop-color="#A5D6D6" stop-opacity=".06"/>
            <stop offset="10%" stop-color="#A5D6D6" stop-opacity=".28"/>
            <stop offset="13%" stop-color="#A5D6D6" stop-opacity=".47"/>
            <stop offset="16%" stop-color="#A5D6D6" stop-opacity=".63"/>
            <stop offset="19%" stop-color="#A5D6D6" stop-opacity=".77"/>
            <stop offset="22%" stop-color="#A5D6D6" stop-opacity=".87"/>
            <stop offset="26%" stop-color="#A5D6D6" stop-opacity=".94"/>
            <stop offset="30%" stop-color="#A5D6D6" stop-opacity=".99"/>
            <stop offset="37%" stop-color="#A5D6D6"/>
            <stop offset="100%" stop-color="#A5D6D6" stop-opacity="0"/>
        </linearGradient>
        <linearGradient id="k" x1="0%" x2="100.003%" y1="49.971%" y2="49.971%">
            <stop offset="0%" stop-color="#F5C2C8"/>
            <stop offset="100%" stop-color="#F6B399"/>
        </linearGradient>
        <linearGradient id="l" x1=".052%" y1="50.006%" y2="50.006%">
            <stop offset="30%" stop-color="#FCEAEC"/>
            <stop offset="42%" stop-color="#FCEAEC" stop-opacity=".99"/>
            <stop offset="51%" stop-color="#FCEAEC" stop-opacity=".95"/>
            <stop offset="58%" stop-color="#FCEAEC" stop-opacity=".89"/>
            <stop offset="65%" stop-color="#FCEAEC" stop-opacity=".8"/>
            <stop offset="71%" stop-color="#FCEAEC" stop-opacity=".69"/>
            <stop offset="77%" stop-color="#FCEAEC" stop-opacity=".55"/>
            <stop offset="83%" stop-color="#FCEAEC" stop-opacity=".39"/>
            <stop offset="89%" stop-color="#FCEAEC" stop-opacity=".2"/>
            <stop offset="94%" stop-color="#FCEAEC" stop-opacity="0"/>
        </linearGradient>
        <linearGradient id="m" x1=".007%" x2="99.999%" y1="50.018%" y2="50.018%">
            <stop offset="0%" stop-color="#4E8AC8"/>
            <stop offset="100%" stop-color="#65C3DC"/>
        </linearGradient>
    </defs>
    <g fill="none" fill-rule="nonzero">
        <path fill="url(#a)" d="M118 147.898L97.802 151l-.854-3.173-.822-3.025v-.11l1.082-5.034s-3.868-3.86-1.365-5.249c2.503-1.389.798-4.676.798-4.676l.228-3.622L115.948 116s-.195 9.643-.423 17.24c-.134 3.144.16 6.292.873 9.352a37.58 37.58 0 0 0 .79 2.797c.273.849.58 1.703.812 2.51z"/>
        <path fill="#EF8676" d="M103.805 136.792c.166 1.05.446 2.086.531 3.15.204 2.599-.768 5.287.028 7.774.238.742.631 1.456.636 2.235 0 1.223-.991 2.277-2.153 2.711a7.707 7.707 0 0 1-3.68.205A28.985 28.985 0 0 1 92 151.001a2.722 2.722 0 0 1-1.162-.742 2.714 2.714 0 0 1-.413-1.573c-.17-3.266-.275-6.57-.38-9.86-.066-2.058-.127-4.139.314-6.15.336-1.54 1.024-3.084 2.3-4.032 1.475-1.1 3.452-1.222 5.307-1.297 1.778-.075 5.98-1.255 6.103 1.213.138 2.72-1.014 5.47-.265 8.232z" opacity=".4" style="mix-blend-mode:multiply"/>
        <path fill="#EF8676" d="M98.236 134.496a4.988 4.988 0 0 0-.955 1.775c-.261 1.371.85 2.553 1.371 3.832.668 1.6.416 3.448.046 5.15-.256 1.167-.764 2.524-1.87 2.738a2.717 2.717 0 0 1-1.829-.52c-2.034-1.221-3.877-3.045-4.572-5.413a14.96 14.96 0 0 1-.416-3.94c-.032-1.867-.046-3.807.713-5.49.88-1.747 2.351-3.074 4.115-3.715 1.166-.486 4.27-1.707 4.975-.14.704 1.565-.755 4.502-1.578 5.723z" opacity=".4" style="mix-blend-mode:multiply"/>
        <path fill="#EF8676" d="M118 146.006a15.026 15.026 0 0 0-2.574-.194c-.776.047-1.554.03-2.327-.051a11.476 11.476 0 0 1-1.658-.43 29.654 29.654 0 0 0-6.733-1.164c-2.021-.127-3.209.43-4.711 1.86-.534.51-1.29 1.92-2.119 2.604-.38.426-1 .491-1.454.154-.674-.511-.446-1.686 0-2.462.201-.356.424-.698.67-1.022.759-.96 1.643-1.803 2.626-2.503 1.358-.99 2.909-1.823 4.509-1.797 1.522 0 2.942.77 4.44 1.062 2.734.51 5.72-.51 8.24.792l.325.184c.209 1.072.495 2.058.766 2.967z" opacity=".3" style="mix-blend-mode:multiply"/>
        <path fill="url(#b)" d="M116.997 115.163a25.917 25.917 0 0 1-3.186 3.857c-3.139 3.211-8.587 7.436-16.19 8.64h-.072c.038.25.1.54.172.87v.106c.071.325.153.674.229 1.042.057.277.114.554.157.846.224 1.433.22 2.939-.73 3.794-1.679 1.515-2.017 1.683 0 4.718 2.018 3.035 1.403 3.823.11 4.999-.234.22-.224 1.09-.043 2.39.062.425.143.903.234 1.433.22 1.21.534 2.629.902 4.14.08.348.167.697.252 1.055 0 .048.029.106.043.163l.13.511c.042.177.123.478.19.736.1.411.21.822.32 1.233.002.01.002.02 0 .03l.343 1.27c.114.421.229.842.348 1.262.053.206.11.416.172.621.062.206.11.411.172.617.114.411.224.817.343 1.21.12.391.224.788.334 1.165.052.192.11.383.162.564l.33 1.104c.667 2.247 1.225 3.962 1.473 4.612 1.016 2.634 4.18 4.808 3.406 10.386-.772 5.577 1.856-1.343 1.703 7.647l-37.603.765-1.074.023L20.244 188l.31-17.057 3.605-44.83-18.603-8.044L1 117.14c0-4.578.296-13.353 1.75-21.248 1.456-7.896 1.365-6.333 5.548-8.675l.13-.072 1.034-.583c3.392-1.911 10.543-6.07 15.857-9.152 1.13-.65 2.17-1.257 3.076-1.783l.401-.23.625-.367.673-.387 1.779-1.038a128.901 128.901 0 0 1 3.921-4.516c.477-.545.954-1.018 1.369-1.434 1.841-1.83 3.249-2.648 6.282-3.656-.324 2.213-1.001 4.397-2.323 5.664a3.813 3.813 0 0 1-2.337 1.07 3.214 3.214 0 0 1-.434.024 5.3 5.3 0 0 1-.54-.029s-3.29 5.903 14.383 15.892l4.67 11.661.62 1.663 3.158 8.479v6.963h4.231l2.547-9.936.63-2.475.93-.736 10.018-8.04s.22-3.345-.84-8.779a71.64 71.64 0 0 1-.572-3.288 41.524 41.524 0 0 1-.477-7.112 1.775 1.775 0 0 0-.554-1.362 8.335 8.335 0 0 0-1.774-1.056 5.91 5.91 0 0 1-1.164-.803 4.409 4.409 0 0 1-.782-.899c-.568-.879-.954-2.14-1.026-4.09v-1.779s1.813.43 3.687 2.629l.082.096c.352.394.745.75 1.173 1.06l.353.244c2.09 1.41 5.529 2.782 12.217 6.691 10.384 6.094 21.308 8.632 23.111 14.816.916 3.265 4.365 12.627 4.551 23.223.02.45.02.908.014 1.372z"/>
        <path fill="#383D54" d="M83 142.6c1.224 1.534 3.9 2.452 3.9 2.452L122 152l-2.764-1.86s-22.391-5.95-31.956-8.082c.015 0-1.335-.32-4.28.542z"/>
        <path fill="#383D54" d="M83 142.6c1.224 1.534 3.9 2.452 3.9 2.452L122 152l-2.764-1.86s-22.391-5.95-31.956-8.082c.015 0-1.335-.32-4.28.542z" opacity=".35" style="mix-blend-mode:multiply"/>
        <path fill="url(#c)" d="M78.988 94.036l-10.848 8.677L65.01 115h-4.184v-6.9L57.09 98.096l-4.627-11.522a82.523 82.523 0 0 1-3.773-2.263C35.484 75.804 38.24 70.86 38.24 70.86c7.14.751 5.744-13.577 5.744-13.577l17.14-.17L72.682 57s-.982 2.835-.803 9.976c.18 7.14 5.226 5.052 5.24 8.12.014 3.066 0 4.895 1.024 10.283 1.023 5.387.844 8.657.844 8.657z"/>
        <path fill="#EF8676" d="M67.146 75.178a6.127 6.127 0 0 0 2.44-3.263L71.874 66c.586 1.942 1.909 3.57 3.06 5.252 1.152 1.681 2.186 3.595 2.055 5.607-.132 2.013-1.42 3.79-2.699 5.428a27.664 27.664 0 0 1-3.416 3.788c-3.107 2.697-7.182 4.1-11.346 3.907a1.432 1.432 0 0 1-.6-.123 1.393 1.393 0 0 1-.488-.573c-.844-1.454-2.396-3.315-2.44-5.058 0-1.397 1.713-.17 2.562-1.17 1.19-1.396 3.626-2.84 5.222-3.727 1.595-.885 1.976-3.002 3.362-4.153zM71 58.857c-.417 2.232-6.326 10.813-13.961 17.223-4.741 3.981-7.587 6.565-9.06 7.92-4.935-3.067-7.704-5.664-9.211-7.732-2.671-3.62-1.522-5.627-1.522-5.627 7.34.745 5.904-13.472 5.904-13.472l13.641-.131L60.767 57 71 58.857z" opacity=".4" style="mix-blend-mode:multiply"/>
        <path fill="#EF8676" d="M57 57c-2.131 3.768-7.04 10.249-12.987 15.393A340.634 340.634 0 0 0 38.786 77c-2.699-3.768-1.538-5.857-1.538-5.857 7.417.776 5.967-14.021 5.967-14.021L57 57z" opacity=".2" style="mix-blend-mode:multiply"/>
        <path fill="url(#d)" d="M142.167 149.799c-1.591.938-.743.938-2.876 3.47-2.132 2.533-9.767 10.558-11.79 13.47.322 6.13-3.613 6.337-5.947 6.966-2.334.628-6.902.412-11.79-2.219-4.888-2.631-3.714.14-8.809.76-.985.159-1.988.184-2.98.075-1.525-.263-.864-1.215-.633-1.735l9.25-4.84 4.14-2.158c.12-.152.253-.293.398-.422 1.438-1.346 4.05-1.81 4.352-1.876h.028s5.752-3.527 6.164-3.429a.61.61 0 0 0 .364-.065c.404-.21.78-.467 1.121-.765 2.32-2.58 4.429-2.495 5.186-1.876l.12-.098c.958-.765 6.925-5.479 10.711-7.387 1.563-.784 2.598-.793 3.187-.47.964.582.782 2.008-.196 2.599z"/>
        <path fill="url(#e)" d="M118 118.307s-.285 1.116-2.153 3.228a39.128 39.128 0 0 1-5.784 5.163c-4.858 3.667-8.774 4.23-10.88 4.302h-.627l-.185-.905-.2-.996v-.106l-.171-.875h.067a30.713 30.713 0 0 0 15.684-9.244 28.35 28.35 0 0 0 3.622-4.744c.03-.041.056-.085.08-.13l.547 4.307z"/>
        <path fill="#408FCC" d="M118 118.307s-.285 1.116-2.153 3.228a39.128 39.128 0 0 1-5.784 5.163c-4.858 3.667-8.774 4.23-10.88 4.302h-.627l-.185-.905-.2-.996v-.106l-.171-.875h.067a30.713 30.713 0 0 0 15.684-9.244 28.35 28.35 0 0 0 3.622-4.744c.03-.041.056-.085.08-.13l.547 4.307z" opacity=".6" style="mix-blend-mode:multiply"/>
        <path fill="url(#f)" d="M83.577 35.051c-.955-.471-1.385.373-1.91 2.07-.478 1.57-1.696 2.97-2.938 5.525.181-1.257.32-2.612.415-4.064 0-3.03 2.064-7.245 1.204-8.363-1.19-1.546-3.09-5.459-2.91-10.135.106-2.89-1.136-5.229-3.343-7.124-2.556-2.178-7.935-3.267-14.952-2.885a65.3 65.3 0 0 0-9.683 1.301c-5.46 1.65-10.185 6.218-10.797 23.892-.716-1.815-.344-3.578-1.533-4.384-1.19-.806-1.486 1.98-.669 8.73.817 6.752 1.338 5.545 2.58 5.545l-.086-2.254c.028.67.057 1.415.086 2.25.134 4.195 2.813 11.238 6.153 15.429.066.09.143.179.224.273a18.743 18.743 0 0 0 4.916 4.484c.69.407 1.422.744 2.183 1.004.977.332 1.993.538 3.024.613.377.028.764.042 1.165.042 4.596 0 9.913-3.036 14.876-8.373 2.045-2.536 4.123-5.237 5.604-9.485 6.014 1.184 5.794-6.529 5.732-8.353-.062-1.825 1.925-5.082.66-5.738z"/>
        <path fill="#383D54" d="M40.08 69a1.707 1.707 0 0 0-.08-.162c1.454-1.282 1.183-.985.08.162z"/>
        <path fill="url(#g)" d="M84 77.979s-.696 3.398-1.693 8.073c-2.06 9.698-5.398 24.877-6.423 26.454-.47.7-1.999 2.307-3.974 4.203-4.594 4.394-11.577 10.4-12.926 10.29-1.947-.172-29.465-45.36-29.978-47.529-.085-.338.715-1.282 1.933-2.492 1.88-1.907 4.834-4.442 7.016-6.32L39.887 69c.179.305.414.696.696 1.153 3.367 5.457 13.534 20.173 25.177 9.284 2.003-1.868 4.048-4.494 6.113-8.059a66.98 66.98 0 0 0 .94-1.687l2.027 1.506L84 77.979z"/>
        <path fill="url(#h)" d="M55.785 46.181a12.42 12.42 0 0 1 1.233 8.57c-.476 2.253-1.309 4.039-1.618 6.32-.476 3.605.071 4.956.423 5.929a11.983 11.983 0 0 1-3.013-.614 11.768 11.768 0 0 1-2.176-1.006 31.89 31.89 0 0 1-4.899-4.493 5.164 5.164 0 0 1-.224-.274c-3.332-4.2-5.998-11.257-6.132-15.462-.18-5.409-.41-6.812-.376-9.92.61-17.71 5.318-22.288 10.76-23.941a64.745 64.745 0 0 1 9.64-1.29l1.572.661a84.127 84.127 0 0 1-5.528 32.114 3.882 3.882 0 0 0-.371 1.625c.105.638.347 1.245.71 1.781z" opacity=".2" style="mix-blend-mode:screen"/>
        <path fill="#EF8676" d="M40.56 27.03c.848-1.829 2.157-3.512 2.357-5.527.072-.673 0-1.361.143-2.02a6.721 6.721 0 0 1 .843-1.927c1.243-2.196 2.858-4.655 5.353-4.806.98.006 1.951.207 2.858.59l4.838 1.688c2.715.947 5.591 1.908 8.397 1.284 1.262-.279 2.443-.874 3.705-1.142 1.262-.268 2.724-.156 3.634.785.647.679.895 1.65 1.11 2.572.475 2.19.928 4.42 1.837 6.47 1.182 2.673 3.2 5.288 2.715 8.181-.17.767-.397 1.519-.681 2.25A14.595 14.595 0 0 0 77.845 45c3.51-7.42 3.81-16.1 2.272-24.21-.81-4.303-2.329-8.835-5.858-11.309-2.381-1.683-5.372-2.166-8.244-2.61-3.638-.561-7.32-1.122-10.982-.752-3.662.371-7.358 1.771-9.815 4.577a20.154 20.154 0 0 0-2.905 4.81c-2.344 5.002-4.2 10.442-4.287 16.043a16.87 16.87 0 0 0 .272 4.098c.433 1.815.747 1.18.795-.288.076-2.85.262-5.708 1.467-8.328z" opacity=".3" style="mix-blend-mode:multiply"/>
        <path fill="#1D1F24" d="M39.59 36.693c-.094-4.235-.472-10.864 2.593-14.214a2.27 2.27 0 0 0 .473-.617c.083-.422.135-.85.156-1.28.052-1.534.372-3.048.945-4.474 1.42-3.58 4.9-5.175 8.598-5.063 4.824.127 8.915 3.294 13.876 2.706 4.11-.499 9.085-1.915 9.898 3.764.473 3.265-.279 6.295 1.585 9.288.525.837 1.182 1.614 1.513 2.545.809 2.245.473 4.823.137 7.124-.113.795-.946 6.53-1.173 7.528h.62c.392-2.696 1.892-5.528 3.31-7.886 1.736-2.908.383-6.587.275-9.744-.18-5.086.473-10.398-1.561-15.221C77.132 2.327 68.765.365 59.898.021 55.926-.134 51.821.54 48.43 2.61 41.492 6.844 38.4 15.732 38.092 23.25c-.28 4.776.075 6.828 1.102 13.42l.397.023z"/>
        <path fill="url(#i)" d="M20.35 170.836l3.57-45.073-18.412-8.087L1 116.744c0-4.604.293-13.426 1.733-21.364 1.44-7.938 1.35-6.367 5.49-8.722L9.375 86c.104.034.212.077.316.12 5.476 2.172 11.33 11.393 16.995 14.896 8.229 5.094 17.425 11.028 19.356 20.629.972 4.834-.128 9.86.368 14.766.887 9.053 6.958 16.501 11.745 24.185 5.094 8.207 8.833 17.126 11.845 26.347L20.068 188l.283-17.164z" opacity=".6" style="mix-blend-mode:multiply"/>
        <path fill="url(#j)" d="M107.994 186.223L70.349 187c-3.047-9.145-6.83-17.984-11.984-26.124-4.823-7.624-10.984-15.006-11.901-23.97-.502-4.865.61-9.85-.373-14.643-.774-3.765-2.689-6.962-5.254-9.76a3.363 3.363 0 0 0-.367-.576 4.11 4.11 0 0 0-1.17-1.001c-3.716-3.55-8.387-6.452-12.786-9.126-5.703-3.469-11.64-12.614-17.194-14.772a4.29 4.29 0 0 0-.32-.115c4.623-2.62 16.205-9.316 20.657-11.913.878 1.1 1.647 2.597 3.08 4.799A53.935 53.935 0 0 0 55.73 99.623c.449.2.903.395 1.361.586 3.53 1.5 7.203 2.859 9.94 5.49.123.114.248.238.367.362 6.687 6.852 4.776 19.309 11.988 25.575 2.655 2.307 6.209 3.403 8.845 5.719 2.823 2.454 4.346 6.028 6.21 9.254a51.66 51.66 0 0 0 3.772 5.532c1.543 6.377 4.007 14.506 4.628 16.107 1.018 2.626 4.184 4.794 3.41 10.355-.773 5.562 1.896-1.324 1.744 7.62z" opacity=".5" style="mix-blend-mode:screen"/>
        <path fill="#383D54" d="M115 121.479a38.88 38.88 0 0 1-5.78 5.07c-4.853 3.6-8.766 4.152-10.87 4.223h-.626c.223 1.417.218 2.906-.727 3.751-1.672 1.498-2.009 1.664 0 4.664s1.396 3.78.11 4.942c-.233.217-.224 1.077-.043 2.362.061.42.142.893.232 1.417.219 1.196.532 2.599.898 4.092a49.8 49.8 0 0 1-3.752-5.48c-1.9-3.204-3.395-6.743-6.202-9.18-2.635-2.287-6.173-3.37-8.79-5.67-4.217-3.648-5.31-9.416-6.834-14.93-1.068-3.88-2.374-7.626-5.086-10.428-.123-.122-.242-.245-.37-.359-2.721-2.593-6.373-3.954-9.882-5.442a58.18 58.18 0 0 1-1.354-.582 53.518 53.518 0 0 1-22.861-19.654c-.755-1.158-1.325-2.117-1.824-2.925A18.19 18.19 0 0 0 30 75.522l1.771-1.025a127.691 127.691 0 0 1 3.904-4.465c.475-.539.95-1.007 1.363-1.418 1.833-1.81 3.234-2.617 6.254-3.614-.323 2.188-.997 4.347-2.313 5.599 3.4 5.41 13.668 20 25.426 9.203.997.345 2.013.657 3.03.945.474.133.95.255 1.424.378 2.161.548 4.36 1.05 6.43 1.8a17.8 17.8 0 0 1 4.165 2.089l.418.302c.435.324.85.676 1.24 1.054 6.377 6.08 6.828 17.448 14.398 22.206 2.958 1.866 6.6 2.404 9.555 4.252 1.353.86 3.661 3.435 5.817 6.028.147.185.29.364.446.54l1.672 2.083z" opacity=".05" style="mix-blend-mode:screen"/>
        <path fill="url(#k)" d="M119.975 153.826l-12.546 7.471c-1.907 1.183-6.542 3.963-9.885 5.96l-3.772 2.26c-3.286 2.027-3.868.287-6.376 1.43-7.534 2.995-30.614 11.973-53.69 13.828-4.54.386-13.795 1.34-17.476-8.105 0 0-12.065-23.974-14.23-56.263 0 0 1.087-.844 4.497-.1a29.286 29.286 0 0 1 5.66 1.969 2220.42 2220.42 0 0 1 11.025 5.016l2.628 1.22c1.363 3.567 4.926 16.14 7.63 34.483 10.7.171 17.166.853 36.718-2.718 5.097-.954 14.143-3.042 16.652-4.568h.024c2.532-1.559 10.333-9.255 11.53-10.561 1.197-1.306 2.432-2.27 8.207-2.27s9.017-.6 9.017 1.617a16.33 16.33 0 0 1 2.718 3.404c2.618 4.492-.6 2.275-2.174 1.202 0 0-1.65.229 1.273 1.43 3.028 1.22 2.57 3.295 2.57 3.295z"/>
        <path fill="#EF8676" d="M88 170.6a4.73 4.73 0 0 0-1.025.348c-7.497 2.994-30.463 11.972-53.425 13.827-4.517.386-13.727 1.34-17.39-8.105 0 0-12.006-23.974-14.16-56.263 0 0 1.082-.844 4.475-.1.313 3.67.55 7.023 1.456 10.699 3.218 12.998 6.44 26.048 11.346 38.502.807 2.055 1.69 4.134 3.16 5.77 2.909 3.222 7.55 4.157 11.863 4.386 17.713.858 43.232-10.57 53.7-9.064z" opacity=".4" style="mix-blend-mode:multiply"/>
        <path fill="#383D54" d="M75.953 68.835c.023.06.039.12.047.183 0 .21-.06.416-.17.593a44.48 44.48 0 0 1-4.39 7.132c-2.053 2.683-4.692 5.582-7.76 7.027-4.47 2.114-9.625 1.339-13.826-1.074-3.847-2.206-6.896-5.693-9.516-9.252-1.142-1.55-2.095-3.193-3.087-4.845a1.23 1.23 0 0 1-.25-.8c.067-.24.207-.453.401-.606A12.917 12.917 0 0 1 43.123 64a9.418 9.418 0 0 1-1.793 5.076c-.146.159-.241.359-.274.573.017.215.1.419.236.583a53.611 53.611 0 0 0 5.348 7.108c2.931 3.102 7.184 5.707 11.532 5.481 2.94-.154 5.702-1.618 7.906-3.607 2.204-1.99 3.908-4.484 5.485-7.017.271-.37.45-.801.52-1.257a3.321 3.321 0 0 0-.275-1.252 10.823 10.823 0 0 1-.472-4.754 11.53 11.53 0 0 1 4.423 3.574c.076.102.141.211.194.327z" opacity=".35" style="mix-blend-mode:multiply"/>
        <path fill="url(#l)" d="M86 155.742a11.392 11.392 0 0 1-3.796 2.543c-3.71 1.607-7.74 2.272-11.718 2.924l-7.773 1.278c-2.023.338-4.055.666-6.087.936-6.776.903-13.625 1.11-20.46 1.318-2.774.077-3.833 1.182-6.622 1.259-.715-4.589-3.116-10.205-3.835-14.793l-1.917-12.25c-.594-3.808-1.59-7.774-1.792-11.624V127l2.64 1.235c1.371 3.61 4.951 16.333 7.669 34.894 10.754.174 17.253.864 36.903-2.75 5.123-.965 14.214-3.078 16.735-4.622l.053-.015z" opacity=".5"/>
        <path fill="url(#m)" d="M25.885 129c1.851 0 1.072-2.586 0-3.44-1.071-.852-9.567-5.321-14.436-6.84-4.87-1.52-8.682-2.284-10.634-1.236-1.952 1.049.1 4.75.99 4.75 0 0-1.2-1.44 1.354-1.329 8.677.378 22.726 8.095 22.726 8.095z"/>
        <path fill="#408FCC" d="M25.881 129s-14.045-7.714-22.723-8.1c-2.55-.108-1.354 1.333-1.354 1.333-.784 0-2.454-2.853-1.535-4.256l.545-.494c1.952-1.044 5.74-.289 10.634 1.235s13.361 5.99 14.433 6.842c1.072.853 1.861 3.459 0 3.44z" opacity=".6" style="mix-blend-mode:multiply"/>
        <path fill="#3380BE" d="M42.45 64c-.755 4.664-1.935 9.96 2.234 28.234 4.17 18.273 11.55 46.054 11.55 46.054s7.192-31.697 8.517-38.409c1.326-6.712 3.028-12.123 4.924-20.883 1.896-8.76 4-7.45 1.538-13.977l1.05.415s4.445 1.12-.885 14.867c-1.703 6.712-6.25 25.357-8.14 33.931C61.346 122.806 57.433 145 57.433 145h-2.345c-1.514-7.622-7.197-30.01-8.706-37.29-1.51-7.278-10.68-39.218-3.933-43.71z" opacity=".35" style="mix-blend-mode:multiply"/>
        <path fill="#3380BE" d="M42.45 64c-.755 4.664-1.935 9.96 2.234 28.234 4.17 18.273 11.55 46.054 11.55 46.054s7.192-31.697 8.517-38.409c1.326-6.712 3.028-12.123 4.924-20.883 1.896-8.76 4-7.45 1.538-13.977l1.05.415s4.445 1.12-.885 14.867c-1.703 6.712-6.25 25.357-8.14 33.931C61.346 122.806 57.433 145 57.433 145h-2.345c-1.514-7.622-7.197-30.01-8.706-37.29-1.51-7.278-10.68-39.218-3.933-43.71zM57 145v1.971a.81.81 0 0 0-.47-.155.863.863 0 0 0-.53.184v-2h1z" opacity=".35" style="mix-blend-mode:multiply"/>
        <path fill="#3380BE" d="M57 145v1.971a.81.81 0 0 0-.47-.155.863.863 0 0 0-.53.184v-2h1z" opacity=".35" style="mix-blend-mode:multiply"/>
        <path fill="#EF8676" d="M106.288 148.912a21.097 21.097 0 0 1 2.321-.372 33.556 33.556 0 0 1 2.322-.174c.766-.03 1.555-.054 2.321-.03.766.024 1.555.042 2.322.09h.195l.092.168a4.501 4.501 0 0 0 1.217 1.338 3.762 3.762 0 0 0 1.602.732c-.294.083-.596.11-.896.078a2.886 2.886 0 0 1-.929-.246c-.603-.274-1.15-.724-1.597-1.314l.292.18c-.78.048-1.555.09-2.321.096-.766.006-1.55 0-2.322-.036a37.465 37.465 0 0 1-2.32-.168c-.767-.084-1.524-.162-2.3-.342zM106.464 152.545a10.058 10.058 0 0 1 2.654-.755 24.95 24.95 0 0 1 2.717-.305 17.12 17.12 0 0 1 2.769 0c.146.019.288.063.42.13.121.058.235.13.34.215.193.15.372.317.536.5.31.364.576.765.794 1.195-.368-.29-.727-.585-1.095-.83a2.002 2.002 0 0 0-1.052-.465c-.842.045-1.77.14-2.66.185-.89.045-1.803.08-2.702.09-.899.01-1.832.02-2.721.04zM106.242 156.907a6.047 6.047 0 0 1 1.616-.507 8.943 8.943 0 0 1 1.615-.147c.54 0 1.08.048 1.615.14a6.168 6.168 0 0 1 1.616.514c-.52.25-1.062.422-1.616.513a9.514 9.514 0 0 1-3.23 0 5.84 5.84 0 0 1-1.616-.513zM121.206 161.225c.18.293.267.634.25.978a.896.896 0 0 1-.581.769c-.545.153-1.018-.354-1.527-.635-.952-.543-2.22-.251-3.162-.82-.144-.098-.3-.179-.463-.24-.28-.067-.728-.042-.723-.333a.515.515 0 0 1 .036-.129h.03s6.11-3.85 6.547-3.743A.633.633 0 0 0 122 157a8.01 8.01 0 0 0-1.054 3.042c-.05.233-.05.474 0 .707.067.169.154.329.26.476zM114 165.893a41.57 41.57 0 0 1-7.288-.117 1.306 1.306 0 0 1-.712-.224l.069-.081 4.559-2.067c.132-.145.278-.28.438-.404-.1.346-.2.683-.296 1.029a.31.31 0 0 0 0 .274c.063.07.153.12.254.139.57.153 1.361.112 1.857.377.02.011.038.025.053.04.3.216.739 1.034 1.066 1.034z" opacity=".6" style="mix-blend-mode:multiply"/>
        <path fill="#EF8676" d="M128 154.364L97.964 172c-1.508-.27-.854-1.25-.626-1.785l9.141-4.97 4.097-2.22c.118-.156.25-.302.393-.434 1.423-1.385 4.007-1.863 4.305-1.93h.029s5.69-3.629 6.097-3.528a.584.584 0 0 0 .36-.067c.4-.216.772-.48 1.11-.787 2.295-2.615 4.38-2.543 5.13-1.915zM142 146.206L128 154c.966-.76 6.976-5.441 10.79-7.337 1.573-.778 2.616-.787 3.21-.457z" opacity=".4" style="mix-blend-mode:multiply"/>
        <path fill="#FFF" d="M67 184.123L69.333 187 154 137.384V134z"/>
        <path fill="#383D54" d="M98 172.055L72.785 187 70 186.686 97.042 171s-.236.917.958 1.055z" opacity=".35" style="mix-blend-mode:multiply"/>
        <path fill="#4B97D2" d="M26 129s7.614 12.514 15 34h-7.557s-3.57-23.696-7.443-34z" opacity=".5" style="mix-blend-mode:multiply"/>
        <path fill="#EF8676" d="M82 40.107a.716.716 0 0 0-.722.307 1.484 1.484 0 0 0-.273.81c-.042.604.041 1.266.037 1.933a4.035 4.035 0 0 1-.463 2.007c-.321.627-.957.95-1.579.8.552-.05 1.038-.433 1.273-1.006.22-.566.32-1.183.292-1.8a12.275 12.275 0 0 1 .07-2.002c.052-.363.216-.691.462-.927a.72.72 0 0 1 .903-.122zM38.24 34c-.101.095-.07.29-.077.454-.007.163 0 .343.017.528.017.333.047.664.092.992.096.652.236 1.287.418 1.894.089.326.162.66.22 1.003.053.346.083.7.089 1.055.009.698-.038 1.394-.14 2.074-.04-.691-.057-1.377-.118-2.042a9.83 9.83 0 0 0-.36-1.9 9.729 9.729 0 0 1-.364-2.032 8.41 8.41 0 0 1 0-1.055c0-.174.034-.348.057-.528.024-.18.041-.4.167-.443z"/>
        <path fill="#3380BE" d="M55.83 153.612c-1.811-.337-3.037-1.957-2.8-3.703.236-1.745 1.853-3.015 3.695-2.902 1.843.113 3.276 1.571 3.275 3.331v8.608c-.003.583-.5 1.054-1.11 1.054a1.133 1.133 0 0 1-.795-.316 1.028 1.028 0 0 1-.317-.762c.036-1.451.066-3.023-.42-4.15a2.013 2.013 0 0 0-1.527-1.16z" opacity=".35" style="mix-blend-mode:multiply"/>
        <path fill="#3380BE" d="M59.99 150.356v8.65c-.04.56-.524.994-1.108.994-.585 0-1.07-.434-1.109-.993v-.024c.03-1.46.061-3.045-.426-4.173a2.015 2.015 0 0 0-1.521-1.162c-1.811-.341-3.034-1.971-2.796-3.725.238-1.755 1.855-3.03 3.696-2.916 1.842.115 3.274 1.58 3.274 3.349h-.01z" opacity=".35" style="mix-blend-mode:multiply"/>
        <path fill="#3380BE" d="M60 154v1h-.694a.297.297 0 0 1-.218-.097.338.338 0 0 1-.088-.233v-.344c0-.18.137-.326.306-.326H60z" opacity=".35" style="mix-blend-mode:multiply"/>
        <path fill="#3380BE" d="M60 154v1h-.694a.297.297 0 0 1-.218-.097.338.338 0 0 1-.088-.233v-.344c0-.18.137-.326.306-.326H60z" opacity=".35" style="mix-blend-mode:multiply"/>
        <circle cx="57" cy="150" r="2" fill="#FFF" opacity=".5" style="mix-blend-mode:screen"/>
        <circle cx="56.5" cy="150.5" r="1.5" fill="#408FCC" opacity=".6" style="mix-blend-mode:multiply"/>
        <circle cx="56.5" cy="150.5" r="1.5" fill="#408FCC" opacity=".6" style="mix-blend-mode:multiply"/>
        <path fill="#3380BE" d="M57.892 147.953h-.306c.042-.434-.142-.857-.475-1.089a.94.94 0 0 0-1.09 0c-.333.232-.517.655-.475 1.09h-.306c-.048-.56.194-1.102.624-1.399a1.22 1.22 0 0 1 1.404 0c.43.297.672.838.624 1.398z" opacity=".35" style="mix-blend-mode:multiply"/>
        <path fill="#3380BE" d="M57.892 147.953h-.306c.042-.434-.142-.857-.475-1.089a.94.94 0 0 0-1.09 0c-.333.232-.517.655-.475 1.09h-.306c-.048-.56.194-1.102.624-1.399a1.22 1.22 0 0 1 1.404 0c.43.297.672.838.624 1.398z" opacity=".35" style="mix-blend-mode:multiply"/>
        <path fill="#4B97D2" d="M76.944 70.233c-.171 1.276-.342 2.542-.489 3.822-.147 1.28-.342 2.614-.519 3.914-.195 1.49-.39 2.98-.733 4.443-.343 1.462-.822 2.948-1.301 4.405-1.514 4.542-3.025 9.09-4.535 13.646-.24.721-.49 1.433-.71 2.164a54.459 54.459 0 0 0-1.535 5.542c-.749 3.498-.979 7.081-1.575 10.602a100.625 100.625 0 0 1-3.082 12.036c-.682 2.255-1.36 4.513-2.035 6.775-.49 1.634-.734 4.3-2.148 5.418-.738-3.55.147-8.122.66-11.74a77.148 77.148 0 0 1 2.72-12.13c.348-1.123.725-2.241 1.087-3.345.293-.903.577-1.815.831-2.733 2.578-9.245 2.22-19.288 6.296-28.012.905-1.911 2.02-3.79 2.7-5.805a19.67 19.67 0 0 0 .866-7.024c-.074-2.064-.348-4.147-.626-6.211a7.112 7.112 0 0 0 2.612 2.15c.361.394.765.75 1.203 1.06l.362.244c.018.261.001.523-.049.78z" opacity=".2" style="mix-blend-mode:multiply"/>
    </g>
</svg>
