<svg xmlns="http://www.w3.org/2000/svg" width="96" height="65" viewBox="0 0 96 65">
    <defs>
        <filter id="a" width="119.5%" height="129.1%" x="-9.8%" y="-14.5%" filterUnits="objectBoundingBox">
            <feOffset dy="4" in="SourceAlpha" result="shadowOffsetOuter1"/>
            <feColorMatrix in="shadowOffsetOuter1" result="shadowMatrixOuter1" values="0 0 0 0 0.0666666667 0 0 0 0 0.129411765 0 0 0 0 0.329411765 0 0 0 1 0"/>
            <feMerge>
                <feMergeNode in="shadowMatrixOuter1"/>
                <feMergeNode in="SourceGraphic"/>
            </feMerge>
        </filter>
    </defs>
    <g fill="none" fill-rule="evenodd">
        <path fill="#E0F9FF" d="M28.608 0C-7.159 15.491-9.388 30.572 21.92 45.243c46.962 22.006 77.338 23.237 73.8-1.676C93.363 26.96 70.992 12.437 28.609 0zM56.357 61.099c-3.383-.23-4.796.477-4.239 2.12.836 2.467 7.199 2.334 6.87-.167-.22-1.668-1.097-2.319-2.63-1.953zM51.094 58.762c1.856.318 2.352.845 1.49 1.582-1.294 1.105-5.452-.515-4.602-1.971.567-.97 1.604-.841 3.112.39z"/>
        <g fill="#2D8EFF" filter="url(#a)" transform="translate(7)">
            <g fill-rule="nonzero">
                <path d="M70.691.014a2.838 2.838 0 0 0-2.155.68l-.173.153c-1.136.987-1.227 2.647-.294 3.818 5.017 6.327 8.029 14.236 8.029 22.834 0 8.598-3.012 16.513-8.03 22.834-.932 1.174-.841 2.828.295 3.818l.173.152c1.236 1.077 3.131.876 4.15-.4C78.506 46.6 82 37.452 82 27.5c0-9.952-3.492-19.094-9.314-26.4A2.912 2.912 0 0 0 70.69.015zM61.89 7.697a2.866 2.866 0 0 0-2.19.686l-.18.157c-1.07.93-1.27 2.508-.42 3.634 3.258 4.293 5.193 9.586 5.193 15.325 0 5.739-1.938 11.038-5.193 15.331-.853 1.126-.645 2.703.427 3.633l.178.158c1.252 1.088 3.19.877 4.185-.439 3.951-5.238 6.306-11.692 6.306-18.683s-2.352-13.44-6.306-18.677a2.876 2.876 0 0 0-2-1.125z"/>
                <path d="M11.309.014a2.838 2.838 0 0 1 2.155.68l.173.153c1.136.987 1.227 2.647.294 3.818C8.914 10.992 5.902 18.901 5.902 27.5c0 8.598 3.012 16.513 8.03 22.834.932 1.174.841 2.828-.295 3.818l-.173.152c-1.236 1.077-3.131.876-4.15-.4C3.494 46.6 0 37.452 0 27.5c0-9.952 3.492-19.094 9.314-26.4A2.912 2.912 0 0 1 11.31.015zm8.801 7.683c.766-.08 1.565.14 2.19.686l.18.157c1.07.93 1.27 2.508.42 3.634-3.258 4.293-5.193 9.586-5.193 15.325 0 5.739 1.938 11.038 5.193 15.331.853 1.126.645 2.703-.427 3.633l-.178.158c-1.252 1.088-3.19.877-4.185-.439-3.951-5.238-6.306-11.692-6.306-18.683s2.352-13.44 6.306-18.677a2.876 2.876 0 0 1 2-1.125zm9.234 3.936a2.32 2.32 0 0 1 1.766.55l.144.125c.863.746 1.024 2.01.339 2.912-2.627 3.44-4.187 7.68-4.187 12.28 0 4.597 1.563 8.843 4.187 12.283.687.902.52 2.166-.344 2.911l-.144.126a2.343 2.343 0 0 1-3.374-.351c-3.185-4.197-5.083-9.368-5.083-14.97s1.895-10.768 5.083-14.965c.401-.529.995-.837 1.613-.901zm24.093 0a2.32 2.32 0 0 0-1.766.55l-.144.125c-.863.746-1.024 2.01-.339 2.912 2.627 3.44 4.187 7.68 4.187 12.28 0 4.597-1.563 8.843-4.187 12.283-.687.902-.52 2.166.344 2.911l.144.126a2.343 2.343 0 0 0 3.374-.351c3.185-4.197 5.083-9.368 5.083-14.97s-1.895-10.768-5.083-14.965a2.322 2.322 0 0 0-1.613-.901z"/>
            </g>
            <ellipse cx="41" cy="27.5" rx="8.981" ry="8.908"/>
        </g>
    </g>
</svg>
