<svg xmlns="http://www.w3.org/2000/svg" width="472" height="365" viewBox="0 0 472 365">
    <defs>
        <linearGradient id="a" x1=".001%" x2="100.026%" y1="50.053%" y2="50.053%">
            <stop offset="0%" stop-color="#4E8AC8"/>
            <stop offset="100%" stop-color="#65C3DC"/>
        </linearGradient>
        <linearGradient id="b" x1="-.001%" x2="99.998%" y1="50.003%" y2="50.003%">
            <stop offset="0%" stop-color="#4E8AC8"/>
            <stop offset="100%" stop-color="#65C3DC"/>
        </linearGradient>
        <linearGradient id="c" x1="-.001%" x2="99.998%" y1="50.003%" y2="50.003%">
            <stop offset="15%" stop-color="#65C3DC" stop-opacity="0"/>
            <stop offset="100%" stop-color="#4E8AC8"/>
        </linearGradient>
        <linearGradient id="d" x1=".01%" x2="100.002%" y1="50.003%" y2="50.003%">
            <stop offset="15%" stop-color="#65C3DC" stop-opacity="0"/>
            <stop offset="100%" stop-color="#4E8AC8"/>
        </linearGradient>
        <linearGradient id="e" x1="0%" x2="100.005%" y1="50.024%" y2="50.024%">
            <stop offset="0%" stop-color="#4E8AC8"/>
            <stop offset="100%" stop-color="#65C3DC"/>
        </linearGradient>
        <linearGradient id="f" x1="0%" x2="100.005%" y1="50.024%" y2="50.024%">
            <stop offset="15%" stop-color="#65C3DC" stop-opacity="0"/>
            <stop offset="100%" stop-color="#4E8AC8"/>
        </linearGradient>
        <linearGradient id="g" x1="-.025%" x2="100.001%" y1="50.025%" y2="50.025%">
            <stop offset="0%" stop-color="#4E8AC8"/>
            <stop offset="100%" stop-color="#65C3DC"/>
        </linearGradient>
        <linearGradient id="h" x1=".041%" x2="99.996%" y1="50.006%" y2="50.006%">
            <stop offset="0%" stop-color="#4E8AC8"/>
            <stop offset="100%" stop-color="#65C3DC"/>
        </linearGradient>
        <linearGradient id="i" x1=".041%" x2="99.992%" y1="50.008%" y2="50.008%">
            <stop offset="15%" stop-color="#65C3DC" stop-opacity="0"/>
            <stop offset="100%" stop-color="#4E8AC8"/>
        </linearGradient>
        <linearGradient id="j" x1="-155.123%" x2="-4.458%" y1="87.407%" y2="59.919%">
            <stop offset="0%" stop-color="#4E8AC8"/>
            <stop offset="100%" stop-color="#65C3DC"/>
        </linearGradient>
        <linearGradient id="k" x1="9.089%" x2="84.937%" y1="52.1%" y2="48.336%">
            <stop offset="0%" stop-color="#4E8AC8"/>
            <stop offset="100%" stop-color="#65C3DC"/>
        </linearGradient>
        <linearGradient id="l" x1=".024%" y1="50.021%" y2="50.021%">
            <stop offset="0%" stop-color="#4E8AC8"/>
            <stop offset="100%" stop-color="#65C3DC"/>
        </linearGradient>
        <linearGradient id="m" x1="-.007%" x2="100.012%" y1="50.007%" y2="50.007%">
            <stop offset="0%" stop-color="#F5C2C8"/>
            <stop offset="100%" stop-color="#F6B399"/>
        </linearGradient>
        <linearGradient id="n" x1="-.003%" x2="99.998%" y1="49.995%" y2="49.995%">
            <stop offset="0%" stop-color="#F5C2C8"/>
            <stop offset="100%" stop-color="#F6B399"/>
        </linearGradient>
        <linearGradient id="o" x1="-.008%" y1="49.996%" y2="49.996%">
            <stop offset="0%" stop-color="#65C3DC" stop-opacity="0"/>
            <stop offset="100%" stop-color="#4E8AC8"/>
        </linearGradient>
        <linearGradient id="p" x1=".003%" x2="99.996%" y1="49.94%" y2="49.94%">
            <stop offset="0%" stop-color="#4E8AC8"/>
            <stop offset="100%" stop-color="#65C3DC"/>
        </linearGradient>
        <linearGradient id="q" x1="-.013%" x2="100.018%" y1="50.059%" y2="50.059%">
            <stop offset="0%" stop-color="#F5C2C8"/>
            <stop offset="100%" stop-color="#F6B399"/>
        </linearGradient>
        <linearGradient id="r" x1="-.056%" y1="50.142%" y2="50.142%">
            <stop offset="30%" stop-color="#FCEAEC"/>
            <stop offset="42%" stop-color="#FCEAEC" stop-opacity=".99"/>
            <stop offset="51%" stop-color="#FCEAEC" stop-opacity=".95"/>
            <stop offset="58%" stop-color="#FCEAEC" stop-opacity=".89"/>
            <stop offset="65%" stop-color="#FCEAEC" stop-opacity=".8"/>
            <stop offset="71%" stop-color="#FCEAEC" stop-opacity=".69"/>
            <stop offset="77%" stop-color="#FCEAEC" stop-opacity=".55"/>
            <stop offset="83%" stop-color="#FCEAEC" stop-opacity=".39"/>
            <stop offset="89%" stop-color="#FCEAEC" stop-opacity=".2"/>
            <stop offset="94%" stop-color="#FCEAEC" stop-opacity="0"/>
        </linearGradient>
        <linearGradient id="s" x1="0%" y1="50%" y2="50%">
            <stop offset="15%" stop-color="#65C3DC" stop-opacity="0"/>
            <stop offset="100%" stop-color="#4E8AC8"/>
        </linearGradient>
        <linearGradient id="t" x1=".051%" x2="100.057%" y1="50%" y2="50%">
            <stop offset="6%" stop-color="#FCEAEC"/>
            <stop offset="10%" stop-color="#FCEAEC"/>
            <stop offset="37%" stop-color="#FCEAEC"/>
        </linearGradient>
        <linearGradient id="u" x1="-.372%" x2="99.986%" y1="50.014%" y2="50.014%">
            <stop offset="0%" stop-color="#4E8AC8"/>
            <stop offset="100%" stop-color="#65C3DC"/>
        </linearGradient>
        <linearGradient id="v" x1=".003%" x2="100.005%" y1="50.005%" y2="50.005%">
            <stop offset="0%" stop-color="#4E8AC8"/>
            <stop offset="100%" stop-color="#65C3DC"/>
        </linearGradient>
        <linearGradient id="w" x1="0%" y1="49.965%" y2="49.965%">
            <stop offset="0%" stop-color="#4E8AC8"/>
            <stop offset="100%" stop-color="#65C3DC"/>
        </linearGradient>
        <linearGradient id="x" x1="0%" y1="49.965%" y2="49.965%">
            <stop offset="0%" stop-color="#65C3DC"/>
            <stop offset="100%" stop-color="#4E8AC8"/>
        </linearGradient>
        <linearGradient id="y" x1="-.051%" x2="99.986%" y1="49.839%" y2="49.839%">
            <stop offset="0%" stop-color="#4E8AC8"/>
            <stop offset="100%" stop-color="#65C3DC"/>
        </linearGradient>
    </defs>
    <g fill="none" fill-rule="nonzero">
        <path fill="#1D1F24" d="M466.015 237.227c-9.22 18.546-25.966 22.737-43.507 29.683-.83.32-1.673.64-2.516.938-18.217 6.447-40.184 5.794-56.752-4.844-16.294-10.46-31.129-18.012-51.174-17.644-17.92.333-32.731 10.01-50.07 12.075-13.53 1.615-27.296-4.167-37.205-13.511l-.51-.475c-9.732-9.392-16.188-23.747-11.963-36.57 2.219-6.731 7.06-12.276 9.826-18.806 6.373-15.044-10.408-24.115-6.242-39.953 3.56-13.464 18.324-23.07 18.11-36.997-.119-7.503-4.427-13.749-7.785-20.279a41.34 41.34 0 0 1-3.05-7.242c-2.801-9.499-2.184-20.185 2.765-28.876a34.54 34.54 0 0 1 16.235-14.497c6.064-2.588 12.853-2.636 17.552-7.943a92.607 92.607 0 0 0 7.358-9.938c.7-1.056 1.4-2.113 2.113-3.146 3.465-5.058 7.216-9.795 13.446-13.547 9.72-5.865 22.549-6.233 33.717-5.212 24.78 2.28 48.836 15.363 62.792 36.2 4.949 7.386 8.521 14.949 8.64 23.747.142 9.605.13 19.258 6.017 27.415 4.937 6.85 12.853 10.863 20.71 13.95 7.856 3.087 16.08 5.593 22.975 10.46 6.895 4.869 12.378 12.812 11.571 21.218-.676 7.04-5.542 13.155-6.195 20.184-1.187 12.787 11.144 22.084 18.751 32.45a50.456 50.456 0 0 1 4.391 51.16z"/>
        <path fill="#1D1F24" d="M465.985 237.42c-5.113 10.302-12.55 16.184-21.164 20.58a58.403 58.403 0 0 0-9.965-46.079c-9.051-12.131-23.726-23.016-22.314-38.023.783-8.246 6.572-15.446 7.379-23.645.96-9.838-5.564-19.13-13.774-24.834-8.209-5.703-17.984-8.626-27.285-12.238-9.3-3.612-18.767-8.318-24.64-16.326-6.999-9.506-6.987-20.842-7.118-32.082-.142-10.278-7.628-17.645-10.273-27.768C332.25 19.466 329.808 4.09 292 1.822c7.865-2.127 16.608-2.104 24.462-1.379 24.77 2.282 48.817 15.376 62.768 36.229 4.947 7.39 8.518 14.96 8.636 23.764.143 9.613.13 19.273 6.015 27.436 4.935 6.856 12.848 10.872 20.701 13.961 7.854 3.09 16.075 5.597 22.967 10.468 6.893 4.872 12.374 12.821 11.567 21.234-.676 7.046-5.54 13.165-6.193 20.2-1.186 12.796 11.14 22.1 18.744 32.473a50.543 50.543 0 0 1 4.318 51.212z" opacity=".4" style="mix-blend-mode:multiply"/>
        <path fill="#1D1F24" d="M374.928 183.045c.655 15.754-3 27.573-17.426 35.372-11.475 6.195-25.235 8.228-37.9 8.55-21.26.522-44.935-4.959-60.838-19.869-2.88-2.71-5.654-6.028-5.856-9.975-.19-3.567 1.785-6.967 1.952-10.558.297-6.052-4.416-11.07-6.523-16.753-2.786-7.502-.893-15.884 1.607-23.494 2.5-7.61 5.63-15.29 5.26-23.28-.487-10.38-6.736-19.428-11.724-28.535-4.987-9.108-8.927-20.213-4.666-29.653a21.234 21.234 0 0 1 16.355-11.795c7.25-.808 13.748 7.467 18.39 12.02a114.254 114.254 0 0 0 20.689 16.064c10.344 6.277 21.7 10.903 31.436 18.084 5.952 4.352 12.213 10.32 15.022 17.252 3.166 7.811-2.38 15.361 4.333 22.59 4.333 4.637 10.975 6.219 16.212 9.798 11.225 7.62 13.165 21.758 13.677 34.182z" opacity=".75" style="mix-blend-mode:multiply"/>
        <path fill="#1D1F24" d="M239.368 186.6c-2.612 6.491-5.883 12.816-7.189 19.71l3.777-8.377c2.483-.107 3.271 3.334 3.142 5.838a162.816 162.816 0 0 1-2 18.346 41.273 41.273 0 0 1-3.848 12.935 23.538 23.538 0 0 1-8.577 8.948l-.506-.475c-9.649-9.386-16.05-23.733-11.86-36.55 2.2-6.728 7-12.27 9.742-18.797 6.318-15.035-10.32-24.102-6.19-39.932 3.53-13.457 18.168-23.057 17.956-36.977-.118-7.5-4.389-13.742-7.719-20.269 4.071 4.676 10.107 7.832 13.143 13.327 2.353 4.331 2.589 9.552 2.236 14.513-.93 13.184-5.19 26.641-1.495 39.315.789 2.67 1.906 5.233 2.507 7.95 1.494 6.824-.495 13.956-3.119 20.495z" opacity=".4" style="mix-blend-mode:multiply"/>
        <path fill="url(#a)" d="M249 92.67c-11.942 12.27-1.114 42.269 17.924 37.899 20.448-4.655 17.367-36.526-1.185-41.76-7.143-2.014-12.901-.095-16.74 3.86z"/>
        <path fill="#408FCC" d="M255.998 91.67c-11.938 12.27-1.113 42.269 17.92 37.899 20.441-4.667 17.374-36.538-1.126-41.76-7.2-2.014-12.957-.095-16.794 3.86z" opacity=".6" style="mix-blend-mode:multiply"/>
        <path fill="url(#b)" d="M254.272 266.11c14.34-22.096 23.267-49.226 10.802-74.183-1.258-2.529-2.778-5.295-5.46-6.185-5.77-1.912-13.593.142-18.614 3.087-17.403 10.21-28.04 29.432-37.821 46.53-10.15 17.809-18.993 36.247-29.179 53.973-4.13 7.184-8.31 14.462-10.53 22.452-1.934 6.993-2.148 15.007.5 21.846 11.455 29.587 42.96-6.66 52.54-17.607a437.022 437.022 0 0 0 37.762-49.914z"/>
        <path fill="url(#c)" d="M254.272 266.11c14.34-22.096 23.267-49.226 10.802-74.183-1.258-2.529-2.778-5.295-5.46-6.185-5.77-1.912-13.593.142-18.614 3.087-17.403 10.21-28.04 29.432-37.821 46.53-10.15 17.809-18.993 36.247-29.179 53.973-4.13 7.184-8.31 14.462-10.53 22.452-1.934 6.993-2.148 15.007.5 21.846 11.455 29.587 42.96-6.66 52.54-17.607a437.022 437.022 0 0 0 37.762-49.914z" opacity=".85" style="mix-blend-mode:multiply"/>
        <path fill="url(#c)" d="M254.272 266.11c14.34-22.096 23.267-49.226 10.802-74.183-1.258-2.529-2.778-5.295-5.46-6.185-5.77-1.912-13.593.142-18.614 3.087-17.403 10.21-28.04 29.432-37.821 46.53-10.15 17.809-18.993 36.247-29.179 53.973-4.13 7.184-8.31 14.462-10.53 22.452-1.934 6.993-2.148 15.007.5 21.846 11.455 29.587 42.96-6.66 52.54-17.607a437.022 437.022 0 0 0 37.762-49.914z" opacity=".85" style="mix-blend-mode:multiply"/>
        <path fill="url(#d)" d="M254.268 266.109c-7.003 10.804-14.575 21.37-22.551 31.593a435.83 435.83 0 0 1-15.18 18.32c-3.929 4.488-11.537 13.215-19.94 19.923a56.482 56.482 0 0 1-9.246 6.174c-4.308 2.232-8.57 3.383-12.39 2.671-4.416-.831-8.25-4.144-10.968-11.16-2.718-7.017-2.433-14.853-.486-21.846 2.207-7.99 6.385-15.269 10.515-22.452 10.208-17.726 18.99-36.224 29.186-53.986 9.768-17.085 20.414-36.307 37.814-46.517 5.009-2.945 12.842-4.999 18.61-3.087 2.683.89 4.202 3.656 5.46 6.185 12.438 24.957 3.513 52.075-10.824 74.182z" opacity=".85" style="mix-blend-mode:multiply"/>
        <path fill="url(#e)" d="M394.627 313.63c.06 12.139.107 24.386-1.509 36.37H245c.76-.692 1.51-1.337 2.198-1.993 3.019-2.853 6.12-5.706 9.377-8.284 19.548-15.458 45.288-18.717 68.367-26.261 13.31-4.345 25.953-8.547 36.934-17.583 10.458-8.582 14.688-28.254 19.703-40.524 1.593-3.916 3.363-8.046 6.798-10.505a3.711 3.711 0 0 1 2.02-.847c2.27-.108 3.482 2.781 4.088 6.863 1.188 8.26-.06 21.39 0 24.363l.142 38.4z"/>
        <path fill="url(#f)" d="M394.627 313.63c.06 12.139.107 24.386-1.509 36.37H245c.76-.692 1.51-1.337 2.198-1.993 3.019-2.853 6.12-5.706 9.377-8.284 19.548-15.458 45.288-18.717 68.367-26.261 13.31-4.345 25.953-8.547 36.934-17.583 10.458-8.582 14.688-28.254 19.703-40.524 1.593-3.916 3.363-8.046 6.798-10.505a3.711 3.711 0 0 1 2.02-.847c2.27-.108 3.482 2.781 4.088 6.863 1.188 8.26-.06 21.39 0 24.363l.142 38.4z" opacity=".85" style="mix-blend-mode:multiply"/>
        <path fill="#408FCC" d="M394.627 313.63c.06 12.139.107 24.386-1.509 36.37H245c.76-.692 1.51-1.337 2.198-1.993 3.019-2.853 6.12-5.706 9.377-8.284 19.548-15.458 45.288-18.717 68.367-26.261 13.31-4.345 25.953-8.547 36.934-17.583 10.458-8.582 14.688-28.254 19.703-40.524 1.593-3.916 3.363-8.046 6.798-10.505a3.711 3.711 0 0 1 2.02-.847c2.27-.108 3.482 2.781 4.088 6.863 1.188 8.26-.06 21.39 0 24.363l.142 38.4z" opacity=".6" style="mix-blend-mode:multiply"/>
        <path fill="url(#g)" d="M398.125 236.996c-1.292 4.743-2.75 9.32-4.149 13.624-1.552 4.826-3.034 9.284-4.089 13.114a386.452 386.452 0 0 0-2.655 10.138 372.297 372.297 0 0 0-10.277 68.014c-.13 2.371-.26 4.743-.51 7.114H231.66c0-4.956-.083-9.913-.213-14.869-.937-32.774-4.398-65.583-.948-98.32a189.703 189.703 0 0 1 7.835-38.43c3.555-11.324 11.687-15.023 23.007-20.525a130.737 130.737 0 0 1 22.414-8.893 84.842 84.842 0 0 1 3.414-.866l.841-.201c14.84-3.225 31.4-1.826 46.227.427l.558.095c13.915 2.217 27.262 8.727 40.3 13.576 6.768 2.526 15.018 6.071 19.665 11.17 10.264 11.323 7.906 28.268 3.366 44.832z"/>
        <path fill="url(#h)" d="M460.324 347.514c-.651.237-1.278.427-1.882.594-9.707 2.72-15.578-.975-22.325-8.436-.888-.986-1.776-1.96-2.652-2.958a449.79 449.79 0 0 1-17.637-21.101c-.971-1.188-1.918-2.436-2.865-3.66a466.714 466.714 0 0 1-25.344-36.475 474.775 474.775 0 0 1-20.123-35.5c-6.818-13.426-24.93-48.428-2.936-56.412a26.628 26.628 0 0 1 21.532 1.569 42.388 42.388 0 0 1 8.132 6.035c15.863 14.258 27.226 32.53 37.24 51.089 6.203 11.5 12.572 22.86 18.858 34.265a2014.52 2014.52 0 0 1 10.854 19.913c.604 1.188 1.255 2.376 1.918 3.718 7.304 14.71 16.951 40.55-2.77 47.359z"/>
        <path fill="url(#i)" d="M460.308 347.514a26.22 26.22 0 0 1-1.882.594c-9.706 2.72-15.578-.975-22.325-8.436-.887-.986-1.775-1.96-2.651-2.958a454.436 454.436 0 0 1-17.625-21.1c-.97-1.188-1.918-2.436-2.865-3.671a465.003 465.003 0 0 1-45.465-71.962c-6.818-13.425-24.928-48.425-2.935-56.41a26.568 26.568 0 0 1 21.53 1.569 42.469 42.469 0 0 1 8.145 6.035c15.861 14.257 27.224 32.53 37.226 51.087 6.215 11.5 12.571 22.859 18.868 34.264a2014.456 2014.456 0 0 1 10.855 19.912c.603 1.188 1.243 2.377 1.917 3.72a103.49 103.49 0 0 1 6.972 17.416c3.48 12.499 3.338 25.413-9.765 29.94z" opacity=".85" style="mix-blend-mode:multiply"/>
        <path fill="url(#j)" d="M170 332h97v18h-97z"/>
        <path fill="url(#k)" d="M192.874 334.262l-22.617-115.028a6.506 6.506 0 0 0-6.38-5.234H13.189a6.482 6.482 0 0 0-5.225 2.67L1 224.871l6.178-1.353 22.307 113.26a6.483 6.483 0 0 0 6.38 5.222h150.64a6.495 6.495 0 0 0 5.023-2.365 6.454 6.454 0 0 0 1.346-5.373z"/>
        <path fill="#408FCC" d="M29.108 350H179.51c1.94 0 3.778-.866 5.012-2.361a6.475 6.475 0 0 0 1.358-5.366l-22.58-115.05A6.475 6.475 0 0 0 156.93 222H6.482a6.48 6.48 0 0 0-5.009 2.362 6.463 6.463 0 0 0-1.35 5.365l22.58 115.039A6.498 6.498 0 0 0 29.108 350z"/>
        <path fill="url(#l)" d="M77.229 283.006c1.59 7.917 8.339 13.702 16.326 13.994 7.653 0 12.662-6.27 11.188-13.994C103.268 275.28 95.953 269 88.358 269c-7.595 0-12.498 6.27-11.129 14.006z"/>
        <path fill="url(#l)" d="M77.229 283.006c1.59 7.917 8.339 13.702 16.326 13.994 7.653 0 12.662-6.27 11.188-13.994C103.268 275.28 95.953 269 88.358 269c-7.595 0-12.498 6.27-11.129 14.006z" style="mix-blend-mode:screen"/>
        <path fill="url(#m)" d="M335.384 181.556c-2.049 6.487-7.51 10.574-14.135 12.688a42.589 42.589 0 0 1-27.478-1.116c-6.792-2.864-10.577-7.675-11.547-13.33a20.807 20.807 0 0 1 1.078-10.288 44.867 44.867 0 0 0 2.396-7.888c.383-2.376.203-4.847.49-7.283.648-5.464 1.342-10.537 1.462-14.457.084-3.244.24-6.665 2.168-9.398a10.347 10.347 0 0 1 5.235-3.326c7.09-2.376 18.422-2.115 23.561-2.138 2.503-.082 5.007.09 7.475.51.816.165 1.617.395 2.395.69 3.067 1.188 4.732.677 5.199 3.682.814 5.263.3 10.764 0 16.038-.374 5.711-.31 11.442.191 17.143.444 5.94 3.378 12.581 1.51 18.473z"/>
        <path fill="#EF8676" d="M333.498 145.97c0 .775-.072 1.562-.108 2.384-6.7 10.004-16.437 19.925-28.21 24.91A96.256 96.256 0 0 1 282.225 180a20.98 20.98 0 0 1 1.076-10.326 45.199 45.199 0 0 0 2.393-7.917c.383-2.385.203-4.865.49-7.31.646-5.484 1.34-10.576 1.46-14.51.084-3.256.24-6.69 2.165-9.432a10.328 10.328 0 0 1 5.228-3.339c7.082-2.385 18.4-2.122 23.532-2.146 2.499-.082 5 .09 7.465.512.815.163 1.616.395 2.392.692 3.063 1.192 4.726.68 5.192 3.696.742 5.235.24 10.756-.12 16.05z" opacity=".4" style="mix-blend-mode:multiply"/>
        <path fill="url(#n)" d="M342.998 91.743c.167 28.288-11.31 61.111-37.932 68.266a29.542 29.542 0 0 1-10.513.846 30.208 30.208 0 0 1-15.373-5.953 47.492 47.492 0 0 1-7.389-7.072l-.178-.202c-21.134-24.847-26.8-74.779-3.647-96.947a46.353 46.353 0 0 1 5.132-4.262 44.995 44.995 0 0 1 9.219-5.096c22.132-9.048 48.908.667 57.022 25.645A83.124 83.124 0 0 1 343 91.743z"/>
        <path fill="url(#o)" d="M330 334c-30.1-2.384-52.493-1.561-83.257-1.645-2.375 0-12.455.692-15.293.108-.938-32.94-4.405-63.366-.95-96.27a191.23 191.23 0 0 1 7.849-38.625c3.562-11.382 11.707-15.1 23.046-20.63A130.703 130.703 0 0 1 283.848 168c-9.796 17.03-11.138 41.914-1.864 59.218 7.432 13.873 20.814 25.754 21.11 41.51.072 3.575-.557 7.019-.272 10.51.724 8.76 6.874 15.923 11.873 23.109A109.67 109.67 0 0 1 330 334z" opacity=".6" style="mix-blend-mode:multiply"/>
        <path fill="#383D54" d="M388 274.655a371.42 371.42 0 0 0-8.124 43.92c-1.867.38-3.722.772-5.578 1.187a486.157 486.157 0 0 1-27.725 5.104c-1.915.297-3.818.606-5.721.926-4.175.712-8.326 1.46-12.5 2.208a108.774 108.774 0 0 0-13.298-25.474c-5.043-7.122-11.192-14.244-11.894-23.016-.286-3.478.333-6.968.261-10.47-.285-15.692-13.701-27.527-21.147-41.344-8.92-16.619-8.029-40.098.773-56.978l.607-.356a20.77 20.77 0 0 0-1.035 10.185c.963 5.65 4.757 10.458 11.466 13.318a42.041 42.041 0 0 0 27.285 1.116c6.577-2.113 12-6.196 14.035-12.677 1.427-4.547 0-9.497-.94-14.304l.404.06.547.094.19.309c1.535 3.146.62 6.873.584 10.375-.096 10.802 8.23 19.526 13.142 29.153 3.485 6.826 5.305 14.387 8.326 21.426 6.257 14.553 24.573 29.973 30.342 45.238z" opacity=".15" style="mix-blend-mode:screen"/>
        <path fill="url(#p)" d="M471.66 335.06c-1.333 6.174-6.217 10.837-11.624 13.198l-.822.33c-5.192 2.043-10.862 2.444-16.412 2.822l-56.847 3.8c-9.386.615-18.767 1.256-28.144 1.925-8.957.602-18.056 1.853-27.036 1.865-3.8 0-8.04-.685-11.22-3.14a13.368 13.368 0 0 1-2.084-2.019 26.783 26.783 0 0 1-5.431-14.342 14.51 14.51 0 0 1 .214-3.777 7.477 7.477 0 0 1 2.513-4.568 9.584 9.584 0 0 1 4.36-1.511c7.145-1.287 14.363-2.645 21.569-3.849a445.34 445.34 0 0 1 5.729-.92 473.85 473.85 0 0 0 27.762-5.076c13.018-2.762 26.096-5.253 39.304-7.083 3.502-.496 7.003-.932 10.505-1.31a266.7 266.7 0 0 1 5.371-.543c1.799-.165 3.93-.366 5.955-.508 8.338-.625 17.044-.838 24.643 3.01a22.7 22.7 0 0 1 6.503 4.994c4.025 4.485 6.467 10.67 5.193 16.703z"/>
        <path fill="url(#q)" d="M326.992 347.033c0 .453 0 .917-.108 1.37-.238 2.192-.799 4.216-3.388 4.68-1.264.227-2.565.096-3.841.227a6.2 6.2 0 0 0-.943.143c-4.485.917-7.993 4.86-12.466 6.182-3.206.81-6.589.558-9.64-.715-2.815-1.048-5.678-1.62-8.577-2.549-2.255-.702-5.297-2.227-7.707-1.715-6.347 1.31-12.67 5.813-18.42 8.743a6.689 6.689 0 0 1-4.128 1.06 2.694 2.694 0 0 1-2.04-1.977 1.534 1.534 0 0 1 .239-1.192c-1.658 1.549-3.854 4.634-6.526 3.443a2.229 2.229 0 0 1-1.133-2.966c-.275.31-.573.607-.871.917a7.062 7.062 0 0 1-2.279 1.62 3.093 3.093 0 0 1-3.674-.846 3.569 3.569 0 0 1-.49-1.834 13.846 13.846 0 0 1 1.48-6.372c4.522-9.862 14.757-17.188 23.466-23.06a18.525 18.525 0 0 1 4.892-2.632 16.859 16.859 0 0 1 4.95-.548 98.889 98.889 0 0 1 31.853 5.134c2.207.75 4.653.107 6.86-.298a10.515 10.515 0 0 1 4.94-.143 8.456 8.456 0 0 1 4.258 3.43 19.17 19.17 0 0 1 1.718 2.883 14.274 14.274 0 0 1 1.575 7.015z"/>
        <path fill="url(#r)" d="M326 340.207c-2.494.867-5.024.674-7.636.94a29.845 29.845 0 0 1-7.601-.507c-11.876-1.891-22.838-5.47-34.809-6.217a6.135 6.135 0 0 0-1.935.084 7.128 7.128 0 0 0-2.874 2.073c-4.335 4.241-9.87 7.013-14.513 10.845-3.432 2.88-9.358 10.133-8.313 15.194 0 .145.06.314.095.458a7.033 7.033 0 0 1-2.269 1.639 3.047 3.047 0 0 1-3.657-.855 3.656 3.656 0 0 1-.487-1.856 14.195 14.195 0 0 1 1.472-6.447c4.501-9.977 14.691-17.388 23.36-23.328a18.349 18.349 0 0 1 4.87-2.663 16.527 16.527 0 0 1 4.928-.555 97.007 97.007 0 0 1 31.71 5.194c2.196.759 4.631.108 6.828-.301a10.305 10.305 0 0 1 4.917-.145 8.445 8.445 0 0 1 4.24 3.47c.643.94 1.203 1.936 1.674 2.977z" opacity=".5"/>
        <path fill="#EF8676" d="M327 349c-.238 2.182-.798 4.197-3.381 4.66-1.262.225-2.56.094-3.833.225-.317.023-.631.07-.94.142-4.477.913-7.977 4.837-12.441 6.154-3.2.805-6.575.556-9.62-.712-2.809-1.043-5.666-1.612-8.559-2.537-2.25-.7-5.286-2.217-7.69-1.707-6.334 1.304-12.643 5.785-18.381 8.702a6.688 6.688 0 0 1-4.12 1.055 2.685 2.685 0 0 1-2.035-1.968c.75-1.399 2.905-2.371 5.333-3.853 4.293-2.56 8.746-4.841 13.334-6.83a15.738 15.738 0 0 1 5.178-1.553c3.286-.225 6.381 1.4 9.524 2.514 6.87 2.442 14.464 2.3 21.607.818A97.273 97.273 0 0 0 327 349z" opacity=".4" style="mix-blend-mode:multiply"/>
        <path fill="url(#s)" d="M460.286 348.004a24.44 24.44 0 0 1-1.89.59c-5.18 2.041-10.835 2.442-16.371 2.82l-56.709 3.799c-9.362.613-18.72 1.254-28.075 1.923-8.934.602-18.011 1.852-26.97 1.864-3.79 0-8.02-.684-11.192-3.138a13.347 13.347 0 0 1-2.079-2.018c.34-.305.706-.58 1.093-.826 8.59-5.675 25.782-5.285 35.833-6.807a1027.96 1027.96 0 0 1 79.402-8.932l3.671-.27c4.384-.296 8.78-.59 13.07-1.18 6.867-1.039 14.803-4.213 16.003-11.008a14.732 14.732 0 0 0-.594-6.442c-.345-1.286-.76-2.56-1.105-3.835A41.018 41.018 0 0 1 463.007 301c7.39 14.583 17.073 40.244-2.721 47.004z" opacity=".85" style="mix-blend-mode:multiply"/>
        <path fill="#383D54" d="M423 311.224c0 2.019-2.06 2.58-6.012 4.336-.51.227-1.03.454-1.562.67a140.823 140.823 0 0 1-28.108 8.123c-20.19 3.919-40.902 5.221-60.726 11.075-1.645.502-8.154.729-14.592.454a7.607 7.607 0 0 1 2.497-4.623 9.41 9.41 0 0 1 4.332-1.53c7.1-1.302 14.273-2.676 21.433-3.894 1.893-.323 3.787-.633 5.692-.932a463.14 463.14 0 0 0 27.588-5.137c12.935-2.796 25.93-5.317 39.055-7.168a469.368 469.368 0 0 1-25.339-36.677 9.92 9.92 0 0 1 .284-2.497A9.023 9.023 0 0 1 391.59 268a121.02 121.02 0 0 1 22.486 25.59 93.89 93.89 0 0 1 7.658 13.44 10.923 10.923 0 0 1 1.266 4.194z" opacity=".35" style="mix-blend-mode:color-dodge"/>
        <path fill="#EF8676" d="M272 131s22.994 9.946 34 2.095c0-.024-17.108 30.399-34-2.095z" opacity=".15" style="mix-blend-mode:multiply"/>
        <path fill="#FFF" d="M271 128s24.839 8.767 38 2.64c0 0-25.485 29.494-38-2.64z"/>
        <path fill="url(#t)" d="M295 160c-5.608-.581-10.71-3.238-15.538-6.476a41.87 41.87 0 0 1-7.468-6.499l-.18-.202c-21.362-24.752-27.09-74.493-3.687-96.577A46.706 46.706 0 0 1 273.314 46c6.448 5.408 13.425 9.417 20.353 14.007-1.093-.724-4.563 5.539-4.899 6.357-1.309 3.214-1.033 5.93-.9 9.334.288 7.318.324 15.074-1.13 22.261-.78 3.867-4.358 10.473-2.953 14.316.66 1.838 2.858 1.779 3.722 3.38 1.117 2.04-.108 5.183-.336 7.318a65.086 65.086 0 0 0 2.257 23.72c.66 2.372 2.498 12.987 5.572 13.307z" opacity=".2" style="mix-blend-mode:screen"/>
        <path fill="#383D54" d="M470 318.04a4.464 4.464 0 0 1-2.374.942c-2.67.238-4.89-1.896-6.682-3.887-19.893-22.234-30.9-50.559-46.093-76.119-7.75-13.114-19.806-23.547-28.114-36.256-3.252-4.971-11.039-12.506-12.51-18.085a8.74 8.74 0 0 1-.202-2.635 26.436 26.436 0 0 1 11.87 3.124 42.587 42.587 0 0 1 8.165 6.056c15.905 14.306 27.3 32.642 37.33 51.264 6.23 11.54 12.604 22.937 18.919 34.382a2021.882 2021.882 0 0 1 10.884 19.981c.605 1.192 1.246 2.384 1.923 3.732a103.896 103.896 0 0 1 6.884 17.5z" opacity=".35" style="mix-blend-mode:color-dodge"/>
        <path fill="#408FCC" d="M230 300.126a403.408 403.408 0 0 1-12.784 15.387A185.302 185.302 0 0 1 201.409 332h-7.927L192 324.52a740.36 740.36 0 0 1 4.951-6.178A910.98 910.98 0 0 1 229.212 281c.188 6.344.47 12.747.788 19.126zM29.108 350H179.51c1.94 0 3.778-.866 5.012-2.361a6.475 6.475 0 0 0 1.358-5.366l-22.58-115.05A6.475 6.475 0 0 0 156.93 222H6.482a6.48 6.48 0 0 0-5.009 2.362 6.463 6.463 0 0 0-1.35 5.365l22.58 115.039A6.498 6.498 0 0 0 29.108 350z" opacity=".6" style="mix-blend-mode:multiply"/>
        <path fill="#EF8676" d="M255.825 65.606c3.373 7.67 20.116 10.136 27.145 11.428 8 1.458 16.424 2.999 23.3 7.61 7.56 5.062 15.287 14.45 18.411 22.346 1.255 3.177 2.485 3.26 4.497 6.01l1.822-2.632s-1.751-33.95-4.13-36.748C324.492 70.822 280.864 43 280.864 43l-12.259 2.003a16.006 16.006 0 0 0-10.584 6.48 16.062 16.062 0 0 0-2.787 12.108c.059.332.142.652.225.972.091.358.214.707.366 1.043z" opacity=".4" style="mix-blend-mode:multiply"/>
        <path fill="#F39F7B" d="M333.846 94.475c11.98-6.452 15.7 9.873 13.599 17.988a25.467 25.467 0 0 1-4.312 9.386c-2.85 3.719-11.002 9.885-15.7 5.81-2.137-1.842-2.354-4.978-2.415-7.77-.169-7.486.7-21.054 8.828-25.414z"/>
        <path fill="#1D1F24" d="M338.828 59.096c-10.418-31.96-50.195-39.875-74.173-16.917a43.407 43.407 0 0 0-7.655 9.98 31.457 31.457 0 0 0 4.203 3.02 125.619 125.619 0 0 0 24.49 11.247c7.548 2.579 15.906 3.39 22.478 8.154 11.18 8.082 18.608 19.102 18.334 32.831 0 1.194-1.095 5.85-1.19 7.044-.101.406-.037.835.178 1.194.358.315.851.428 1.31.298 4.155-.62 4.834-4.632 7.953-6.674 2.072-1.349 17.168-2.578 19.133-4.083 1.19-6.733-7.549-12.428-7.584-19.042-.084-9.407-5.06-19.615-7.477-27.052z"/>
        <path fill="#1D1F24" d="M342 89.282A22.185 22.185 0 0 0 335.565 91c-.13-6.98-3.223-19.26-3.877-21.074-3.461-9.546-8.04-19.522-16.045-26.121-8.005-6.599-18.341-10.549-28.546-12.995a91.811 91.811 0 0 0-12.822-2.208c-1.332-.131-11.787-1.396-12.275-.334 2.676-5.966 15.2-4.057 20.35-3.675a74.62 74.62 0 0 1 26.81 6.885c14.273 6.921 20.149 18.783 26.167 32.744 3.604 8.532 4.9 16.277 6.673 25.06z" opacity=".75" style="mix-blend-mode:multiply"/>
        <path fill="url(#u)" d="M262 29.484c1.293-2.243 1.684-3.489 2.858-5.138 3.309-4.629 9.783-5.447 15.416-5.934a72.801 72.801 0 0 1 33.205 4.19c28.864 10.81 32.92 41.32 34.521 68.567-1.59.119-3.973.82-5.538.831-1.186-25.075-6.617-56.072-32.671-66.029-11.301-4.307-20.919-4.474-32.718-3.714a24.802 24.802 0 0 0-15.061 7.239l-.012-.012z"/>
        <path fill="url(#v)" d="M338.668 89.495c-16.529 4.232-22.928 35.366-4.486 41.52 19.822 6.648 33.765-22.01 20.767-36.05-5.089-5.482-10.992-6.838-16.281-5.47z"/>
        <path fill="#408FCC" d="M345.035 93.117c-11.67 1.88-18.852 26.618-6.831 33.426 12.914 7.326 25.043-14.713 17.44-27.4-2.97-4.953-6.855-6.628-10.609-6.026z" opacity=".6" style="mix-blend-mode:multiply"/>
        <path fill="#408FCC" d="M345.035 93.117c-11.67 1.88-18.852 26.618-6.831 33.426 12.914 7.326 25.043-14.713 17.44-27.4-2.97-4.953-6.855-6.628-10.609-6.026z" opacity=".6" style="mix-blend-mode:multiply"/>
        <path fill="url(#w)" d="M306.894 143c-2.307 0-4.611-.167-6.894-.502l.412-2.777a42.777 42.777 0 0 0 24.153-3.348 31.526 31.526 0 0 0 5.223-2.976 24.424 24.424 0 0 0 6.765-7.397l2.447 1.412a27.337 27.337 0 0 1-7.553 8.26 34.58 34.58 0 0 1-5.694 3.244A45.02 45.02 0 0 1 306.894 143z"/>
        <path fill="url(#x)" d="M306.894 143c-2.307 0-4.611-.167-6.894-.502l.412-2.777a42.777 42.777 0 0 0 24.153-3.348 31.526 31.526 0 0 0 5.223-2.976 24.424 24.424 0 0 0 6.765-7.397l2.447 1.412a27.337 27.337 0 0 1-7.553 8.26 34.58 34.58 0 0 1-5.694 3.244A45.02 45.02 0 0 1 306.894 143z" opacity=".6" style="mix-blend-mode:multiply"/>
        <path fill="url(#x)" d="M306.894 143c-2.307 0-4.611-.167-6.894-.502l.412-2.777a42.777 42.777 0 0 0 24.153-3.348 31.526 31.526 0 0 0 5.223-2.976 24.424 24.424 0 0 0 6.765-7.397l2.447 1.412a27.337 27.337 0 0 1-7.553 8.26 34.58 34.58 0 0 1-5.694 3.244A45.02 45.02 0 0 1 306.894 143z" opacity=".6" style="mix-blend-mode:multiply"/>
        <path fill="url(#y)" d="M291.57 137.996c3.366-2.838 10.853-2.587 13.314.353a4.76 4.76 0 0 1 1.088 3.571 4.797 4.797 0 0 1-1.831 3.265c-2.38 2.177-5.328 2.051-8.3 1.39-3.679-.854-8.321-5.161-4.27-8.58z"/>
        <path fill="url(#y)" d="M291.57 137.996c3.366-2.838 10.853-2.587 13.314.353a4.76 4.76 0 0 1 1.088 3.571 4.797 4.797 0 0 1-1.831 3.265c-2.38 2.177-5.328 2.051-8.3 1.39-3.679-.854-8.321-5.161-4.27-8.58z"/>
    </g>
</svg>
