<svg xmlns="http://www.w3.org/2000/svg" width="154" height="180" viewBox="0 0 154 180">
    <defs>
        <linearGradient id="a" x1="0%" y1="49.97%" y2="49.97%">
            <stop offset="0%" stop-color="#4E8AC8"/>
            <stop offset="100%" stop-color="#65C3DC"/>
        </linearGradient>
        <linearGradient id="b" x1="0%" y1="50%" y2="50%">
            <stop offset="0%" stop-color="#4E8AC8"/>
            <stop offset="100%" stop-color="#65C3DC"/>
        </linearGradient>
        <linearGradient id="c" x1="0%" y1="50%" y2="50%">
            <stop offset="0%" stop-color="#65C3DC" stop-opacity="0"/>
            <stop offset="20%" stop-color="#5FB5D7" stop-opacity=".24"/>
            <stop offset="48%" stop-color="#58A3D1" stop-opacity=".57"/>
            <stop offset="71%" stop-color="#5395CC" stop-opacity=".8"/>
            <stop offset="90%" stop-color="#4F8DC9" stop-opacity=".95"/>
            <stop offset="100%" stop-color="#4E8AC8"/>
        </linearGradient>
        <linearGradient id="d" x1="0%" y1="50.005%" y2="50.005%">
            <stop offset="15%" stop-color="#65C3DC" stop-opacity="0"/>
            <stop offset="100%" stop-color="#4E8AC8"/>
        </linearGradient>
        <linearGradient id="e" x1="0%" y1="49.995%" y2="49.995%">
            <stop offset="15%" stop-color="#65C3DC" stop-opacity="0"/>
            <stop offset="100%" stop-color="#4E8AC8"/>
        </linearGradient>
        <linearGradient id="f" x1="0%" y1="49.997%" y2="49.997%">
            <stop offset="0%" stop-color="#4E8AC8"/>
            <stop offset="85%" stop-color="#65C3DC" stop-opacity="0"/>
        </linearGradient>
        <linearGradient id="g" x1=".027%" y1="49.997%" y2="49.997%">
            <stop offset="0%" stop-color="#4E8AC8"/>
            <stop offset="10%" stop-color="#4F8DC9" stop-opacity=".95"/>
            <stop offset="29%" stop-color="#5395CC" stop-opacity=".8"/>
            <stop offset="52%" stop-color="#58A3D1" stop-opacity=".57"/>
            <stop offset="80%" stop-color="#5FB5D7" stop-opacity=".24"/>
            <stop offset="100%" stop-color="#65C3DC" stop-opacity="0"/>
        </linearGradient>
        <linearGradient id="h" x1="91.799%" x2="-5.171%" y1="-19.992%" y2="134.389%">
            <stop offset="0%" stop-color="#65C3DC" stop-opacity="0"/>
            <stop offset="20%" stop-color="#5FB5D7" stop-opacity=".24"/>
            <stop offset="48%" stop-color="#58A3D1" stop-opacity=".57"/>
            <stop offset="71%" stop-color="#5395CC" stop-opacity=".8"/>
            <stop offset="90%" stop-color="#4F8DC9" stop-opacity=".95"/>
            <stop offset="100%" stop-color="#4E8AC8"/>
        </linearGradient>
        <linearGradient id="i" x1="85.097%" x2="-15.76%" y1="-2.454%" y2="148.258%">
            <stop offset="0%" stop-color="#65C3DC" stop-opacity="0"/>
            <stop offset="20%" stop-color="#5FB5D7" stop-opacity=".24"/>
            <stop offset="48%" stop-color="#58A3D1" stop-opacity=".57"/>
            <stop offset="71%" stop-color="#5395CC" stop-opacity=".8"/>
            <stop offset="90%" stop-color="#4F8DC9" stop-opacity=".95"/>
            <stop offset="100%" stop-color="#4E8AC8"/>
        </linearGradient>
        <linearGradient id="j" x1="0%" x2="100.01%" y1="50.029%" y2="50.029%">
            <stop offset="0%" stop-color="#4E8AC8"/>
            <stop offset="85%" stop-color="#65C3DC" stop-opacity="0"/>
        </linearGradient>
        <linearGradient id="k" x1=".01%" y1="49.981%" y2="49.981%">
            <stop offset="0%" stop-color="#F5C2C8"/>
            <stop offset="100%" stop-color="#F6B399"/>
        </linearGradient>
        <linearGradient id="l" x1="0%" y1="49.981%" y2="49.981%">
            <stop offset="30%" stop-color="#FCEAEC"/>
            <stop offset="42%" stop-color="#FCEAEC" stop-opacity=".99"/>
            <stop offset="51%" stop-color="#FCEAEC" stop-opacity=".95"/>
            <stop offset="58%" stop-color="#FCEAEC" stop-opacity=".89"/>
            <stop offset="65%" stop-color="#FCEAEC" stop-opacity=".8"/>
            <stop offset="71%" stop-color="#FCEAEC" stop-opacity=".69"/>
            <stop offset="77%" stop-color="#FCEAEC" stop-opacity=".55"/>
            <stop offset="83%" stop-color="#FCEAEC" stop-opacity=".39"/>
            <stop offset="89%" stop-color="#FCEAEC" stop-opacity=".2"/>
            <stop offset="94%" stop-color="#FCEAEC" stop-opacity="0"/>
        </linearGradient>
        <linearGradient id="m" x1="-.006%" x2="100.01%" y1="50.168%" y2="50.168%">
            <stop offset="36%" stop-color="#4E8AC8"/>
            <stop offset="54%" stop-color="#4F8DC9"/>
            <stop offset="70%" stop-color="#5498CD"/>
            <stop offset="85%" stop-color="#5BAAD3"/>
            <stop offset="100%" stop-color="#65C3DC"/>
        </linearGradient>
        <linearGradient id="n" x1="-.012%" y1="49.966%" y2="49.966%">
            <stop offset="0%" stop-color="#F5C2C8"/>
            <stop offset="100%" stop-color="#F6B399"/>
        </linearGradient>
        <linearGradient id="o" x1="51.278%" x2="46.647%" y1="93.48%" y2="-6.905%">
            <stop offset="0%" stop-color="#65C3DC"/>
            <stop offset="100%" stop-color="#4E8AC8"/>
        </linearGradient>
        <linearGradient id="p" x1="51.278%" x2="46.647%" y1="93.48%" y2="-6.905%">
            <stop offset="15%" stop-color="#65C3DC" stop-opacity="0"/>
            <stop offset="100%" stop-color="#4E8AC8"/>
        </linearGradient>
        <linearGradient id="q" x1="51.319%" x2="46.69%" y1="93.46%" y2="-6.904%">
            <stop offset="15%" stop-color="#65C3DC" stop-opacity="0"/>
            <stop offset="100%" stop-color="#4E8AC8"/>
        </linearGradient>
        <linearGradient id="r" x1=".049%" x2="100.09%" y1="50.087%" y2="50.087%">
            <stop offset="0%" stop-color="#F5C2C8"/>
            <stop offset="100%" stop-color="#F6B399"/>
        </linearGradient>
        <linearGradient id="s" x1="0%" x2="99.993%" y1="50.019%" y2="50.019%">
            <stop offset="30%" stop-color="#FCEAEC"/>
            <stop offset="42%" stop-color="#FCEAEC" stop-opacity=".99"/>
            <stop offset="51%" stop-color="#FCEAEC" stop-opacity=".95"/>
            <stop offset="58%" stop-color="#FCEAEC" stop-opacity=".89"/>
            <stop offset="65%" stop-color="#FCEAEC" stop-opacity=".8"/>
            <stop offset="71%" stop-color="#FCEAEC" stop-opacity=".69"/>
            <stop offset="77%" stop-color="#FCEAEC" stop-opacity=".55"/>
            <stop offset="83%" stop-color="#FCEAEC" stop-opacity=".39"/>
            <stop offset="89%" stop-color="#FCEAEC" stop-opacity=".2"/>
            <stop offset="94%" stop-color="#FCEAEC" stop-opacity="0"/>
        </linearGradient>
        <linearGradient id="t" x1="-.243%" x2="99.972%" y1="49.959%" y2="49.959%">
            <stop offset="0%" stop-color="#F5C2C8"/>
            <stop offset="100%" stop-color="#F6B399"/>
        </linearGradient>
        <linearGradient id="u" x1="0%" y1="49.903%" y2="49.903%">
            <stop offset="30%" stop-color="#FCEAEC"/>
            <stop offset="42%" stop-color="#FCEAEC" stop-opacity=".99"/>
            <stop offset="51%" stop-color="#FCEAEC" stop-opacity=".95"/>
            <stop offset="58%" stop-color="#FCEAEC" stop-opacity=".89"/>
            <stop offset="65%" stop-color="#FCEAEC" stop-opacity=".8"/>
            <stop offset="71%" stop-color="#FCEAEC" stop-opacity=".69"/>
            <stop offset="77%" stop-color="#FCEAEC" stop-opacity=".55"/>
            <stop offset="83%" stop-color="#FCEAEC" stop-opacity=".39"/>
            <stop offset="89%" stop-color="#FCEAEC" stop-opacity=".2"/>
            <stop offset="94%" stop-color="#FCEAEC" stop-opacity="0"/>
        </linearGradient>
        <linearGradient id="v" x1="-.02%" y1="50.017%" y2="50.017%">
            <stop offset="0%" stop-color="#4E8AC8"/>
            <stop offset="100%" stop-color="#65C3DC"/>
        </linearGradient>
        <linearGradient id="w" x1="-.02%" y1="50.017%" y2="50.017%">
            <stop offset="0%" stop-color="#65C3DC" stop-opacity="0"/>
            <stop offset="20%" stop-color="#5FB5D7" stop-opacity=".24"/>
            <stop offset="48%" stop-color="#58A3D1" stop-opacity=".57"/>
            <stop offset="71%" stop-color="#5395CC" stop-opacity=".8"/>
            <stop offset="90%" stop-color="#4F8DC9" stop-opacity=".95"/>
            <stop offset="100%" stop-color="#4E8AC8"/>
        </linearGradient>
        <linearGradient id="x" x1="-.038%" x2="99.921%" y1="49.978%" y2="49.978%">
            <stop offset="0%" stop-color="#65C3DC" stop-opacity="0"/>
            <stop offset="100%" stop-color="#4E8AC8"/>
        </linearGradient>
        <linearGradient id="y" x1="-.002%" y1="50.005%" y2="50.005%">
            <stop offset="0%" stop-color="#4E8AC8"/>
            <stop offset="100%" stop-color="#65C3DC"/>
        </linearGradient>
        <linearGradient id="z" x1="-.009%" y1="50.008%" y2="50.008%">
            <stop offset="0%" stop-color="#65C3DC" stop-opacity="0"/>
            <stop offset="100%" stop-color="#4E8AC8"/>
        </linearGradient>
        <linearGradient id="A" x1="-.071%" y1="49.996%" y2="49.996%">
            <stop offset="0%" stop-color="#4E8AC8"/>
            <stop offset="10%" stop-color="#4F8DC9" stop-opacity=".95"/>
            <stop offset="29%" stop-color="#5395CC" stop-opacity=".8"/>
            <stop offset="52%" stop-color="#58A3D1" stop-opacity=".57"/>
            <stop offset="80%" stop-color="#5FB5D7" stop-opacity=".24"/>
            <stop offset="100%" stop-color="#65C3DC" stop-opacity="0"/>
        </linearGradient>
        <linearGradient id="B" x1=".004%" x2="100.007%" y1="50.004%" y2="50.004%">
            <stop offset="0%" stop-color="#65C3DC" stop-opacity="0"/>
            <stop offset="20%" stop-color="#5FB5D7" stop-opacity=".24"/>
            <stop offset="48%" stop-color="#58A3D1" stop-opacity=".57"/>
            <stop offset="71%" stop-color="#5395CC" stop-opacity=".8"/>
            <stop offset="90%" stop-color="#4F8DC9" stop-opacity=".95"/>
            <stop offset="100%" stop-color="#4E8AC8"/>
        </linearGradient>
        <linearGradient id="C" x1="0%" y1="49.983%" y2="49.983%">
            <stop offset="0%" stop-color="#4E8AC8"/>
            <stop offset="100%" stop-color="#65C3DC"/>
        </linearGradient>
        <linearGradient id="D" x1="-.056%" y1="49.992%" y2="49.992%">
            <stop offset="0%" stop-color="#4E8AC8"/>
            <stop offset="100%" stop-color="#65C3DC"/>
        </linearGradient>
        <linearGradient id="E" x1="-.163%" x2="100.086%" y1="49.977%" y2="49.977%">
            <stop offset="0%" stop-color="#65C3DC" stop-opacity="0"/>
            <stop offset="100%" stop-color="#4E8AC8"/>
        </linearGradient>
        <linearGradient id="F" x1="-.056%" y1="50.016%" y2="50.016%">
            <stop offset="0%" stop-color="#4E8AC8"/>
            <stop offset="100%" stop-color="#65C3DC"/>
        </linearGradient>
        <linearGradient id="G" x1=".033%" y1="49.976%" y2="49.976%">
            <stop offset="0%" stop-color="#65C3DC" stop-opacity="0"/>
            <stop offset="100%" stop-color="#4E8AC8"/>
        </linearGradient>
        <linearGradient id="H" x1="-.07%" x2="99.998%" y1="50.005%" y2="50.005%">
            <stop offset="0%" stop-color="#4E8AC8"/>
            <stop offset="100%" stop-color="#65C3DC"/>
        </linearGradient>
        <linearGradient id="I" x1="0%" y1="50.007%" y2="50.007%">
            <stop offset="0%" stop-color="#65C3DC" stop-opacity="0"/>
            <stop offset="100%" stop-color="#4E8AC8"/>
        </linearGradient>
        <linearGradient id="J" x1=".009%" y1="50.099%" y2="50.099%">
            <stop offset="36%" stop-color="#4E8AC8"/>
            <stop offset="54%" stop-color="#4F8DC9"/>
            <stop offset="70%" stop-color="#5498CD"/>
            <stop offset="85%" stop-color="#5BAAD3"/>
            <stop offset="100%" stop-color="#65C3DC"/>
        </linearGradient>
        <linearGradient id="K" x1="0%" x2="99.94%" y1="50.039%" y2="50.039%">
            <stop offset="0%" stop-color="#F5C2C8"/>
            <stop offset="100%" stop-color="#F6B399"/>
        </linearGradient>
        <linearGradient id="L" x1="0%" x2="99.864%" y1="49.973%" y2="49.973%">
            <stop offset="30%" stop-color="#FCEAEC"/>
            <stop offset="42%" stop-color="#FCEAEC" stop-opacity=".99"/>
            <stop offset="51%" stop-color="#FCEAEC" stop-opacity=".95"/>
            <stop offset="58%" stop-color="#FCEAEC" stop-opacity=".89"/>
            <stop offset="65%" stop-color="#FCEAEC" stop-opacity=".8"/>
            <stop offset="71%" stop-color="#FCEAEC" stop-opacity=".69"/>
            <stop offset="77%" stop-color="#FCEAEC" stop-opacity=".55"/>
            <stop offset="83%" stop-color="#FCEAEC" stop-opacity=".39"/>
            <stop offset="89%" stop-color="#FCEAEC" stop-opacity=".2"/>
            <stop offset="94%" stop-color="#FCEAEC" stop-opacity="0"/>
        </linearGradient>
        <radialGradient id="M" cx="68.056%" cy="67.925%" r="237.58%" fx="68.056%" fy="67.925%" gradientTransform="rotate(-106.646 .753 .582) scale(1 .71482)">
            <stop offset="0%" stop-color="#112154" stop-opacity=".587"/>
            <stop offset="100%" stop-color="#1EADD4"/>
        </radialGradient>
    </defs>
    <g fill="none" fill-rule="evenodd">
        <path fill="#46A9DB" fill-rule="nonzero" d="M56 96h45v7H56zM43 104h71v4H43z" style="mix-blend-mode:multiply"/>
        <path fill="url(#a)" fill-rule="nonzero" d="M56 96h45v7H56z" style="mix-blend-mode:multiply"/>
        <path fill="url(#b)" fill-rule="nonzero" d="M43 104h71v4H43z" style="mix-blend-mode:multiply"/>
        <path fill="#46A9DB" fill-rule="nonzero" d="M151 96H0V0h151z"/>
        <path fill="url(#c)" fill-rule="nonzero" d="M0 0h151v96H0z" opacity=".95" style="mix-blend-mode:screen"/>
        <path fill="url(#d)" fill-rule="nonzero" d="M4 5h141v86H4z" opacity=".85" style="mix-blend-mode:multiply"/>
        <path fill="url(#d)" fill-rule="nonzero" d="M4 5h141v86H4z" opacity=".85" style="mix-blend-mode:multiply"/>
        <path fill="url(#e)" fill-rule="nonzero" d="M4 5h141v86H4z" opacity=".85" style="mix-blend-mode:multiply"/>
        <path fill="url(#f)" fill-rule="nonzero" d="M82 91H5V5h20.61c5.452 4.57 12.195 8.396 16.416 14.31 4.37 6.101 4.475 13.87 6.033 20.964 3.181 14.42 12.804 22.6 22.382 32.806C72.331 75.095 81.382 91 82 91z" opacity=".85" style="mix-blend-mode:multiply"/>
        <path fill="url(#g)" fill-rule="nonzero" d="M145 5v86h-7.761c-2.863-5.11-4.717-10.873-8.608-15.233-4.21-4.717-10.421-7.312-14.444-12.17-7.14-8.58-5.682-21.481-10.362-31.618C98.578 20.594 86.436 14.154 78 5.014L145 5z" opacity=".2" style="mix-blend-mode:screen"/>
        <path fill="url(#h)" fill-rule="nonzero" d="M96 0L28.538 96H0v-6.616L62.817 0z" opacity=".45" style="mix-blend-mode:screen"/>
        <path fill="url(#i)" fill-rule="nonzero" d="M128 0L60.616 96H38l67.384-96z" opacity=".3" style="mix-blend-mode:screen"/>
        <path fill="url(#j)" fill-rule="nonzero" d="M105.983 64.127c.459 1.33.848 2.684 1.413 3.973 2.05 4.657 6.16 8.03 10.24 11.046a17.696 17.696 0 0 0 4.179 2.504c1.738.651 3.624.757 5.473.924a72.025 72.025 0 0 1 20.13 4.855c.248.097.528.236.578.499a.71.71 0 0 1-.11.462c-.83 1.543-2.94 1.756-4.67 1.538-3.175-.397-6.217-1.566-9.391-2.01-3.762-.521-7.63 0-11.368-.71-4.253-.795-8.17-3.128-12.488-3.438-1.188-.083-2.394 0-3.555-.29-2.142-.504-3.849-2.121-5.271-3.812a34.588 34.588 0 0 1-6.331-11.448c-.83-2.546-1.335-5.498.064-7.775 1.184-1.931 4.436-3.659 6.74-3.423 2.605.277 3.642 4.984 4.367 7.105z" opacity=".85" style="mix-blend-mode:multiply"/>
        <path fill="url(#k)" fill-rule="nonzero" d="M77 168h-7.245l-3.291-6.272c-.3-.38-.567-.786-.797-1.214-.765-1.411-1.431-3.731 1.358-4.855 3.428-1.38 5.529-.518 6.13 1.882.15.614.212 1.248.186 1.882C73.265 163.224 77 168 77 168z"/>
        <path fill="url(#l)" fill-rule="nonzero" d="M71 168h-1.196l-3.063-6.138a8.22 8.22 0 0 1-.741-1.188c.164-.4.484-.801.842-.636a.878.878 0 0 1 .329.337 15.27 15.27 0 0 1 1.84 3.435c.193.802.45 1.583.772 2.334.265.498 1.01 1.225 1.217 1.856z" opacity=".5"/>
        <path fill="#EF8676" fill-rule="nonzero" d="M77 168h-1.863c-.225-.594-.417-1.161-.597-1.57l-1.742-4.028a7.949 7.949 0 0 1-.785-2.647 1.81 1.81 0 0 1 .347-1.305 1.56 1.56 0 0 1 1.107-.45 6.77 6.77 0 0 1 .17 1.8C73.555 163.432 77 168 77 168z" opacity=".4" style="mix-blend-mode:multiply"/>
        <path fill="url(#m)" fill-rule="nonzero" d="M76.851 168.018s2.331 7.044 2.138 9.32c-.194 2.275-4.192 3.562-11.696 1.924-5.426-1.183-10.682-3.349-12.009-6.348-1.207-2.73 1.64-4.832 4.574-4.172 1.537.376 3.105.61 4.685.7 2.566-.027 4.579.674 4.832-1.442"/>
        <path fill="#46A9DB" fill-rule="nonzero" d="M76.851 168.018s2.331 7.044 2.138 9.32c-.194 2.275-4.192 3.562-11.696 1.924-5.426-1.183-10.682-3.349-12.009-6.348-1.207-2.73 1.64-4.832 4.574-4.172 1.537.376 3.105.61 4.685.7 2.566-.027 4.579.674 4.832-1.442" style="mix-blend-mode:multiply"/>
        <path fill="#46A9DB" fill-rule="nonzero" d="M76.851 168.018s2.331 7.044 2.138 9.32c-.194 2.275-4.192 3.562-11.696 1.924-5.426-1.183-10.682-3.349-12.009-6.348-1.207-2.73 1.64-4.832 4.574-4.172 1.537.376 3.105.61 4.685.7 2.566-.027 4.579.674 4.832-1.442" style="mix-blend-mode:multiply"/>
        <path fill="#46A9DB" fill-rule="nonzero" d="M78.988 177.33c-.193 2.31-4.186 3.561-11.688 1.928-5.429-1.182-10.683-3.343-12.005-6.345a2.707 2.707 0 0 1 .69-3.316 4.458 4.458 0 0 1 3.878-.851c1.537.372 3.104.605 4.684.696 2.565-.032 4.577.669 4.83-1.442h7.474s1.718 5.181 2.082 8.106c.063.405.082.815.055 1.224z" style="mix-blend-mode:multiply"/>
        <path fill="url(#n)" fill-rule="nonzero" d="M105 23.253l-2.63 6.377s-2.343.261-5.139.56c-4.043.45-9.025.928-9.14.784-.204-.244 0-6.12 0-6.12 2.171-.5 3.844.595 3.299-1.615l-.106-.392-.204-.735a20.45 20.45 0 0 1-.462-5.079s1.23-6.846 1.895-5.953c.666.893 4.51 5.25 2.796 7.897 0 0 4.862 2.959 7.907 3.965a4.723 4.723 0 0 0 1.784.31z"/>
        <path fill="#EF8676" fill-rule="nonzero" d="M105 23.309l-.055.13-2.545 6.022-2.092.221c-.845.092-1.883.205-2.988.318l-.32-.54 4.18-6.273 2.066-.187a4.772 4.772 0 0 0 1.754.309z" opacity=".4" style="mix-blend-mode:multiply"/>
        <path fill="#EF8676" fill-rule="nonzero" d="M105 23l-2.744 6.751L100 30l4.433-6.946z" opacity=".4" style="mix-blend-mode:multiply"/>
        <path fill="url(#o)" fill-rule="nonzero" d="M66.315 161.72s-3.625 2.337-5.832-6.489V152.9l-2.945-13.872s-2.8-1.18 0-3.684c0 0-2.342-1.035-1.246-3.394 1.097-2.36 2.13-1.77 1.246-6.807-.883-5.036-.738-13.131-.738-13.131s-1.029-11.635 2.224-17.388c0 0-1.889-5.9 2.148-10.623 0 0 9.062 8.853 19.805 7.083.734.145 10.458-.454 16.792-6.198 0 0 1.767 4.574 1.178 13.277s-2.061 10.477 1.034 12.837c3.094 2.36 1.912 6.488 1.912 6.488a69.22 69.22 0 0 1 2.95 16.971s1.617-.907 1.028 4.991c0 0-6.344 6.353-11.78.454-1.768-.907-2.506-4.279-.735-6.352 0 0 1.912.299-2.211-7.819-2.433-4.782-2.868-6.747-2.814-7.555.03-.41-.129-.813-.43-1.093-1.002-.908-2.574-3.068-1.813-7.451a1.362 1.362 0 0 0-.593-1.361l-4.645-3.022c-.306-.2-.68-.267-1.037-.186a1.36 1.36 0 0 0-.979.88l-3.625 10.5s-.734 18-5.596 20.655l2.506 3.834.59 5.609s3.828 6.048 2.5 9.588l-1.975 3.997-6.92 1.593z"/>
        <path fill="url(#p)" fill-rule="nonzero" d="M66.315 161.72s-3.625 2.337-5.832-6.489V152.9l-2.945-13.872s-2.8-1.18 0-3.684c0 0-2.342-1.035-1.246-3.394 1.097-2.36 2.13-1.77 1.246-6.807-.883-5.036-.738-13.131-.738-13.131s-1.029-11.635 2.224-17.388c0 0-1.889-5.9 2.148-10.623 0 0 9.062 8.853 19.805 7.083.734.145 10.458-.454 16.792-6.198 0 0 1.767 4.574 1.178 13.277s-2.061 10.477 1.034 12.837c3.094 2.36 1.912 6.488 1.912 6.488a69.22 69.22 0 0 1 2.95 16.971s1.617-.907 1.028 4.991c0 0-6.344 6.353-11.78.454-1.768-.907-2.506-4.279-.735-6.352 0 0 1.912.299-2.211-7.819-2.433-4.782-2.868-6.747-2.814-7.555.03-.41-.129-.813-.43-1.093-1.002-.908-2.574-3.068-1.813-7.451a1.362 1.362 0 0 0-.593-1.361l-4.645-3.022c-.306-.2-.68-.267-1.037-.186a1.36 1.36 0 0 0-.979.88l-3.625 10.5s-.734 18-5.596 20.655l2.506 3.834.59 5.609s3.828 6.048 2.5 9.588l-1.975 3.997-6.92 1.593z" opacity=".85" style="mix-blend-mode:multiply"/>
        <path fill="url(#p)" fill-rule="nonzero" d="M66.315 161.72s-3.625 2.337-5.832-6.489V152.9l-2.945-13.872s-2.8-1.18 0-3.684c0 0-2.342-1.035-1.246-3.394 1.097-2.36 2.13-1.77 1.246-6.807-.883-5.036-.738-13.131-.738-13.131s-1.029-11.635 2.224-17.388c0 0-1.889-5.9 2.148-10.623 0 0 9.062 8.853 19.805 7.083.734.145 10.458-.454 16.792-6.198 0 0 1.767 4.574 1.178 13.277s-2.061 10.477 1.034 12.837c3.094 2.36 1.912 6.488 1.912 6.488a69.22 69.22 0 0 1 2.95 16.971s1.617-.907 1.028 4.991c0 0-6.344 6.353-11.78.454-1.768-.907-2.506-4.279-.735-6.352 0 0 1.912.299-2.211-7.819-2.433-4.782-2.868-6.747-2.814-7.555.03-.41-.129-.813-.43-1.093-1.002-.908-2.574-3.068-1.813-7.451a1.362 1.362 0 0 0-.593-1.361l-4.645-3.022c-.306-.2-.68-.267-1.037-.186a1.36 1.36 0 0 0-.979.88l-3.625 10.5s-.734 18-5.596 20.655l2.506 3.834.59 5.609s3.828 6.048 2.5 9.588l-1.975 3.997-6.92 1.593z" opacity=".85" style="mix-blend-mode:color-burn"/>
        <path fill="url(#q)" fill-rule="nonzero" d="M105.87 139.46c-.84.79-1.789 1.455-2.818 1.973a7.749 7.749 0 0 1-4.638.908.995.995 0 0 1-.163 0 7.313 7.313 0 0 1-4.163-2.423c-1.766-.907-2.505-4.273-.734-6.351 0 0 1.912.295-2.21-7.812-2.437-4.8-2.867-6.764-2.813-7.567a1.29 1.29 0 0 0-.43-1.08c-.997-.907-2.577-3.067-1.812-7.454a1.362 1.362 0 0 0-.593-1.36l-3.891-2.527-.553-.359-.194-.127a1.357 1.357 0 0 0-1.042-.19 1.36 1.36 0 0 0-.974.88l-.24.69-.299.866-3.08 8.941s-.607 14.971-4.412 19.626a2.271 2.271 0 0 0-.118 2.658l.906 1.416c.34.516.55 1.108.612 1.724l.398 3.824c.062.528.225 1.04.48 1.506.943 1.665 3.171 6.093 2.116 8.924l-.095.181-1.875 3.815-.422.096-3.963.907-2.541.576s-3.624 2.332-5.83-6.487v-2.332l-2.944-13.869s-2.794-1.179 0-3.683c0 0-2.341-1.035-1.24-3.394 1.1-2.359 2.119-1.769 1.24-6.805-.878-5.035-.738-13.128-.738-13.128s-.996-11.65 2.256-17.403c0 0-1.89-5.897 2.147-10.62a30.258 30.258 0 0 0 7.863 5.213c3.343 1.524 7.483 2.599 11.921 1.869.621.122 7.732-.282 13.738-3.938a20.022 20.022 0 0 0 3.053-2.268s1.762 4.572 1.178 13.274c-.584 8.7-2.066 10.475 1.028 12.834s1.912 6.487 1.912 6.487a69.213 69.213 0 0 1 2.948 16.967s1.622-.88 1.028 5.022z" opacity=".85" style="mix-blend-mode:multiply"/>
        <path fill="url(#r)" fill-rule="nonzero" d="M151.176 84.037c1.238.515-.454 1.184-.454 1.184.722.436.454.873.454.987-.05.236-.526.467-1.048.646-.218.079-.046.14.14.236.071.032.137.073.196.122.158.145.154.35-.504.669l-.422.249c-3.93 1.778-8.96.594-10.19-1.416 0-.358-10.313-3.546-13.348-4.634l1.225-1.044 1.166-.991 2.663-2.276.908-.769s5.943 1.66 8.978 2.905c3.036 1.245 4.592-1.245 7.31-1.992 2.11-.585 2.304.157 1.71.983a2.831 2.831 0 0 1-1.211.913c-2.414 1.009-1.706 1.31-.454 1.839.32.227.668.417 1.034.567 2.468.983 4.487-.681 4.66.302.218 1.122-2.813 1.52-2.813 1.52z"/>
        <path fill="url(#s)" fill-rule="nonzero" d="M149.711 77.896c-.306.406-.72.721-1.199.913-2.388 1.009-1.688 1.31-.449 1.839.318.227.662.418 1.024.568-3.857 1.651-8.698.476-9.879-1.503 0-.231-4.355-1.669-8.208-2.944l.898-.769s5.882 1.66 8.887 2.905c3.004 1.245 4.544-1.245 7.233-1.992 2.089-.585 2.282.157 1.693.983z" opacity=".5"/>
        <path fill="#EF8676" fill-rule="nonzero" d="M149.42 87.876l-.412.25c-3.84 1.786-8.759.597-9.96-1.422 0-.36-10.081-3.563-13.048-4.655L127.197 81c4.098 1.755 8.63 2.501 12.453 4.778.395.237.781.483 1.189.676.567.258 1.162.45 1.774.57 1.96.44 6.098.948 7.074.049a.76.76 0 0 0 .19.123c.209.153.209.36-.457.68z" opacity=".4" style="mix-blend-mode:multiply"/>
        <path fill="url(#t)" fill-rule="nonzero" d="M55.53 30.31a5.705 5.705 0 0 0-.136.886c0 .807-2.53.807-3.561 1.804l-.915-.466-3.405-1.673L46 30.129c2.282-4.73 8.037-5.662 9.394-4.884.352.273.56.68.57 1.114.155 1.165-.22 2.875-.434 3.952z"/>
        <path fill="url(#u)" fill-rule="nonzero" d="M56 26.156c-1.905-.274-6.332.653-8.485 3.844L46 29.378c2.309-4.039 8.071-4.832 9.43-4.17.352.232.56.579.57.948z" opacity=".5"/>
        <path fill="#1D1F24" fill-rule="nonzero" d="M112.767 13.055c-1.277 7.363-4.768 7.908-7.457 10.723-1.227 1.286-1.56 2.745-3.184 2.036l-2.527-1.231-4.24-2.069c-1.227-.526-2.292-3.533-2.093-4.87.564-3.798.27-4.644-.61-4.86-1.307-.32-2.255 4.463-2.255 4.463-1.863-10.115 3.226-14.7 5.734-15.954 2.706-1.35 5.372-1.566 8.891-1.003.393.12.767.248 1.123.38 6.365 2.435 7.421 7.698 6.618 12.385z"/>
        <path fill="url(#v)" fill-rule="nonzero" d="M132 76.278c-.794.723-1.514 1.364-2.174 1.965-.253.227-.5.455-.743.66a94.94 94.94 0 0 1-1.61 1.41l-.693.591-.615.523-.844.683a13.595 13.595 0 0 1-2.078 1.478l-.064.028c-.28.122-.239 0-.239 0-6.357-3.767-15.995-9.804-17.165-12.097-1.17-2.293-2.876-8.416-4.032-13.766l-.069.114-.036.06c0 .04-.055.09-.092.145-.16.286-.427.75-.73 1.319-.054.1-.11.2-.164.31a30.493 30.493 0 0 0-.982 2.12c-.055.131-.11.272-.156.404s-.133.355-.193.528a.267.267 0 0 0-.027.063c-.046.146-.097.292-.142.433v.027c0 .027-.042.136-.06.21-.018.072-.064.222-.096.336a7.317 7.317 0 0 0-.28 2.024c.096 3.076-.188 4.095-.849 8.298-.66 4.204.285 8.025 1.037 10.354 0 0-.252.191-.739.51l-.284.186a37.446 37.446 0 0 1-3.716 2.088 38.905 38.905 0 0 1-4.334 1.82c-.533.196-1.092.373-1.661.541-.294.091-.606.173-.917.26l-.68.172c-.28.069-.554.142-.839.2l-.803.16a.74.74 0 0 1-.15.032 22.72 22.72 0 0 1-1.702.282h-.138a28.78 28.78 0 0 1-1.918.19l-.981.05c-.409 0-.822.024-1.239 0h-.743l-.757-.026a30.271 30.271 0 0 1-1.527-.141 38.29 38.29 0 0 1-2.088-.3 35.124 35.124 0 0 1-2.899-.61c-.206-.05-.408-.105-.6-.164-.097 0-.189-.05-.28-.073l-.739-.223a18.884 18.884 0 0 1-.798-.26 8.13 8.13 0 0 1-.587-.208c-.193-.078-.395-.137-.583-.214-.188-.077-.459-.182-.67-.273-.21-.091-.56-.241-.825-.364-.165-.073-.335-.15-.491-.227a26.231 26.231 0 0 1-1.99-1.106l-.395-.255a13.75 13.75 0 0 1-3.078-2.67c-.07-.077-.133-.164-.193-.237-.301-.38-.548-.8-.734-1.246 0-.073-.046-.141-.06-.2a1.115 1.115 0 0 1-.04-.646c3.857-6.105 4.586-15.536 5.926-20.203.165-.583.32-1.26.458-2.02.023-.119.05-.237.074-.364.133-.714.261-1.483.385-2.275.055-.35.106-.71.16-1.078.258-1.897.496-3.949.707-5.946.078-.705.147-1.406.211-2.083a.185.185 0 0 0 0-.073c.046-.455.087-.874.124-1.297.037-.423.092-.937.133-1.365.041-.427.073-.768.11-1.137.055-.605.11-1.169.165-1.674.023-.273.046-.519.074-.75v-.087-.064c0-.018-10.858-1.214-14.528 1.215-3.67 2.43-7.715 2.143-9.312-.187-4.046-7.183 1.881-11.941 1.881-11.941.47-.149.957-.23 1.45-.241 2.119 0 3.619 1.419 4.316 2.274.167.186.32.384.459.592 0 0 4.798-.383 12.61-5.414 7.812-5.031 10.903-4.763 14.293-4.012 3.39.75 8.656 1.028 8.656 1.028a14.872 14.872 0 0 0 1.532 1.542 15.216 15.216 0 0 0 4.4 2.693c.146.064.293.114.43.168.138.055.29.105.46.15.43.15.853.273 1.27.378.142.046.28.073.413.105.413.09.812.168 1.202.232.39.063.761.113 1.119.145a.601.601 0 0 0 .1 0l.524.041c.818.055 1.64.055 2.458 0h.037c.23 0 .408-.036.541-.054h.239c.128.177.252.359.385.532.133.173.257.35.39.523a51.079 51.079 0 0 0 4.202 4.781c.147.146.289.296.436.432.403.41.807.801 1.188 1.165.261.246.509.487.757.714.348.332.679.637.986.91l.459.396c.133.132.266.255.394.368a.914.914 0 0 1 .096.091c.175.16.34.31.487.455l.229.219.16.163c.055.052.105.106.152.164.115.108.216.229.303.36.578.955.578 14.143 2.509 21.977S132 76.278 132 76.278z"/>
        <path fill="url(#w)" fill-rule="nonzero" d="M132 76.278c-.794.723-1.514 1.364-2.174 1.965-.253.227-.5.455-.743.66a94.94 94.94 0 0 1-1.61 1.41l-.693.591-.615.523-.844.683a13.595 13.595 0 0 1-2.078 1.478l-.064.028c-.28.122-.239 0-.239 0-6.357-3.767-15.995-9.804-17.165-12.097-1.17-2.293-2.876-8.416-4.032-13.766l-.069.114-.036.06c0 .04-.055.09-.092.145-.16.286-.427.75-.73 1.319-.054.1-.11.2-.164.31a30.493 30.493 0 0 0-.982 2.12c-.055.131-.11.272-.156.404s-.133.355-.193.528a.267.267 0 0 0-.027.063c-.046.146-.097.292-.142.433v.027c0 .027-.042.136-.06.21-.018.072-.064.222-.096.336a7.317 7.317 0 0 0-.28 2.024c.096 3.076-.188 4.095-.849 8.298-.66 4.204.285 8.025 1.037 10.354 0 0-.252.191-.739.51l-.284.186a37.446 37.446 0 0 1-3.716 2.088 38.905 38.905 0 0 1-4.334 1.82c-.533.196-1.092.373-1.661.541-.294.091-.606.173-.917.26l-.68.172c-.28.069-.554.142-.839.2l-.803.16a.74.74 0 0 1-.15.032 22.72 22.72 0 0 1-1.702.282h-.138a28.78 28.78 0 0 1-1.918.19l-.981.05c-.409 0-.822.024-1.239 0h-.743l-.757-.026a30.271 30.271 0 0 1-1.527-.141 38.29 38.29 0 0 1-2.088-.3 35.124 35.124 0 0 1-2.899-.61c-.206-.05-.408-.105-.6-.164-.097 0-.189-.05-.28-.073l-.739-.223a18.884 18.884 0 0 1-.798-.26 8.13 8.13 0 0 1-.587-.208c-.193-.078-.395-.137-.583-.214-.188-.077-.459-.182-.67-.273-.21-.091-.56-.241-.825-.364-.165-.073-.335-.15-.491-.227a26.231 26.231 0 0 1-1.99-1.106l-.395-.255a13.75 13.75 0 0 1-3.078-2.67c-.07-.077-.133-.164-.193-.237-.301-.38-.548-.8-.734-1.246 0-.073-.046-.141-.06-.2a1.115 1.115 0 0 1-.04-.646c3.857-6.105 4.586-15.536 5.926-20.203.165-.583.32-1.26.458-2.02.023-.119.05-.237.074-.364.133-.714.261-1.483.385-2.275.055-.35.106-.71.16-1.078.258-1.897.496-3.949.707-5.946.078-.705.147-1.406.211-2.083a.185.185 0 0 0 0-.073c.046-.455.087-.874.124-1.297.037-.423.092-.937.133-1.365.041-.427.073-.768.11-1.137.055-.605.11-1.169.165-1.674.023-.273.046-.519.074-.75v-.087-.064c0-.018-10.858-1.214-14.528 1.215-3.67 2.43-7.715 2.143-9.312-.187-4.046-7.183 1.881-11.941 1.881-11.941.47-.149.957-.23 1.45-.241 2.119 0 3.619 1.419 4.316 2.274.167.186.32.384.459.592 0 0 4.798-.383 12.61-5.414 7.812-5.031 10.903-4.763 14.293-4.012 3.39.75 8.656 1.028 8.656 1.028a14.872 14.872 0 0 0 1.532 1.542 15.216 15.216 0 0 0 4.4 2.693c.146.064.293.114.43.168.138.055.29.105.46.15.43.15.853.273 1.27.378.142.046.28.073.413.105.413.09.812.168 1.202.232.39.063.761.113 1.119.145a.601.601 0 0 0 .1 0l.524.041c.818.055 1.64.055 2.458 0h.037c.23 0 .408-.036.541-.054h.239c.128.177.252.359.385.532.133.173.257.35.39.523a51.079 51.079 0 0 0 4.202 4.781c.147.146.289.296.436.432.403.41.807.801 1.188 1.165.261.246.509.487.757.714.348.332.679.637.986.91l.459.396c.133.132.266.255.394.368a.914.914 0 0 1 .096.091c.175.16.34.31.487.455l.229.219.16.163c.055.052.105.106.152.164.115.108.216.229.303.36.578.955.578 14.143 2.509 21.977S132 76.278 132 76.278z" opacity=".95" style="mix-blend-mode:screen"/>
        <path fill="url(#w)" fill-rule="nonzero" d="M132 76.278c-.794.723-1.514 1.364-2.174 1.965-.253.227-.5.455-.743.66a94.94 94.94 0 0 1-1.61 1.41l-.693.591-.615.523-.844.683a13.595 13.595 0 0 1-2.078 1.478l-.064.028c-.28.122-.239 0-.239 0-6.357-3.767-15.995-9.804-17.165-12.097-1.17-2.293-2.876-8.416-4.032-13.766l-.069.114-.036.06c0 .04-.055.09-.092.145-.16.286-.427.75-.73 1.319-.054.1-.11.2-.164.31a30.493 30.493 0 0 0-.982 2.12c-.055.131-.11.272-.156.404s-.133.346-.193.528a.267.267 0 0 0-.027.063c-.046.146-.097.292-.142.433v.027c0 .027-.042.136-.06.21-.018.072-.064.222-.096.336a7.317 7.317 0 0 0-.28 2.024c.096 3.076-.188 4.095-.849 8.298-.66 4.204.285 8.025 1.037 10.354 0 0-.252.191-.739.51l-.284.186a37.446 37.446 0 0 1-3.716 2.088 38.905 38.905 0 0 1-5.995 2.361c-.294.091-.606.173-.917.26l-.68.172c-.28.069-.554.142-.839.2l-.803.16a.74.74 0 0 1-.15.032 22.72 22.72 0 0 1-1.702.282h-.138c-.629.082-1.266.145-1.918.19l-.981.05c-.409 0-.822.024-1.239 0h-.743l-.757-.026a22.433 22.433 0 0 1-1.527-.141 38.29 38.29 0 0 1-2.088-.3 35.124 35.124 0 0 1-2.899-.61c-.206-.05-.408-.105-.6-.164-.097 0-.189-.05-.28-.073l-.739-.223a18.884 18.884 0 0 1-.798-.26 8.13 8.13 0 0 1-.587-.208c-.193-.078-.395-.137-.583-.214-.188-.077-.459-.182-.67-.273-.21-.091-.56-.241-.825-.364-.165-.073-.335-.15-.491-.227a26.231 26.231 0 0 1-1.99-1.106l-.395-.255a13.75 13.75 0 0 1-3.078-2.67c-.07-.077-.133-.164-.193-.237-.301-.38-.548-.8-.734-1.246 0-.073-.046-.141-.06-.2a1.115 1.115 0 0 1-.04-.646c3.857-6.105 4.586-15.536 5.926-20.203.165-.583.32-1.26.458-2.02.023-.119.05-.237.074-.364.133-.714.261-1.483.385-2.275.055-.35.106-.71.16-1.078.258-1.897.496-3.949.707-5.946.078-.705.147-1.406.211-2.083a.185.185 0 0 0 0-.073c.046-.455.087-.874.124-1.297.037-.423.092-.937.133-1.365.041-.427.073-.768.11-1.137.055-.605.11-1.169.165-1.674.023-.273.046-.519.074-.75v-.087-.064c0-.018-10.858-1.214-14.528 1.215-3.67 2.43-7.715 2.143-9.312-.187-4.046-7.183 1.881-11.941 1.881-11.941.47-.149.957-.23 1.45-.241 2.119 0 3.619 1.419 4.316 2.274.167.186.32.384.459.592 0 0 4.798-.383 12.61-5.414 7.812-5.031 10.903-4.763 14.293-4.012 3.39.75 8.656 1.028 8.656 1.028a14.872 14.872 0 0 0 1.532 1.542 15.216 15.216 0 0 0 4.4 2.693c.146.064.293.114.43.168.138.055.29.105.46.15.416.147.84.273 1.27.378.142.046.28.073.413.105.413.095.812.173 1.202.232.39.059.761.113 1.119.145a.601.601 0 0 0 .1 0l.524.041c.818.06 1.64.06 2.458 0h.037c.23 0 .408-.036.541-.054h.239c.128.177.252.359.385.532.133.173.257.35.39.523a51.079 51.079 0 0 0 4.202 4.781c.147.146.289.296.436.432.403.41.807.801 1.188 1.165.261.246.509.487.757.714.348.332.679.637.986.91l.459.396c.133.132.266.255.394.368a.914.914 0 0 1 .096.091c.175.16.34.31.487.455l.229.219.16.163c.055.052.105.106.152.164.115.108.216.229.303.36.578.955.578 14.143 2.509 21.977S132 76.278 132 76.278z" opacity=".95" style="mix-blend-mode:screen"/>
        <path fill="url(#x)" fill-rule="nonzero" d="M81.44 42.17c-1.71 7.1-.76 14.547.046 21.82.805 7.273 1.435 14.791-.87 21.728A29.373 29.373 0 0 1 78.321 91h-.733l-.747-.027a21.873 21.873 0 0 1-1.508-.141 37.352 37.352 0 0 1-2.06-.3 34.292 34.292 0 0 1-2.86-.61c-.204-.05-.404-.104-.594-.163-.095 0-.185-.05-.276-.073l-.729-.222a18.473 18.473 0 0 1-.787-.26c-.2-.063-.39-.131-.58-.209-.19-.077-.39-.136-.575-.213-.185-.078-.453-.182-.66-.273-.209-.09-.553-.24-.816-.364-.163-.072-.33-.15-.484-.227a25.797 25.797 0 0 1-1.965-1.105l-.39-.254a13.62 13.62 0 0 1-3.037-2.668c-.068-.078-.131-.164-.19-.237a5.255 5.255 0 0 1-.724-1.245c0-.073-.046-.141-.06-.2a1.127 1.127 0 0 1-.04-.646c3.807-6.1 4.527-15.523 5.85-20.187.162-.582.316-1.26.452-2.018.022-.118.05-.237.072-.364.132-.714.258-1.482.38-2.273.055-.35.105-.709.159-1.077.254-1.896.489-3.946.697-5.941.077-.705.145-1.405.208-2.082a.187.187 0 0 0 0-.073c.046-.454.086-.873.123-1.295.036-.423.09-.937.13-1.364.042-.427.073-.768.11-1.137.054-.604.108-1.168.163-1.672.022-.273.054-.523.077-.755v-.082-.063c0-.019-10.72-1.278-14.342 1.15-3.622 2.427-7.615 2.14-9.19-.187-3.993-7.177 1.856-11.932 1.856-11.932a5.07 5.07 0 0 1 1.43-.24c2.092 0 3.572 1.417 4.26 2.272.165.186.317.383.453.59 0 0 4.735-.381 12.445-5.408 7.71-5.028 10.76-4.76 14.106-4.01s8.543 1.028 8.543 1.028A48.94 48.94 0 0 0 88 25.993c-.095.527-1.358 2.432-1.562 2.932-1.503 3.427-3.735 8.009-4.998 13.246z" opacity=".9" style="mix-blend-mode:screen"/>
        <path fill="url(#y)" fill-rule="nonzero" d="M74 91c-11.123-1.898-15.418-7.595-14.968-9.043 3.859-6.15 4.588-15.652 5.928-20.355C66.3 56.9 67.117 45.73 67.59 41.27l.413-.27C66.69 46.71 71.1 52.811 71.92 58.417c.776 5.22.358 10.66.62 15.932.243 5.01 1.23 10.88 1.459 16.651z" style="mix-blend-mode:multiply"/>
        <path fill="url(#z)" fill-rule="nonzero" d="M110 39.027c-.367 2.334-.806 4.65-1.37 6.93-3.064 4.146-5.465 8.193-6.777 11.836l-2.54 5.51L87.028 90c-2.822-13.314.497-28.387 5.925-40.817 2.59-5.932 7.1-12.023 5.178-18.209 1.21-.33 2.414-.652 3.619-.974h.107c2.571 3.72 5.948 6.956 8.143 9.027z" opacity=".9" style="mix-blend-mode:screen"/>
        <path fill="url(#A)" fill-rule="nonzero" d="M63.529 141.719c1.863 5.245 5.281 13.16 5.3 19.426l-2.538.576s-3.617 2.332-5.82-6.489V152.9l-2.938-13.872s-2.79-1.18 0-3.684c0 0-2.338-1.035-1.24-3.395 1.1-2.36 2.117-1.77 1.24-6.806-.878-5.037-.737-13.132-.737-13.132s-1.036-11.635 2.21-17.388c0 0-1.885-5.9 2.144-10.623A30.202 30.202 0 0 0 69 89.214a30.179 30.179 0 0 1-.294 2.223l-3.581 22.099c-.452 2.722-.905 5.445-1.474 8.117-1.072 4.824-2.641 9.734-1.786 14.594a34.34 34.34 0 0 0 1.664 5.472z" opacity=".95" style="mix-blend-mode:screen"/>
        <path fill="url(#B)" fill-rule="nonzero" d="M105.861 139.527s-.61.748-3.274 1.473c-3.211-4.618-3.567-12.236-3.23-16.4.163-2.036.538-4.13-.116-6.073-.48-1.383-1.442-2.565-2.178-3.834-2.404-4.02-2.716-8.81-2.885-13.415-.168-4.604-.216-9.34-.149-14.012A21.218 21.218 0 0 0 97.27 85s1.871 4.568 1.25 13.26c-.62 8.692-2.192 10.464 1.092 12.82 3.284 2.357 2.03 6.481 2.03 6.481a65.47 65.47 0 0 1 3.129 16.95s1.721-.88 1.091 5.016z" opacity=".95" style="mix-blend-mode:screen"/>
        <path fill="url(#C)" fill-rule="nonzero" d="M99 142a7.22 7.22 0 0 1-4.316-2.464c-1.764-.915-2.501-4.307-.733-6.402 0 0 1.91.298-2.207-7.873-2.402-4.773-2.85-6.758-2.81-7.59a1.544 1.544 0 0 0-.497-1.188c-.968-.915-2.398-3-1.787-7.07a1.988 1.988 0 0 0-.86-1.938L81 104.33c2.144-1.143 5.189.946 6.514 2.309 2.054 2.103 2.108 6.273 2.75 9.144 1.159 5.23 3.62 10.059 5.646 15.01 1.466 3.571-.624 7.005 3.09 11.207z" style="mix-blend-mode:multiply"/>
        <path fill="url(#D)" fill-rule="nonzero" d="M73.143 146.935c.909 1.672 3.058 6.116 2.04 8.958l-.092.182-1.808 3.83-.406.095c-.808-2.136.734-5.01.738-7.127 0-1.67-.681-3.251-1.31-4.804a61.526 61.526 0 0 1-3.21-11.257 3.291 3.291 0 0 1-.079-1.11c.105-.73.63-1.285 1.07-1.854 2.721-3.48 2.896-8.365 2.791-12.855a14.74 14.74 0 0 1 .236-3.825c.397-1.58 1.31-2.956 1.952-4.459.712-1.725 1.974-5.801 3.175-7.217.194-.248.461-.421.76-.492l-3.817 11.075s-.585 15.027-4.254 19.7a2.355 2.355 0 0 0-.113 2.668l.873 1.42c.328.519.53 1.113.59 1.73l.384 3.84c.066.528.23 1.038.48 1.502z" style="mix-blend-mode:multiply"/>
        <path fill="url(#E)" fill-rule="nonzero" d="M89.016 87.25c1.827-.54 3.723-1.098 5.29-2.21.367-.236.679-.551.913-.923a3.684 3.684 0 0 0 .31-1.942c-.082-3.134-.205-6.276.17-9.39.607-5.008 2.507-9.88 2.283-14.92a1.565 1.565 0 0 0-.087-.544 1.494 1.494 0 0 0-.57-.637c-1.59-1.117-3.655-1.13-5.61-1.283a32.126 32.126 0 0 1-6.233-1.116c-1.133-.328-2.65-.577-3.239.461-.172.346-.255.73-.242 1.117.004 1.962.181 3.92.53 5.85a151.74 151.74 0 0 1 1.562 19.783 8.797 8.797 0 0 1-.379 3.276c-.379 1.002-2.567 3.747-.64 4.204.718.171 2.284-.627 2.983-.835l2.96-.89z" opacity=".9" style="mix-blend-mode:screen"/>
        <path fill="url(#F)" fill-rule="nonzero" d="M125 82.447c-2.49 2.034-2.333 1.486-2.333 1.486-6.229-3.75-15.671-9.76-16.818-12.043-1.146-2.283-2.818-8.379-3.95-13.705-.063.109-.45.73-.899 1.63A14.117 14.117 0 0 1 104.42 54c.279 4.53.643 9.339 3.245 13.048.899 1.25 2.427 5.05 3.52 6.115 4.17 4.076 7.918 5.435 12.786 8.605.377.254.728.475 1.029.68z" opacity=".5" style="mix-blend-mode:multiply"/>
        <path fill="url(#G)" fill-rule="nonzero" d="M132 76.05c-.807.718-1.539 1.354-2.21 1.95-1.949-.302-4.06-1.597-5.427-2.396-4.461-2.608-9.198-5.51-11.226-10.162-.98-2.257-1.231-4.725-1.469-7.153-.308-3.118-.615-6.232-.788-9.359-.093-1.688-.149-3.42-.778-5a14.686 14.686 0 0 0-2.238-3.529l-5.903-7.644a3.949 3.949 0 0 1-.932-1.706 2.044 2.044 0 0 1 .098-1.051h.112c2.68 3.71 6.196 6.931 8.48 8.994.823.671 1.59 1.405 2.294 2.193.588.947.588 14.03 2.55 21.8C116.526 70.757 132 76.05 132 76.05z" opacity=".9" style="mix-blend-mode:screen"/>
        <path fill="url(#G)" fill-rule="nonzero" d="M132 76.05c-.807.718-1.539 1.354-2.21 1.95-1.949-.302-4.06-1.597-5.427-2.396-4.461-2.608-9.198-5.51-11.226-10.162-.98-2.257-1.231-4.725-1.469-7.153-.308-3.118-.615-6.232-.788-9.359-.093-1.688-.149-3.42-.778-5a14.686 14.686 0 0 0-2.238-3.529l-5.903-7.644a3.949 3.949 0 0 1-.932-1.706 2.044 2.044 0 0 1 .098-1.051h.112c2.68 3.71 6.196 6.931 8.48 8.994.823.671 1.59 1.405 2.294 2.193.588.947.588 14.03 2.55 21.8C116.526 70.757 132 76.05 132 76.05z" opacity=".9" style="mix-blend-mode:screen"/>
        <path fill="url(#H)" fill-rule="nonzero" d="M67.623 41.248v-.086-.063c0-.018-11.03-1.205-14.75 1.213-3.72 2.418-7.822 2.133-9.44-.185-4.102-7.15 1.906-11.887 1.906-11.887.476-.148.97-.229 1.47-.24-.117.37-.342.698-.647.946a9.74 9.74 0 0 0-3.343 5.38c-.498 2.264.377 5.053 2.632 5.764 2.45.775 4.84-1.204 7.352-1.766 1.446-.321 2.953-.167 4.427-.285 3.58-.294 7.138-2.183 10.597-1.218.288.8.214 1.683-.204 2.427z" opacity=".5" style="mix-blend-mode:multiply"/>
        <path fill="url(#I)" fill-rule="nonzero" d="M89 25.963a2.65 2.65 0 0 1-1.284.652 8.279 8.279 0 0 1-2.903 0 70.976 70.976 0 0 0-12.052-.63 7.313 7.313 0 0 0-2.537.405c-.864.36-1.565 1.022-2.329 1.562a18.424 18.424 0 0 1-3.993 1.948c-3.767 1.48-7.796 3.416-11.793 4.1A9.925 9.925 0 0 0 52 32.15c.165.184.316.38.452.585 0 0 4.73-.378 12.432-5.355 7.7-4.977 10.749-4.711 14.09-3.969 3.342.743 8.534 1.017 8.534 1.017.185.216.37.423.565.626.294.342.601.62.927.909z" opacity=".9" style="mix-blend-mode:screen"/>
        <path fill="url(#I)" fill-rule="nonzero" d="M89 25.963a2.65 2.65 0 0 1-1.284.652 8.279 8.279 0 0 1-2.903 0 70.976 70.976 0 0 0-12.052-.63 7.313 7.313 0 0 0-2.537.405c-.864.36-1.565 1.022-2.329 1.562a18.424 18.424 0 0 1-3.993 1.948c-3.767 1.48-7.796 3.416-11.793 4.1A9.925 9.925 0 0 0 52 32.15c.165.184.316.38.452.585 0 0 4.73-.378 12.432-5.355 7.7-4.977 10.749-4.711 14.09-3.969 3.342.743 8.534 1.017 8.534 1.017.185.216.37.423.565.626.294.342.601.62.927.909z" opacity=".9" style="mix-blend-mode:screen"/>
        <path fill="#EF8676" fill-rule="nonzero" d="M92 26.984s-2.436.276-3.965-1.488L88 25.452c2.07-.45 3.665.535 3.145-1.452L92 26.984z"/>
        <path fill="#EF8676" fill-rule="nonzero" d="M100 25c-.974-.114-1.873-.696-2.81-1.025-.519-.183-1.062-.284-1.582-.458-2.42-.922-3.888-3.334-3.563-5.852.155-.98.585-1.936.53-2.929a.507.507 0 0 0-.202-.457.478.478 0 0 0-.38 0c-.875 0-1.605 2.832-1.98 3.303-.094-.064.351-1.153.295-1.258.389-1.373 1.147-3.528 2.07-3.308.922.22 1.217 1.061.632 4.86-.206 1.335.899 4.342 2.172 4.868L100 25z" opacity=".4" style="mix-blend-mode:multiply"/>
        <path fill="#1D1F24" fill-rule="nonzero" d="M112.757 12.223c-1.334 7.268-4.982 7.805-7.79 10.583-1.282 1.27-1.631 2.71-3.328 2.01L99 23.602l4.119-3.636a13.082 13.082 0 0 0 2.757-3.013c.3-.554.56-1.127.778-1.716.559-1.427 1.121-2.853 1.687-4.278.631-1.621 1.282-3.28 1.305-5.01.024-1.73-.683-3.577-2.22-4.48-.422-.2-.821-.44-1.192-.718a1.253 1.253 0 0 1-.41-.75c6.669 2.403 7.772 7.598 6.933 12.223z" opacity=".35" style="mix-blend-mode:multiply"/>
        <path fill="url(#J)" fill-rule="nonzero" d="M106.947 153.118s.899 1.703 1.053 6.046v3.815s-6.236 2.618-7.911-.53c-1.675-3.146-3.803-1.706-5.474-3.9-1.328-1.74-2.18-4.544-1.174-6.866a1.995 1.995 0 0 1 2.414-1.11c.87.271 2.03.366 2.868-.573"/>
        <path fill="#46A9DB" fill-rule="nonzero" d="M106.947 153.118s.899 1.703 1.053 6.046v3.815s-6.236 2.618-7.911-.53c-1.675-3.146-3.803-1.706-5.474-3.9-1.328-1.74-2.18-4.544-1.174-6.866a1.995 1.995 0 0 1 2.414-1.11c.87.271 2.03.366 2.868-.573" style="mix-blend-mode:multiply"/>
        <path fill="#46A9DB" fill-rule="nonzero" d="M106.947 153.118s.899 1.703 1.053 6.046v3.815s-6.236 2.618-7.911-.53c-1.675-3.146-3.803-1.706-5.474-3.9-1.328-1.74-2.18-4.544-1.174-6.866a1.995 1.995 0 0 1 2.414-1.11c.87.271 2.03.366 2.868-.573" style="mix-blend-mode:multiply"/>
        <path fill="#46A9DB" fill-rule="nonzero" d="M108 159.163v3.816s-6.233 2.618-7.904-.53c-1.67-3.148-3.805-1.708-5.48-3.897-1.315-1.726-2.162-4.493-1.207-6.797 0 0 0-.047.033-.076a2.005 2.005 0 0 1 2.414-1.111c.87.276 2.031.372 2.869-.568l8.227 3.096s.903 1.721 1.048 6.067z" style="mix-blend-mode:multiply"/>
        <path fill="url(#K)" fill-rule="nonzero" d="M105.208 153.653c-.196.057-.387.114-.564.157-4.548 1.079-5.644-2.796-5.644-2.796v-8.704l.873-.33 3.784-1.403 1.574-.577c.518 10.976 1.01 10.694 1.01 10.694 2.182 3.112-1.033 2.959-1.033 2.959z"/>
        <path fill="#EF8676" fill-rule="nonzero" d="M105.392 152.852c-.176.054-.347.108-.506.148-.662-.804-.498-2.57-.31-3.535.065-.36.191-.705.269-1.06a6.531 6.531 0 0 0 0-2.669c-.086-.485-.208-.965-.319-1.45a30.175 30.175 0 0 1-.526-3.742l1.412-.544c.465 10.332.906 10.067.906 10.067 1.96 2.929-.926 2.785-.926 2.785z" opacity=".4" style="mix-blend-mode:multiply"/>
        <path fill="url(#L)" fill-rule="nonzero" d="M99.999 142a64.044 64.044 0 0 1-.375 7.344A3.12 3.12 0 0 1 99 151v-8.67l.999-.33z" opacity=".5"/>
        <path fill="#46A9DB" fill-rule="nonzero" d="M78.988 177.433c-.193 2.221-4.186 3.424-11.688 1.854-5.429-1.137-10.683-3.214-12.005-6.1-.576-1.086-.29-2.405.69-3.187 4.574 3.27 12.434 7.569 22.948 6.257.063.389.082.783.055 1.176zM108 160.48v1.519s-6.233 2.566-7.904-.519c-1.67-3.085-3.805-1.673-5.48-3.819-1.315-1.692-2.162-4.403-1.207-6.661 0 2.403.613 4.51 4.029 5.142 4.675.85 3.238 5.908 10.562 4.338z" style="mix-blend-mode:multiply"/>
        <path d="M127 80c-.236.43-.583.777-1 1"/>
        <path fill="#EF8676" fill-rule="nonzero" d="M55 30a8.07 8.07 0 0 0-.118.988c0 .9-2.194.9-3.089 2.012L51 32.48c.502-1.326 3.093-1.627 4-2.48z" opacity=".4" style="mix-blend-mode:multiply"/>
        <g transform="translate(78 1)">
            <circle cx="1.5" cy="1.5" r="1.5" fill="#112154" stroke="url(#M)"/>
            <path fill="#FFF" d="M.928 1.253c.277 0 .501-.116.501-.392s.225-.335-.051-.335S.556.924.556 1.2s.096.053.372.053zM.838 1.5c.276 0 .82-.315.617-.245-.204.07-.353.074-.617.115-.264.041-.276.13 0 .13z"/>
        </g>
    </g>
</svg>
