<svg xmlns="http://www.w3.org/2000/svg" width="262" height="261" viewBox="0 0 262 261">
    <defs>
        <linearGradient id="a" x1="0%" x2="100.004%" y1="50%" y2="50%">
            <stop offset="0%" stop-color="#4E8AC8"/>
            <stop offset="100%" stop-color="#65C3DC"/>
        </linearGradient>
        <linearGradient id="b" x1=".015%" x2="100.007%" y1="50%" y2="50%">
            <stop offset="0%" stop-color="#4E8AC8"/>
            <stop offset="10%" stop-color="#4F8DC9" stop-opacity=".95"/>
            <stop offset="29%" stop-color="#5395CC" stop-opacity=".8"/>
            <stop offset="52%" stop-color="#58A3D1" stop-opacity=".57"/>
            <stop offset="80%" stop-color="#5FB5D7" stop-opacity=".24"/>
            <stop offset="100%" stop-color="#65C3DC" stop-opacity="0"/>
        </linearGradient>
        <linearGradient id="c" x1="-.002%" y1="50.001%" y2="50.001%">
            <stop offset="0%" stop-color="#4E8AC8"/>
            <stop offset="10%" stop-color="#4F8DC9" stop-opacity=".95"/>
            <stop offset="29%" stop-color="#5395CC" stop-opacity=".8"/>
            <stop offset="52%" stop-color="#58A3D1" stop-opacity=".57"/>
            <stop offset="80%" stop-color="#5FB5D7" stop-opacity=".24"/>
            <stop offset="100%" stop-color="#65C3DC" stop-opacity="0"/>
        </linearGradient>
        <linearGradient id="d" x1=".08%" x2="100.088%" y1="50.019%" y2="50.019%">
            <stop offset="0%" stop-color="#4E8AC8"/>
            <stop offset="10%" stop-color="#4F8DC9" stop-opacity=".95"/>
            <stop offset="29%" stop-color="#5395CC" stop-opacity=".8"/>
            <stop offset="52%" stop-color="#58A3D1" stop-opacity=".57"/>
            <stop offset="80%" stop-color="#5FB5D7" stop-opacity=".24"/>
            <stop offset="100%" stop-color="#65C3DC" stop-opacity="0"/>
        </linearGradient>
        <linearGradient id="e" x1="-.001%" y1="50.042%" y2="50.042%">
            <stop offset="0%" stop-color="#4E8AC8"/>
            <stop offset="10%" stop-color="#4F8DC9" stop-opacity=".95"/>
            <stop offset="29%" stop-color="#5395CC" stop-opacity=".8"/>
            <stop offset="52%" stop-color="#58A3D1" stop-opacity=".57"/>
            <stop offset="80%" stop-color="#5FB5D7" stop-opacity=".24"/>
            <stop offset="100%" stop-color="#65C3DC" stop-opacity="0"/>
        </linearGradient>
        <linearGradient id="f" x1=".05%" x2="100.046%" y1="50.003%" y2="50.003%">
            <stop offset="0%" stop-color="#4E8AC8"/>
            <stop offset="10%" stop-color="#4F8DC9" stop-opacity=".95"/>
            <stop offset="29%" stop-color="#5395CC" stop-opacity=".8"/>
            <stop offset="52%" stop-color="#58A3D1" stop-opacity=".57"/>
            <stop offset="80%" stop-color="#5FB5D7" stop-opacity=".24"/>
            <stop offset="100%" stop-color="#65C3DC" stop-opacity="0"/>
        </linearGradient>
    </defs>
    <g fill="none" fill-rule="evenodd">
        <g>
            <path fill="url(#a)" fill-rule="nonzero" d="M85.63 85.64c8.238 9.5 18.795 25.481 9.668 67.348-8.92 40.893-4.18 45.081 3.62 62.46 6.41 11.76 12.82 17.373 12.82 28.578 0 6.769-1.898 9.65-7.228 10.872-3.485.803-8.452.888-15.297.888l-83.836.267a3.183 3.183 0 0 1-3.123-2.562c-.3-1.493.288-4.805 1.686-5.394h5.503c5.006-2.097 14.65-5.43 20.637-7.972 10.233-4.331 20.758-8.807 27.616-11.838a14.15 14.15 0 0 0 7.659-8.327 14.242 14.242 0 0 0-.865-11.307C53.002 186.8 37.459 150.35 27.545 110.971c-3.901-10.369-15.603-20.45-10.59-40.338C20.888 55.057 47.035 18.7 63.41.026h103.047c-2.782 8.938-20.803 45.009-79.214 76.73a5.793 5.793 0 0 0-2.924 4.054c-.313 1.727-6.925-4.669 1.312 4.83z"/>
            <path fill="url(#a)" fill-rule="nonzero" d="M85.63 85.64c8.238 9.5 18.795 25.481 9.668 67.348-8.92 40.893-4.18 45.081 3.62 62.46 6.41 11.76 12.82 17.373 12.82 28.578 0 6.769-1.898 9.65-7.228 10.872-3.485.803-8.452.888-15.297.888H3.763a3.183 3.183 0 0 1-3.123-2.562 3.198 3.198 0 0 1 1.887-3.58l5.6-4.395c5.005-2.097 15.966-2.582 21.953-5.124 10.233-4.331 20.758-8.807 27.616-11.838a14.15 14.15 0 0 0 7.659-8.327 14.242 14.242 0 0 0-.865-11.307C53.002 186.8 37.459 150.35 27.545 110.971c-3.901-10.369-15.603-20.45-10.59-40.338C20.888 55.057 47.035 18.7 63.41.026h103.047c-2.782 8.938-20.803 45.009-79.214 76.73a5.793 5.793 0 0 0-2.924 4.054 5.816 5.816 0 0 0 1.312 4.83z" opacity=".5" style="mix-blend-mode:color-burn"/>
            <path fill="url(#b)" fill-rule="nonzero" d="M85.63 85.64c8.238 9.5 18.795 25.481 9.668 67.348-8.92 40.893-4.18 45.081 3.62 62.46 6.41 11.76 12.82 17.373 12.82 28.578 0 6.769-1.898 9.65-7.228 10.872 1.124-4.574.058-9.546-1.95-13.832-2.244-4.743-5.579-8.866-8.588-13.158-5.097-7.292-9.362-15.263-11.702-23.854-8.289-30.453 8.399-63.525.318-94.03C79.818 99.57 74.222 89.86 73.24 79.1a20.81 20.81 0 0 1 .904-9.186c3.354-8.938 14.302-12.31 20.088-19.862 10.317-13.394 20.426-26.134 29.729-40.292 2.145-3.267 4.31-6.6 6.689-9.735h35.807c-2.782 8.938-20.803 45.009-79.214 76.73a5.793 5.793 0 0 0-2.924 4.054 5.816 5.816 0 0 0 1.312 4.83z" opacity=".5" style="mix-blend-mode:multiply"/>
            <path fill="url(#c)" fill-rule="nonzero" d="M68.696 202.695a23.976 23.976 0 0 1-5.8 21.672 14.248 14.248 0 0 0 1.613-15.714C53.022 186.8 37.48 150.35 27.564 110.971c-3.9-10.369-15.602-20.45-10.59-40.338C20.907 55.057 47.054 18.7 63.43.026h15.641c-8.178 8.905-15.81 18.372-23.13 28.015-6.501 8.585-12.95 17.255-18.768 26.278-5.819 9.023-11.052 18.947-10.064 29.95.364 3.92 1.528 7.742 2.685 11.518 10.115 32.968 20.283 66.074 35.034 97.225 1.514 3.143 3.055 6.299 3.868 9.683z" opacity=".5" style="mix-blend-mode:screen"/>
            <path fill="url(#d)" fill-rule="nonzero" d="M72.843 95.546c-1.248-3.92-2.698-7.926-5.304-11.14 0 0-.052.065-.072.04a7.673 7.673 0 0 0-6.746-2.876 7.69 7.69 0 0 0-6.08 4.11 19.543 19.543 0 0 0-2.282 8.05c-.208 3.52.747 6.997 1.697 10.394a2481.803 2481.803 0 0 0 17.67 60.278c.831 2.725 1.455 10.01 5.415 6.619 2.56-2.196 2.125-9.899 2.405-13.067.89-9.884.859-19.83-.091-29.708a158.312 158.312 0 0 0-6.612-32.7z" opacity=".5" style="mix-blend-mode:screen"/>
            <path fill="url(#c)" fill-rule="nonzero" d="M68.696 202.695a23.976 23.976 0 0 1-5.8 21.672 14.248 14.248 0 0 0 1.613-15.714C53.022 186.8 37.48 150.35 27.564 110.971c-3.9-10.369-15.602-20.45-10.59-40.338C20.907 55.057 47.054 18.7 63.43.026h15.641c-8.178 8.905-15.81 18.372-23.13 28.015-6.501 8.585-12.95 17.255-18.768 26.278-5.819 9.023-11.052 18.947-10.064 29.95.364 3.92 1.528 7.742 2.685 11.518 10.115 32.968 20.283 66.074 35.034 97.225 1.514 3.143 3.055 6.299 3.868 9.683z" opacity=".5" style="mix-blend-mode:screen"/>
            <path fill="url(#d)" fill-rule="nonzero" d="M72.843 95.546c-1.248-3.92-2.698-7.926-5.304-11.14 0 0-.052.065-.072.04a7.673 7.673 0 0 0-6.746-2.876 7.69 7.69 0 0 0-6.08 4.11 19.543 19.543 0 0 0-2.282 8.05c-.208 3.52.747 6.997 1.697 10.394a2481.803 2481.803 0 0 0 17.67 60.278c.831 2.725 1.455 10.01 5.415 6.619 2.56-2.196 2.125-9.899 2.405-13.067.89-9.884.859-19.83-.091-29.708a158.312 158.312 0 0 0-6.612-32.7z" opacity=".5" style="mix-blend-mode:screen"/>
            <path fill="url(#e)" fill-rule="nonzero" d="M46.241 249.703c10.402-1.587 20.901-3.201 30.737-6.977 3.452 2.613 8.185 2.613 12.52 2.43 1.171-.046 2.413-.11 3.381-.77 1.827-1.242 2.178-4.221 4.272-4.92a32.972 32.972 0 0 1 3.601 12.08c-.748.777-1.892.986-2.958 1.143-10.629 1.575-20.153 1.196-30.886 1.307-5.33.057-10.66-.063-15.986-.36-2.659-.15-6.54.883-9.199.654-1.729-.157-6.624.216-7.944-.85-2.074-1.665 2.418-2.214 3.693-2.404l8.77-1.333z" opacity=".5" style="mix-blend-mode:screen"/>
            <path fill="url(#e)" fill-rule="nonzero" d="M46.241 249.703c10.402-1.587 20.901-3.201 30.737-6.977 3.452 2.613 8.185 2.613 12.52 2.43 1.171-.046 2.413-.11 3.381-.77 1.827-1.242 2.178-4.221 4.272-4.92a32.972 32.972 0 0 1 3.601 12.08c-.748.777-1.892.986-2.958 1.143-10.629 1.575-20.153 1.196-30.886 1.307-5.33.057-10.66-.063-15.986-.36-2.659-.15-6.54.883-9.199.654-1.729-.157-6.624.216-7.944-.85-2.074-1.665 2.418-2.214 3.693-2.404l8.77-1.333z" opacity=".5" style="mix-blend-mode:screen"/>
            <path fill="url(#f)" fill-rule="nonzero" d="M122.803 41.905c8.1-5.226 16.253-10.499 22.754-17.091 6.5-6.592 11.285-14.707 11.448-23.246-6.982-.824-14.12 1.306-19.867 4.71-5.747 3.404-10.291 8.03-14.53 12.734a122.846 122.846 0 0 0-11.194 14.093c-1.853 2.777-12.963 18.562-10.272 20.019 4.765 2.56 18.508-9.193 21.661-11.219z" opacity=".5" style="mix-blend-mode:screen"/>
            <path fill="url(#f)" fill-rule="nonzero" d="M122.803 41.905c8.1-5.226 16.253-10.499 22.754-17.091 6.5-6.592 11.285-14.707 11.448-23.246-6.982-.824-14.12 1.306-19.867 4.71-5.747 3.404-10.291 8.03-14.53 12.734a122.846 122.846 0 0 0-11.194 14.093c-1.853 2.777-12.963 18.562-10.272 20.019 4.765 2.56 18.508-9.193 21.661-11.219z" opacity=".5" style="mix-blend-mode:screen"/>
            <path stroke="#112154" stroke-width="1.8" d="M60.11 140.467c24.931-4.397 45.53-26.885 45.53-53.28 0-16.194-7.093-30.723-18.327-40.62-7.133-6.283-6.35-1.318-10.986 3.76-1.509 1.653-3.09 4.566-6.364 5.467-10.239 2.82-16.207 25.572-23.482 28.167-18.853 6.724 10.434 57.07 13.63 56.506z"/>
            <path fill="#FFF" fill-rule="nonzero" d="M91.43 238.329l-75.684 16.569-.695-4.156-.69-4.142 17.612-2.973 48.568-12.002L34.975 86.346 111.622.032h11.233L44.408 88.385z"/>
            <ellipse cx="85.384" cy="233.389" fill="#F08350" fill-rule="nonzero" rx="10.389" ry="10.441"/>
            <ellipse cx="23.489" cy="250.341" fill="#F08350" fill-rule="nonzero" rx="10.389" ry="10.441"/>
            <ellipse cx="42.815" cy="86.967" fill="#F08350" fill-rule="nonzero" rx="10.389" ry="10.441"/>
        </g>
        <text fill="#112154" font-family="Avenir-Black, Avenir" font-size="60" font-weight="700">
            <tspan x="132.72" y="150">120°</tspan>
        </text>
    </g>
</svg>
