<svg xmlns="http://www.w3.org/2000/svg" width="110" height="67" viewBox="0 0 110 67">
    <defs>
        <linearGradient id="a" x1="-1.997%" x2="94.031%" y1="26.927%" y2="93.353%">
            <stop offset="0%" stop-color="#4E8AC8"/>
            <stop offset="100%" stop-color="#65C3DC"/>
        </linearGradient>
        <linearGradient id="b" x1="-1967.662%" x2="-1864.256%" y1="715.456%" y2="715.456%">
            <stop offset="0%" stop-color="#4E8AC8"/>
            <stop offset="100%" stop-color="#65C3DC"/>
        </linearGradient>
        <linearGradient id="c" x1="6.408%" x2="92.791%" y1="-28.662%" y2="117.809%">
            <stop offset="0%" stop-color="#65C3DC" stop-opacity="0"/>
            <stop offset="100%" stop-color="#4E8AC8"/>
        </linearGradient>
        <linearGradient id="d" x1="-2171.338%" x2="-2093.264%" y1="684.483%" y2="684.483%">
            <stop offset="0%" stop-color="#4E8AC8"/>
            <stop offset="100%" stop-color="#65C3DC"/>
        </linearGradient>
        <linearGradient id="e" x1="-5149.784%" x2="-4974.108%" y1="327.68%" y2="327.68%">
            <stop offset="0%" stop-color="#4E8AC8"/>
            <stop offset="100%" stop-color="#65C3DC"/>
        </linearGradient>
        <linearGradient id="f" x1="-5604.712%" x2="-5422.138%" y1="331.728%" y2="331.728%">
            <stop offset="0%" stop-color="#4E8AC8"/>
            <stop offset="100%" stop-color="#65C3DC"/>
        </linearGradient>
        <linearGradient id="g" x1="-11294.044%" x2="-11127.809%" y1="618.383%" y2="618.383%">
            <stop offset="0%" stop-color="#4E8AC8"/>
            <stop offset="100%" stop-color="#65C3DC"/>
        </linearGradient>
        <linearGradient id="h" x1="-14861.168%" x2="-14754.834%" y1="840.62%" y2="840.62%">
            <stop offset="0%" stop-color="#4E8AC8"/>
            <stop offset="100%" stop-color="#65C3DC"/>
        </linearGradient>
        <linearGradient id="i" x1="-117.26%" x2="133.115%" y1="-19.015%" y2="111.02%">
            <stop offset="0%" stop-color="#65C3DC" stop-opacity="0"/>
            <stop offset="20%" stop-color="#5FB5D7" stop-opacity=".24"/>
            <stop offset="48%" stop-color="#58A3D1" stop-opacity=".57"/>
            <stop offset="71%" stop-color="#5395CC" stop-opacity=".8"/>
            <stop offset="90%" stop-color="#4F8DC9" stop-opacity=".95"/>
            <stop offset="100%" stop-color="#4E8AC8"/>
        </linearGradient>
        <linearGradient id="j" x1="-2115.787%" x2="-1975.442%" y1="268.36%" y2="268.36%">
            <stop offset="0%" stop-color="#4E8AC8"/>
            <stop offset="100%" stop-color="#65C3DC"/>
        </linearGradient>
        <linearGradient id="k" x1="-3177.968%" x2="-3049.434%" y1="400.724%" y2="400.724%">
            <stop offset="0%" stop-color="#4E8AC8"/>
            <stop offset="100%" stop-color="#65C3DC"/>
        </linearGradient>
        <linearGradient id="l" x1="-1967.662%" x2="-1864.256%" y1="715.456%" y2="715.456%">
            <stop offset="0%" stop-color="#65C3DC" stop-opacity="0"/>
            <stop offset="20%" stop-color="#5FB5D7" stop-opacity=".24"/>
            <stop offset="48%" stop-color="#58A3D1" stop-opacity=".57"/>
            <stop offset="71%" stop-color="#5395CC" stop-opacity=".8"/>
            <stop offset="90%" stop-color="#4F8DC9" stop-opacity=".95"/>
            <stop offset="100%" stop-color="#4E8AC8"/>
        </linearGradient>
        <linearGradient id="m" x1="-1312.382%" x2="-1215.689%" y1="654.745%" y2="654.745%">
            <stop offset="0%" stop-color="#65C3DC" stop-opacity="0"/>
            <stop offset="20%" stop-color="#5FB5D7" stop-opacity=".24"/>
            <stop offset="48%" stop-color="#58A3D1" stop-opacity=".57"/>
            <stop offset="71%" stop-color="#5395CC" stop-opacity=".8"/>
            <stop offset="90%" stop-color="#4F8DC9" stop-opacity=".95"/>
            <stop offset="100%" stop-color="#4E8AC8"/>
        </linearGradient>
        <linearGradient id="n" x1="14.095%" x2="85.899%" y1="6.053%" y2="88.005%">
            <stop offset="0%" stop-color="#65C3DC"/>
            <stop offset="100%" stop-color="#4E8AC8"/>
        </linearGradient>
        <linearGradient id="o" x1="-5149.784%" x2="-4974.108%" y1="327.68%" y2="327.68%">
            <stop offset="0%" stop-color="#65C3DC" stop-opacity="0"/>
            <stop offset="20%" stop-color="#5FB5D7" stop-opacity=".24"/>
            <stop offset="48%" stop-color="#58A3D1" stop-opacity=".57"/>
            <stop offset="71%" stop-color="#5395CC" stop-opacity=".8"/>
            <stop offset="90%" stop-color="#4F8DC9" stop-opacity=".95"/>
            <stop offset="100%" stop-color="#4E8AC8"/>
        </linearGradient>
        <linearGradient id="p" x1="-11304.081%" x2="-11106.739%" y1="562.295%" y2="663.103%">
            <stop offset="0%" stop-color="#65C3DC" stop-opacity="0"/>
            <stop offset="20%" stop-color="#5FB5D7" stop-opacity=".24"/>
            <stop offset="48%" stop-color="#58A3D1" stop-opacity=".57"/>
            <stop offset="71%" stop-color="#5395CC" stop-opacity=".8"/>
            <stop offset="90%" stop-color="#4F8DC9" stop-opacity=".95"/>
            <stop offset="100%" stop-color="#4E8AC8"/>
        </linearGradient>
        <linearGradient id="q" x1="-14870.802%" x2="-14739.979%" y1="764.578%" y2="968.692%">
            <stop offset="0%" stop-color="#65C3DC" stop-opacity="0"/>
            <stop offset="20%" stop-color="#5FB5D7" stop-opacity=".24"/>
            <stop offset="48%" stop-color="#58A3D1" stop-opacity=".57"/>
            <stop offset="71%" stop-color="#5395CC" stop-opacity=".8"/>
            <stop offset="90%" stop-color="#4F8DC9" stop-opacity=".95"/>
            <stop offset="100%" stop-color="#4E8AC8"/>
        </linearGradient>
        <linearGradient id="r" x1="-11.638%" x2="116.086%" y1="28.299%" y2="68.743%">
            <stop offset="0%" stop-color="#4E8AC8"/>
            <stop offset="10%" stop-color="#4F8DC9" stop-opacity=".95"/>
            <stop offset="29%" stop-color="#5395CC" stop-opacity=".8"/>
            <stop offset="52%" stop-color="#58A3D1" stop-opacity=".57"/>
            <stop offset="80%" stop-color="#5FB5D7" stop-opacity=".24"/>
            <stop offset="100%" stop-color="#65C3DC" stop-opacity="0"/>
        </linearGradient>
        <linearGradient id="s" x1="-4061.479%" x2="-3928.334%" y1="393.4%" y2="393.4%">
            <stop offset="0%" stop-color="#4E8AC8"/>
            <stop offset="10%" stop-color="#4F8DC9" stop-opacity=".95"/>
            <stop offset="29%" stop-color="#5395CC" stop-opacity=".8"/>
            <stop offset="52%" stop-color="#58A3D1" stop-opacity=".57"/>
            <stop offset="80%" stop-color="#5FB5D7" stop-opacity=".24"/>
            <stop offset="100%" stop-color="#65C3DC" stop-opacity="0"/>
        </linearGradient>
        <linearGradient id="t" x1="-2983.782%" x2="-2882.302%" y1="1629.974%" y2="1629.974%">
            <stop offset="0%" stop-color="#4E8AC8"/>
            <stop offset="10%" stop-color="#4F8DC9" stop-opacity=".95"/>
            <stop offset="29%" stop-color="#5395CC" stop-opacity=".8"/>
            <stop offset="52%" stop-color="#58A3D1" stop-opacity=".57"/>
            <stop offset="80%" stop-color="#5FB5D7" stop-opacity=".24"/>
            <stop offset="100%" stop-color="#65C3DC" stop-opacity="0"/>
        </linearGradient>
        <linearGradient id="u" x1="-1774.46%" x2="-1679.996%" y1="1013.44%" y2="1013.44%">
            <stop offset="0%" stop-color="#4E8AC8"/>
            <stop offset="10%" stop-color="#4F8DC9" stop-opacity=".95"/>
            <stop offset="29%" stop-color="#5395CC" stop-opacity=".8"/>
            <stop offset="52%" stop-color="#58A3D1" stop-opacity=".57"/>
            <stop offset="80%" stop-color="#5FB5D7" stop-opacity=".24"/>
            <stop offset="100%" stop-color="#65C3DC" stop-opacity="0"/>
        </linearGradient>
        <linearGradient id="v" x1="-2737.713%" x2="-2660.107%" y1="834.257%" y2="834.257%">
            <stop offset="0%" stop-color="#4E8AC8"/>
            <stop offset="10%" stop-color="#4F8DC9" stop-opacity=".95"/>
            <stop offset="29%" stop-color="#5395CC" stop-opacity=".8"/>
            <stop offset="52%" stop-color="#58A3D1" stop-opacity=".57"/>
            <stop offset="80%" stop-color="#5FB5D7" stop-opacity=".24"/>
            <stop offset="100%" stop-color="#65C3DC" stop-opacity="0"/>
        </linearGradient>
        <linearGradient id="w" x1="-5152.974%" x2="-5089.528%" y1="786.038%" y2="786.038%">
            <stop offset="0%" stop-color="#4E8AC8"/>
            <stop offset="10%" stop-color="#4F8DC9" stop-opacity=".95"/>
            <stop offset="29%" stop-color="#5395CC" stop-opacity=".8"/>
            <stop offset="52%" stop-color="#58A3D1" stop-opacity=".57"/>
            <stop offset="80%" stop-color="#5FB5D7" stop-opacity=".24"/>
            <stop offset="100%" stop-color="#65C3DC" stop-opacity="0"/>
        </linearGradient>
        <linearGradient id="x" x1="-2583.748%" x2="-2499.435%" y1="973.477%" y2="973.477%">
            <stop offset="0%" stop-color="#65C3DC" stop-opacity="0"/>
            <stop offset="20%" stop-color="#5FB5D7" stop-opacity=".24"/>
            <stop offset="48%" stop-color="#58A3D1" stop-opacity=".57"/>
            <stop offset="71%" stop-color="#5395CC" stop-opacity=".8"/>
            <stop offset="90%" stop-color="#4F8DC9" stop-opacity=".95"/>
            <stop offset="100%" stop-color="#4E8AC8"/>
        </linearGradient>
    </defs>
    <g fill="none" fill-rule="nonzero">
        <path fill="url(#a)" d="M11.304 15.717c6.731 16.162 34.945 45.835 77.56 38.766-.337 1.292-2.207 3.143-4.39 4.218-2.184 1.076-2.614 4.754-2.447 6.042 0 0-2.304-1.976-.703-5.736 0 0-3.433 1.973-3.805 6.034 0 0-1.756-2.723-.72-4.699-.363.676-6.462 11.368-23.707 4.189 0 0 11.026 1.256 15.805-7.372 0 0-18.354 18.02-49.949-7.147 0 0 11.307 2.591 17.438-1.306-.433.132-21.977 6.562-33.073-15.85.202.172 6.685 5.634 13.189 2.763-6.852-.39-20.488-2.693-15.384-24.592C6.641-10.833 37.212.942 39.966 36.337a25.42 25.42 0 0 0-3.513-20.3s16.563 8.115 14.84 26.554c0 0 3.42-8.488-2.927-19.986 0 0 12.152 5.666 14.37 17.415 0 0 1.77-4.972-4.624-11.338 0 0 14.906 1.749 19.963 19.281 0-.21.381-7.042-5.11-13.04 0 0 9.659 1.958 9.814 12.469 0 0 1.551-4.125.822-6.442.109.126 3.313 3.961 2.769 9.934-.038.41-.094.83-.17 1.256 0 0 11.06-1.664 15.776-3.955 4.454-2.157 6.023-1.332 6.878-.875l.146.076c-2.772 1.609-12.04 5.8-27.415 6.646-15.375.845-49.645-3.501-70.281-38.315z"/>
        <path fill="url(#a)" d="M11.304 15.717c6.731 16.162 34.945 45.835 77.56 38.766-.337 1.292-2.207 3.143-4.39 4.218-2.184 1.076-2.614 4.754-2.447 6.042 0 0-2.304-1.976-.703-5.736 0 0-3.433 1.973-3.805 6.034 0 0-1.756-2.723-.72-4.699-.363.676-6.462 11.368-23.707 4.189 0 0 11.026 1.256 15.805-7.372 0 0-18.354 18.02-49.949-7.147 0 0 11.307 2.591 17.438-1.306-.433.132-21.977 6.562-33.073-15.85.202.172 6.685 5.634 13.189 2.763-6.852-.39-20.488-2.693-15.384-24.592C6.641-10.833 37.212.942 39.966 36.337a25.42 25.42 0 0 0-3.513-20.3s16.563 8.115 14.84 26.554c0 0 3.42-8.488-2.927-19.986 0 0 12.152 5.666 14.37 17.415 0 0 1.77-4.972-4.624-11.338 0 0 14.906 1.749 19.963 19.281 0-.21.381-7.042-5.11-13.04 0 0 9.659 1.958 9.814 12.469 0 0 1.551-4.125.822-6.442.109.126 3.313 3.961 2.769 9.934-.038.41-.094.83-.17 1.256 0 0 11.06-1.664 15.776-3.955 4.454-2.157 6.023-1.332 6.878-.875l.146.076c-2.772 1.609-12.04 5.8-27.415 6.646-15.375.845-49.645-3.501-70.281-38.315z" opacity=".5" style="mix-blend-mode:color-burn"/>
        <path fill="url(#b)" d="M11.028 41.655c7.224 5.56 16.695 8.334 25.386 4.715 1.488-.62-.254-1.342-.877-1.603a24.063 24.063 0 0 1-6.843-4.31C26.844 38.81 25.3 36.895 23.692 35c.032.039-3.429 1.664-3.762 1.78a20.68 20.68 0 0 1-4.385 1.018c-2.923.35-5.692-.09-8.545-.736a3.78 3.78 0 0 0 .769 1.733 15.578 15.578 0 0 0 1.669 1.54c.503.457 1.04.896 1.59 1.32z"/>
        <path fill="url(#c)" d="M23 52.361c5.554 3.1 13.15 1.773 18.269-1.945.208-.172.449-.304.71-.389.521-.12 1.037.184 1.488.468C50.752 55.077 59.28 57.516 68 57.511c-2.018 1-3.86 2.336-5.976 3.14-1.445.521-2.952.87-4.487 1.04-6.27.786-12.688.022-18.75-1.709-6.06-1.73-10.33-4.566-15.787-7.62z" opacity=".75" style="mix-blend-mode:multiply"/>
        <path fill="url(#d)" d="M64.07 65.07a11.185 11.185 0 0 0 6.373-6.11c.2-.488.382-1.015.79-1.36 1.037-.873 6.231.523 7.639.529A38.977 38.977 0 0 0 88 57c-2.021 1.164-4.184 2.667-5.062 4.916l.332-2.164c.03-.204 0-.483-.188-.527a.418.418 0 0 0-.262.061 12.635 12.635 0 0 0-4.603 3.782c.061-.873.123-1.725.182-2.586-.074 1.038-6.696 4.235-7.83 4.773-2.644 1.257-6.74 2.49-9.569 1.193.632-.817 1.9-.963 2.865-1.3l.205-.079z"/>
        <path fill="url(#e)" d="M40 42.571a30.202 30.202 0 0 0 3.32-13.71 22.39 22.39 0 0 0-.257-3.681A13.281 13.281 0 0 0 40.977 20c4.098 2.386 7.612 8.932 9.078 14.378.908 3.406 1.231 8.337.661 13.622-.013 0-5.918-1.908-10.716-5.429z"/>
        <path fill="url(#f)" d="M53.003 40.56C53.633 35.57 53.23 30.284 51 26l4.184 4.575a26.3 26.3 0 0 1 5.898 10.276c.416 1.448 1.946 11.833-.199 11.113-2.837-.954-5.4-2.278-8.302-3.06a1.743 1.743 0 0 1-.888-.437c-.383-.434-.22-1.089-.048-1.638a37.152 37.152 0 0 0 1.358-6.269z"/>
        <path fill="url(#g)" d="M79.709 43.017c.7 1.909.856 3.985.449 5.983 1.697-.083 2.04-.93 1.75-2.599a16.184 16.184 0 0 0-1.68-4.959C79.45 40.008 77.681 39.208 77 38c.948 1.672 2.063 3.152 2.709 5.017z"/>
        <path fill="url(#h)" d="M82.62 52.352c-.293.8-.535 1.399-.62 1.565.712-1.36 4.412 1.9 3.962-1.613-.17-1.314-.147-5.74-1.57-6.304.382.148-.93 4.069-1.771 6.352z"/>
        <path fill="url(#i)" d="M78.78 49.614c-.024-.052-.048-.107-.075-.159-1.615-3.175-3.26-5.652-5.231-8.625s-4.252-6.197-7.707-7.626c-.191-.08-2.894-1.483-2.762-1.154 2.012 5.265 2.15 10.945.895 16.426-.45 1.955 0 3.291 2.168 3.787 3.506.8 7.137 1.074 10.655.182 1.499-.372 2.812-1.198 2.057-2.831z" opacity=".95" style="mix-blend-mode:screen"/>
        <path fill="url(#j)" d="M38.615 33.817C36.923 23.652 32.645 10.805 23.32 5.15a51.916 51.916 0 0 0-7.29-3.656c-.688-.28-1.404-.547-2.154-.485-1.106.092-2.081.893-2.899 1.693a2.315 2.315 0 0 0-.847 2.653c.58 2.951 1.19 5.59 2.813 8.118 3.09 4.783 7.169 8.766 11.055 12.89l13.3 14.075c2.59 2.76 1.505-5.494 1.317-6.621z"/>
        <path fill="url(#k)" d="M14.917 27.05c-2.766-3.29-5.169-6.897-6.027-11.11-.54-2.631.191-5.201 0-7.844-.045-.541-3.601 1.38-3.861 1.576-2.704 2.029-4.132 5.484-4.023 8.84.109 3.357 1.662 6.582 3.946 9.064 2.034 2.216 4.826 3.93 7.56 5.164 1.61.73 10.35 2.952 6.531-1.14-1.378-1.457-2.795-2.965-4.126-4.55z"/>
        <path fill="url(#l)" d="M11.028 41.655c7.224 5.56 16.695 8.334 25.386 4.715 1.488-.62-.254-1.342-.877-1.603a24.063 24.063 0 0 1-6.843-4.31C26.844 38.81 25.3 36.895 23.692 35c.032.039-3.429 1.664-3.762 1.78a20.68 20.68 0 0 1-4.385 1.018c-2.923.35-5.692-.09-8.545-.736a3.78 3.78 0 0 0 .769 1.733 15.578 15.578 0 0 0 1.669 1.54c.503.457 1.04.896 1.59 1.32z" opacity=".95" style="mix-blend-mode:screen"/>
        <path fill="url(#m)" d="M23 52.361c5.554 3.1 13.15 1.773 18.269-1.945.208-.172.449-.304.71-.389.521-.12 1.037.184 1.488.468C50.752 55.077 59.28 57.516 68 57.511c-2.018 1-3.86 2.336-5.976 3.14-1.445.521-2.952.87-4.487 1.04-6.27.786-12.688.022-18.75-1.709-6.06-1.73-10.33-4.566-15.787-7.62z" opacity=".95" style="mix-blend-mode:screen"/>
        <path fill="url(#n)" d="M64.07 65.07a11.185 11.185 0 0 0 6.373-6.11c.2-.488.382-1.015.79-1.36 1.037-.873 6.231.523 7.639.529A38.977 38.977 0 0 0 88 57c-2.021 1.164-4.184 2.667-5.062 4.916l.332-2.164c.03-.204 0-.483-.188-.527a.418.418 0 0 0-.262.061 12.635 12.635 0 0 0-4.603 3.782c.061-.873.123-1.725.182-2.586-.074 1.038-6.696 4.235-7.83 4.773-2.644 1.257-6.74 2.49-9.569 1.193.632-.817 1.9-.963 2.865-1.3l.205-.079z"/>
        <path fill="url(#o)" d="M40 42.571a30.202 30.202 0 0 0 3.32-13.71 22.39 22.39 0 0 0-.257-3.681A13.281 13.281 0 0 0 40.977 20c4.098 2.386 7.612 8.932 9.078 14.378.908 3.406 1.231 8.337.661 13.622-.013 0-5.918-1.908-10.716-5.429z" opacity=".95" style="mix-blend-mode:screen"/>
        <path fill="url(#p)" d="M79.709 43.017c.7 1.909.856 3.985.449 5.983 1.697-.083 2.04-.93 1.75-2.599a16.184 16.184 0 0 0-1.68-4.959C79.45 40.008 77.681 39.208 77 38c.948 1.672 2.063 3.152 2.709 5.017z" opacity=".95" style="mix-blend-mode:screen"/>
        <path fill="url(#q)" d="M82.62 52.352c-.293.8-.535 1.399-.62 1.565.712-1.36 4.412 1.9 3.962-1.613-.17-1.314-.147-5.74-1.57-6.304.382.148-.93 4.069-1.771 6.352z" opacity=".95" style="mix-blend-mode:screen"/>
        <path fill="url(#r)" d="M22.66 6.946c-1.046-.811-2.174-1.58-3.464-1.854s-2.785.053-3.584 1.114c-.996 1.32-.614 3.215 0 4.754 1.819 4.6 5.18 8.39 8.675 11.858 2.603 2.585 5.333 5.051 7.739 7.838.857.993 2.18 3.729 3.358 4.198 1.874.75 1.668-1.58 1.533-2.674a38.62 38.62 0 0 0-6.904-17.583 36.686 36.686 0 0 0-7.353-7.651z" opacity=".95" style="mix-blend-mode:screen"/>
        <path fill="url(#s)" d="M12.375 4a15.862 15.862 0 0 0 3.086 23.662c.758.51 1.674 1.187 1.522 2.078a1.39 1.39 0 0 1-.472.79c-.979.84-2.474.395-3.664-.107a27.941 27.941 0 0 1-4.162-2.06c-4.112-2.622-6.839-7.409-6.678-12.278.16-4.87 3.425-9.582 8.028-11.168" opacity=".95" style="mix-blend-mode:screen"/>
        <path fill="url(#t)" d="M30 44.955c-1.083-1.042-3.045-.978-4.102-2.041-.888-.878-1.015-2.423-2.237-2.811a3.125 3.125 0 0 0-1.143-.084c-2.154.127-4.279.51-6.427.69-1.968.164-4.283-.453-6.091-.162 5.33 3.562 13.551 4.706 20 4.408z" opacity=".95" style="mix-blend-mode:screen"/>
        <path fill="url(#u)" d="M44.254 54.533a4.1 4.1 0 0 1 1.102-.494c.746-.158 1.5.194 2.193.521A49.72 49.72 0 0 0 66 59.19c-1.221-.063-3.222 1.146-4.472 1.47-1.57.415-3.162.733-4.768.952a41.782 41.782 0 0 1-19.306-1.897c-1.523-.527-7.005-2.225-3.043-3.797 1.438-.57 3.201.018 4.712-.049a11.823 11.823 0 0 0 5.131-1.336z" opacity=".95" style="mix-blend-mode:screen"/>
        <path fill="url(#v)" d="M79.944 59.024a27.34 27.34 0 0 0-4.3.988C70.903 61.656 67.032 65.932 62 66c1.878-.196 3.784-.466 5.503-1.24 1.72-.776 3.249-2.136 3.816-3.913.133-.414.23-.877.576-1.153.257-.174.554-.281.864-.312 1.581-.284 9.386-2.209 10.241-.97-.945.343-2.048.436-3.056.612z" opacity=".95" style="mix-blend-mode:screen"/>
        <path fill="url(#w)" d="M65.592 65.498c1.735-.653 3.01-2.183 4.058-3.75 1.047-1.568 1.97-3.261 3.35-4.525-.108-.26-.463-.245-.73-.19l-3.344.695a2.3 2.3 0 0 0-.668.216c-.868.502-.72 1.801-1.027 2.773-.35 1.124-1.369 1.86-2.326 2.505-.55.373-3.24 1.684-2.87 2.437.369.753 2.99.055 3.557-.16z" opacity=".95" style="mix-blend-mode:screen"/>
        <path fill="url(#x)" d="M110 47.54c-.712.509-1.656.797-2.523 1.039-1.338.372-2.665.786-4 1.164-2.864.803-5.77 1.438-8.672 2.072-2.17.477-4.562 1.202-6.8 1.185-1.302 0-1.155-.908-.588-1.886-.038.41-.094.83-.17 1.254 0 0 11.113-1.662 15.85-3.95 4.468-2.156 6.044-1.332 6.903-.878z" opacity=".95" style="mix-blend-mode:screen"/>
    </g>
</svg>
