<svg xmlns="http://www.w3.org/2000/svg" xmlns:xlink="http://www.w3.org/1999/xlink" width="264" height="252" viewBox="0 0 264 252">
    <defs>
        <linearGradient id="b" x1="50%" x2="50%" y1="0%" y2="100%">
            <stop offset="0%" stop-color="#007ABC"/>
            <stop offset="100%" stop-color="#48B3E8"/>
        </linearGradient>
        <path id="a" d="M217.007 131.862a91.218 91.218 0 0 0-5.546-35.28 93.022 93.022 0 0 0-18.985-30.961 94.75 94.75 0 0 0-29.872-21.668 96.01 96.01 0 0 0-36.451-8.7 97.777 97.777 0 0 0-37.595 5.977 99.49 99.49 0 0 0-32.895 20.23 100.603 100.603 0 0 0-22.98 31.728 101.668 101.668 0 0 0-9.132 38.674 102.924 102.924 0 0 0 6.438 39.77 104.802 104.802 0 0 0 21.538 34.764 106.624 106.624 0 0 0 33.679 24.218 107.866 107.866 0 0 0 40.947 9.59 109.24 109.24 0 0 0 42.075-6.883 110.518 110.518 0 0 0 36.701-22.78 112.117 112.117 0 0 0 25.533-35.53 113.764 113.764 0 0 0 10.041-43.149h-23.496zm23.496 0a115.051 115.051 0 0 1-7.33 44.276 117.508 117.508 0 0 1-61.593 65.318 120.471 120.471 0 0 1-92.029 2.707A122.847 122.847 0 0 1 39.06 218.85 124.326 124.326 0 0 1 .054 131.862a126.804 126.804 0 0 1 8.224-48.765 128.549 128.549 0 0 1 26.63-42.367A130.338 130.338 0 0 1 126.152.052a132.92 132.92 0 0 1 51.082 8.668 134.972 134.972 0 0 1 74.923 70.997A136.941 136.941 0 0 1 264 131.862h-23.497z"/>
    </defs>
    <g fill="none" fill-rule="evenodd">
        <g fill-rule="nonzero">
            <use fill="#65C3DC" xlink:href="#a"/>
            <use fill="url(#b)" xlink:href="#a"/>
        </g>
        <path fill="#FF874B" fill-rule="nonzero" stroke="#FFF" stroke-width="10.88" d="M142.743 142.467c-9.983 14.394-42.605 25.658-35.768 25.532 20.386-.375-16.769-31.668-4.384-45.26 8.256-9.06 44.37-45.112 108.34-108.155a9.181 9.181 0 0 1 11.214-1.211c3.476 2.055 4.827 6.449 3.116 10.131l-82.518 118.963z"/>
        <text fill="#112154" font-family="Avenir-Black, Avenir" font-size="24.48" font-weight="700" letter-spacing="-1.088">
            <tspan x="95.851" y="198">2,3m/s</tspan>
        </text>
    </g>
</svg>
