<svg xmlns="http://www.w3.org/2000/svg" width="84" height="80" viewBox="0 0 84 80">
    <defs>
        <linearGradient id="a" x1="-198.167%" x2="356.349%" y1="50.019%" y2="50.019%">
            <stop offset="0%" stop-color="#4E8AC8"/>
            <stop offset="100%" stop-color="#65C3DC"/>
        </linearGradient>
        <linearGradient id="b" x1=".009%" x2="99.985%" y1="49.992%" y2="49.992%">
            <stop offset="0%" stop-color="#4E8AC8"/>
            <stop offset="100%" stop-color="#65C3DC"/>
        </linearGradient>
        <linearGradient id="c" x1=".013%" y1="49.994%" y2="49.994%">
            <stop offset="0%" stop-color="#4E8AC8"/>
            <stop offset="100%" stop-color="#65C3DC"/>
        </linearGradient>
        <linearGradient id="d" x1=".018%" y1="50.001%" y2="50.001%">
            <stop offset="0%" stop-color="#4E8AC8"/>
            <stop offset="100%" stop-color="#65C3DC"/>
        </linearGradient>
        <linearGradient id="e" x1="-24.534%" x2="182.722%" y1="49.992%" y2="49.992%">
            <stop offset="0%" stop-color="#4E8AC8"/>
            <stop offset="100%" stop-color="#65C3DC"/>
        </linearGradient>
        <linearGradient id="f" x1="-24.547%" x2="182.732%" y1="50.028%" y2="50.028%">
            <stop offset="0%" stop-color="#4E8AC8"/>
            <stop offset="100%" stop-color="#65C3DC"/>
        </linearGradient>
        <linearGradient id="g" x1="-24.482%" x2="182.824%" y1="49.971%" y2="49.971%">
            <stop offset="0%" stop-color="#4E8AC8"/>
            <stop offset="100%" stop-color="#65C3DC"/>
        </linearGradient>
        <linearGradient id="h" x1="-24.545%" x2="182.727%" y1="50%" y2="50%">
            <stop offset="0%" stop-color="#4E8AC8"/>
            <stop offset="100%" stop-color="#65C3DC"/>
        </linearGradient>
        <linearGradient id="i" x1="1.207%" x2="95.513%" y1="98.238%" y2="4.906%">
            <stop offset="0%" stop-color="#4E8AC8"/>
            <stop offset="100%" stop-color="#65C3DC"/>
        </linearGradient>
        <linearGradient id="j" x1="1.207%" x2="95.513%" y1="98.238%" y2="4.906%">
            <stop offset="0%" stop-color="#4E8AC8"/>
            <stop offset="100%" stop-color="#65C3DC" stop-opacity="0"/>
        </linearGradient>
        <linearGradient id="k" x1="-24.535%" x2="182.727%" y1="50%" y2="50%">
            <stop offset="0%" stop-color="#4E8AC8"/>
            <stop offset="100%" stop-color="#65C3DC"/>
        </linearGradient>
        <linearGradient id="l" x1="0%" y1="50.008%" y2="50.008%">
            <stop offset="0%" stop-color="#4E8AC8"/>
            <stop offset="100%" stop-color="#65C3DC"/>
        </linearGradient>
        <linearGradient id="m" x1="-24.587%" x2="182.763%" y1="49.991%" y2="49.991%">
            <stop offset="0%" stop-color="#4E8AC8"/>
            <stop offset="100%" stop-color="#65C3DC"/>
        </linearGradient>
        <linearGradient id="n" x1="-24.555%" x2="182.737%" y1="50.024%" y2="50.024%">
            <stop offset="0%" stop-color="#4E8AC8"/>
            <stop offset="100%" stop-color="#65C3DC"/>
        </linearGradient>
        <linearGradient id="o" x1="-24.426%" x2="182.662%" y1="50.014%" y2="50.014%">
            <stop offset="0%" stop-color="#4E8AC8"/>
            <stop offset="100%" stop-color="#65C3DC"/>
        </linearGradient>
        <linearGradient id="p" x1="-24.541%" x2="182.731%" y1="49.988%" y2="49.988%">
            <stop offset="0%" stop-color="#4E8AC8"/>
            <stop offset="100%" stop-color="#65C3DC"/>
        </linearGradient>
        <linearGradient id="q" x1="-24.534%" x2="182.81%" y1="50%" y2="50%">
            <stop offset="0%" stop-color="#4E8AC8"/>
            <stop offset="100%" stop-color="#65C3DC"/>
        </linearGradient>
    </defs>
    <g fill="none" fill-rule="nonzero">
        <path fill="url(#a)" d="M51.664 37.737c.177 1.841-.03 3.61-.889 5.187-.766 1.406-2.1 2.67-3.37 3.497-2.691 1.753-6.808 1.067-9.745-.233a9.544 9.544 0 0 1-4.65-4.431 9.457 9.457 0 0 1-.974-5.077 9.498 9.498 0 0 1 13.663-7.698c.288.139.567.295.836.467 1.34.839 2.449 2 3.224 3.377a7.778 7.778 0 0 1 .4.775c.554 1.226 1.168.654 1.505 4.136z" transform="translate(0 1)"/>
        <path fill="url(#b)" d="M81.678 28.18a45.616 45.616 0 0 0-2.44-7.315 44.765 44.765 0 0 0-5.516-9.477l-3.904 3.958a39.415 39.415 0 0 1 4.764 8.622 40.652 40.652 0 0 1 2.508 9.44c.267 1.917.401 3.852.401 5.788a40.265 40.265 0 0 1-8.345 24.741 38.902 38.902 0 0 1-3.698 4.125L69.312 72a43.365 43.365 0 0 0 3.723-4.092A45.774 45.774 0 0 0 83 39.207a46.77 46.77 0 0 0-1.322-11.028zM13.364 15.108a38.998 38.998 0 0 1 3.606-4.191L13.111 7a42.12 42.12 0 0 0-3.66 4.145 45.56 45.56 0 0 0-9.2 23.269 46.802 46.802 0 0 0 1.176 16.31A45.149 45.149 0 0 0 8.78 66.37l3.791-3.86.128-.128a39.64 39.64 0 0 1-5.266-10.638 41.093 41.093 0 0 1-1.94-12.537c0-1.074.04-2.138.123-3.192a40.17 40.17 0 0 1 7.747-20.906z" transform="translate(0 1)"/>
        <path fill="url(#c)" d="M67.852 27.123a30.965 30.965 0 0 0-3.577-6.683L60.483 24.3l-.145.147a25.563 25.563 0 0 1 2.503 4.945 26.726 26.726 0 0 1 1.446 12.797 25.718 25.718 0 0 1-4.58 11.74 23.57 23.57 0 0 1-3.71 4.115L59.869 62a29.674 29.674 0 0 0 3.743-4.09A31.548 31.548 0 0 0 70 38.724v-.04a32.11 32.11 0 0 0-2.148-11.56zM22.545 16a28.023 28.023 0 0 0-3.63 4.191 31.443 31.443 0 0 0-5.86 16.659A31.84 31.84 0 0 0 13 38.726c-.01 4.62.981 9.187 2.904 13.378a30.723 30.723 0 0 0 2.368 4.229l3.952-4.034a26.194 26.194 0 0 1-3.737-13.573c0-.471 0-.938.038-1.405a26.03 26.03 0 0 1 4.313-13.134 23.836 23.836 0 0 1 3.58-4.244L22.544 16z" transform="translate(0 1)"/>
        <g opacity=".75" style="mix-blend-mode:color-burn">
            <path fill="url(#b)" d="M82.484 21.233a45.035 45.035 0 0 0-2.461-7.286 44.46 44.46 0 0 0-5.567-9.44L70.517 8.45a39.117 39.117 0 0 1 4.807 8.589 40.082 40.082 0 0 1 2.53 9.402c.27 1.91.405 3.837.405 5.767a39.775 39.775 0 0 1-8.42 24.644 38.925 38.925 0 0 1-3.732 4.11l3.899 3.922a43.403 43.403 0 0 0 3.757-4.076 45.228 45.228 0 0 0 10.055-28.59 46.022 46.022 0 0 0-1.334-10.985zM13.551 8.213A38.99 38.99 0 0 1 17.19 4.04L13.296.136a42.133 42.133 0 0 0-3.694 4.13A45.055 45.055 0 0 0 .319 27.443 46.055 46.055 0 0 0 1.506 43.69a44.72 44.72 0 0 0 7.42 15.585l3.826-3.845.129-.128a39.285 39.285 0 0 1-5.313-10.597 40.452 40.452 0 0 1-1.959-12.488c0-1.07.042-2.13.124-3.18a39.705 39.705 0 0 1 7.818-20.825z" transform="translate(0 8)"/>
            <path fill="url(#c)" d="M68.566 20.69a30.6 30.6 0 0 0-3.615-6.642l-3.833 3.837-.147.146a25.237 25.237 0 0 1 2.53 4.913 26.136 26.136 0 0 1 1.462 12.715 25.304 25.304 0 0 1-4.63 11.665 23.563 23.563 0 0 1-3.75 4.089l3.915 3.93a29.677 29.677 0 0 0 3.782-4.064 30.998 30.998 0 0 0 6.457-19.064v-.04a31.427 31.427 0 0 0-2.17-11.486zM22.771 9.636a27.987 27.987 0 0 0-3.669 4.164 30.906 30.906 0 0 0-5.923 16.552c-.037.619-.055 1.24-.055 1.865a31.26 31.26 0 0 0 2.935 13.292 30.385 30.385 0 0 0 2.393 4.202l3.995-4.008a25.693 25.693 0 0 1-3.777-13.486c0-.469 0-.932.038-1.396a25.567 25.567 0 0 1 4.36-13.05 23.79 23.79 0 0 1 3.617-4.218l-3.914-3.917z" transform="translate(0 8)"/>
        </g>
        <path fill="url(#d)" d="M48 31.517a11.91 11.91 0 0 1-.628 3.853c-1.455 4.37-5.245 7.607-9.87 8.433-.754.13-1.518.197-2.284.197h-.463a9.432 9.432 0 0 1-1.09-1.99 9.313 9.313 0 0 1-.628-4.286c.264-2.984 1.946-5.674 4.543-7.265a9.972 9.972 0 0 1 8.673-.833c.288.108.565.228.84.36.295.14.583.298.86.47.034.346.047.701.047 1.061z" transform="translate(0 1)"/>
        <path fill="url(#e)" d="M5.633 36.18a39.888 39.888 0 0 0-.123 3.211c-.006 4.28.65 8.535 1.945 12.609a100.31 100.31 0 0 1-6.03-1.038A47.234 47.234 0 0 1 0 39.391c.002-1.614.086-3.227.251-4.833A45.916 45.916 0 0 1 9.47 11.156 42.312 42.312 0 0 1 13.133 7L17 10.948a39.182 39.182 0 0 0-3.613 4.215A40.491 40.491 0 0 0 5.633 36.18z" opacity=".4" style="mix-blend-mode:screen" transform="translate(0 1)"/>
        <path fill="url(#f)" d="M27 20.932a24.01 24.01 0 0 0-3.737 4.207 24.994 24.994 0 0 0-4.495 13.033A25.05 25.05 0 0 0 22.604 53h-.666c-1.99 0-3.959-.051-5.906-.154A30.385 30.385 0 0 1 13 39.564c0-.624.02-1.245.058-1.863.34-5.966 2.464-11.71 6.118-16.54A28.279 28.279 0 0 1 22.965 17L27 20.932z" opacity=".4" style="mix-blend-mode:screen" transform="translate(0 1)"/>
        <path fill="url(#g)" d="M64.096 42a24.21 24.21 0 0 0-1.505-12.353A24.1 24.1 0 0 0 60 24.872l.15-.142L64.075 21A29.191 29.191 0 0 1 70 38.623 68.09 68.09 0 0 1 64.096 42z" opacity=".4" style="mix-blend-mode:screen" transform="translate(0 1)"/>
        <path fill="url(#h)" d="M82 27.769A43.053 43.053 0 0 1 77.357 33a40.18 40.18 0 0 0-2.537-9.426A39.215 39.215 0 0 0 70 14.963L73.95 11a44.572 44.572 0 0 1 5.582 9.464A45.145 45.145 0 0 1 82 27.77z" opacity=".4" style="mix-blend-mode:screen" transform="translate(0 1)"/>
        <path fill="#FFF" stroke="#FFF" d="M77 7.212L65.391 19.058l-4.582 4.66L50.1 34.626l-.455.46-6.296 6.42-4.53 4.625-3.604 3.665-5.956 6.067-7.467 7.601-4.529 4.619-6.496 6.625L5.571 80l-.675-.689a49.918 49.918 0 0 1-4.368-4.974L0 73.672l5.166-5.266 6.458-6.571 4.59-4.687.485-.492 12.736-12.962 3.475-3.562 2.234-2.27 2.313-2.351 6.105-6.234 11.526-11.739 4.541-4.633 6.51-6.61L71.336 1l.681.659a52.084 52.084 0 0 1 4.444 4.894l.54.66z"/>
        <path fill="url(#i)" d="M77 5.847l-4.712 4.689-6.68 6.635-4.737 4.7-18.066 17.975-4.675 4.655L20.5 62.015l-4.687 4.661-6.707 6.672L4.433 78A50.797 50.797 0 0 1 0 73.072l4.727-4.703 6.68-6.633 4.749-4.73L33.423 39.84l4.704-4.661 18.25-18.155 4.698-4.676 6.734-6.684L72.497 1a49.49 49.49 0 0 1 2.56 2.6c.665.728 1.314 1.48 1.943 2.247z" transform="translate(0 1)"/>
        <path fill="url(#j)" stroke="#FFF" d="M77 5.847l-4.712 4.689-6.68 6.635-4.737 4.7-18.066 17.975-4.675 4.655L20.5 62.015l-4.687 4.661-6.707 6.672L4.433 78A50.797 50.797 0 0 1 0 73.072l4.727-4.703 6.68-6.633 4.749-4.73L33.423 39.84l4.704-4.661 18.25-18.155 4.698-4.676 6.734-6.684L72.497 1a49.49 49.49 0 0 1 2.56 2.6c.665.728 1.314 1.48 1.943 2.247z" style="mix-blend-mode:multiply" transform="translate(0 1)"/>
        <path fill="url(#k)" d="M75 2.64l-5.757 5.894-5.741 5.87-21.889 22.419-5.688 5.818L14.58 64.488 8.89 70.306 3.329 76A52.5 52.5 0 0 1 1 73.171l4.66-4.775 6.587-6.733 4.682-4.803 17.024-17.427L38.59 34.7l17.994-18.431 4.63-4.748 6.65-6.785L72.484 0c.866.852 1.71 1.73 2.515 2.64z" opacity=".3" style="mix-blend-mode:screen" transform="translate(0 1)"/>
        <path fill="url(#l)" d="M52 38.795a9.195 9.195 0 0 1-4.206 7.714 9.3 9.3 0 0 1-8.794.704l3.042-3.043 3.823-3.837L51.18 35a9.143 9.143 0 0 1 .82 3.795z" style="mix-blend-mode:multiply" transform="translate(0 1)"/>
        <path fill="url(#m)" d="M13.333 16.104A39.73 39.73 0 0 0 5.463 37 51.911 51.911 0 0 1 0 35.392a45.093 45.093 0 0 1 9.357-23.256A42.34 42.34 0 0 1 13.075 8L17 11.923a39.176 39.176 0 0 0-3.667 4.181z" opacity=".4" style="mix-blend-mode:screen" transform="translate(0 1)"/>
        <path fill="url(#n)" d="M22.948 17L27 20.892a23.92 23.92 0 0 0-3.753 4.175c-2.712 3.84-4.273 8.311-4.513 12.933A85.903 85.903 0 0 1 13 37.535c.341-5.92 2.475-11.62 6.143-16.413A28.188 28.188 0 0 1 22.948 17z" opacity=".4" style="mix-blend-mode:screen" transform="translate(0 1)"/>
        <path fill="url(#o)" d="M65.671 21A32.02 32.02 0 0 1 69 27.719 83.198 83.198 0 0 1 64.33 30 26.545 26.545 0 0 0 62 25.03l.135-.148L65.671 21z" opacity=".4" style="mix-blend-mode:screen" transform="translate(0 1)"/>
        <path fill="url(#p)" d="M63.9 20.329l-3.987 3.955-9.319 9.26-.51.14-1.086.285c-.989.255-1.99.496-3 .72-.55.13-1.101.253-1.655.368l-.256.053a116.22 116.22 0 0 1-6.507 1.185c-1.873.287-3.733.522-5.58.705a9.396 9.396 0 0 1 4.436-7.163 9.654 9.654 0 0 1 8.468-.821l10.032-9.977 3.95-3.933 5.665-5.611L69.07 5l.593.56a44.621 44.621 0 0 1 3.866 4.154l.47.572-10.1 10.043z" opacity=".4" style="mix-blend-mode:screen" transform="translate(0 1)"/>
        <path fill="url(#q)" d="M81 21.033A71.06 71.06 0 0 1 76.056 24 36.632 36.632 0 0 0 71 15.782L75.146 12A41.874 41.874 0 0 1 81 21.033z" opacity=".4" style="mix-blend-mode:screen" transform="translate(0 1)"/>
    </g>
</svg>
