<?xml version="1.0" encoding="UTF-8"?>
<svg width="1000px" height="286px" viewBox="0 0 1000 286" version="1.1" xmlns="http://www.w3.org/2000/svg" xmlns:xlink="http://www.w3.org/1999/xlink">
    <!-- Generator: Sketch 60 (88103) - https://sketch.com -->
    <title>bbcOG</title>
    <desc>Created with Sketch.</desc>
    <g id="Page-1" stroke="none" stroke-width="1" fill="none" fill-rule="evenodd">
        <g id="bbcOG" fill="#000000" fill-rule="nonzero">
            <path d="M541.817,184.848 C541.817,215.819 503.276,213.981 503.276,213.981 L464.736,213.981 L464.736,158.018 L503.276,158.018 C542.939,157.752 541.817,184.848 541.817,184.848 M464.736,72.67 L494.104,72.67 C524.6,74.281 523.449,96.986 523.449,96.986 C523.449,125.202 489.728,125.662 489.728,125.662 L464.736,125.662 L464.736,72.67 Z M534.688,136.667 C534.688,136.667 561.068,125.426 560.833,95.61 C560.833,95.61 564.845,46.746 500.104,40.786 L428.266,40.786 L428.266,245.63501 L510.61,245.63501 C510.61,245.63501 579.412,245.84 579.412,187.836 C579.411,187.836 581.038,148.363 534.688,136.667 M348.773,0.647 L651.226,0.647 L651.226,285.66 L348.773,285.66 L348.773,0.647 Z M193.041,184.848 C193.041,215.819 154.5,213.981 154.5,213.981 L115.957,213.981 L115.957,158.018 L154.5,158.018 C194.166,157.752 193.041,184.848 193.041,184.848 M115.957,72.67 L145.331,72.67 C175.828,74.281 174.674,96.986 174.674,96.986 C174.674,125.202 140.955,125.662 140.955,125.662 L115.957,125.662 L115.957,72.67 Z M185.915,136.667 C185.915,136.667 212.299,125.426 212.062,95.61 C212.062,95.61 216.071,46.746 151.33,40.786 L79.489,40.786 L79.489,245.63501 L161.838,245.63501 C161.838,245.63501 230.639,245.84 230.639,187.836 C230.639,187.836 232.26,148.363 185.915,136.667 M0,0.647 L302.453,0.647 L302.453,285.66 L0,285.66 L0,0.647 Z M938.301,55.472 L938.301,93.318 C938.301,93.318 901.359,70.616 860.537,70.159 C860.537,70.159 784.376,68.664 780.943,143.164 C780.943,143.164 778.192,211.677 859.619,215.581 C859.619,215.581 893.784,219.696 940.133,190.14 L940.133,229.335 C940.133,229.335 877.96,266.274 805.936,237.823 C805.936,237.823 745.391,215.714 743.085,143.164 C743.085,143.164 740.567,68.545 821.315,43.775 C821.315,43.775 842.878,35.52 881.628,39.189 C881.629,39.188 904.789,41.479 938.301,55.472 M697.547,285.66 L1000,285.66 L1000,0.647 L697.547,0.647 L697.547,285.66 Z" id="Shape"></path>
        </g>
    </g>
</svg>