<?xml version="1.0" encoding="UTF-8"?>
<svg width="891px" height="513px" viewBox="0 0 891 513" version="1.1" xmlns="http://www.w3.org/2000/svg" xmlns:xlink="http://www.w3.org/1999/xlink">
    <!-- Generator: Sketch 60 (88103) - https://sketch.com -->
    <title>CESOG</title>
    <desc>Created with Sketch.</desc>
    <defs>
        <polygon id="path-1" points="0.0381312411 0.326743494 890.980934 0.326743494 890.980934 513 0.0381312411 513"></polygon>
    </defs>
    <g id="Page-1" stroke="none" stroke-width="1" fill="none" fill-rule="evenodd">
        <g id="CESOG">
            <polyline id="Fill-1" fill="#51C1E3" points="478.587309 53.5891271 492 119.189912 333.382865 139 319 5 478.587309 53.5891271"></polyline>
            <g id="Group-7">
                <mask id="mask-2" fill="white">
                    <use xlink:href="#path-1"></use>
                </mask>
                <g id="Clip-3"></g>
                <polyline id="Fill-2" fill="#51C1E3" mask="url(#mask-2)" points="772.443616 479.392461 775.869073 409.097476 606.854889 374.981387 619.138868 453.240903 772.443616 479.392461"></polyline>
                <polyline id="Fill-4" fill="#2594C6" mask="url(#mask-2)" points="0 180.566465 191.166529 513 619.138868 453.240903 617.891341 440.625045 358.971317 408.539978 333.62421 138.558312 0 180.566465"></polyline>
                <polyline id="Fill-5" fill="#1E77AA" mask="url(#mask-2)" points="492.180901 118.743926 609.611777 371.832825 619.138868 453.240903 359.027243 408.548877 333.633107 138.564033 492.180901 118.743926"></polyline>
                <polyline id="Fill-6" fill="#D9DE33" mask="url(#mask-2)" points="890.980934 0.326743494 839.503759 422.656695 775.799165 413.34832 788.560421 147.348602 478.773321 53.101539 474.287816 31.4417509 890.980934 0.326743494"></polyline>
            </g>
            <polyline id="Fill-8" fill="#48B592" points="479 53 544.798065 374.65935 776.229975 413 789 147.182501 479 53"></polyline>
            <path d="M698.824246,170.122549 L698.824246,182.768899 L701.084141,182.768899 L701.084141,177.77861 L702.8093,177.77861 C703.986991,177.77861 704.808193,177.919603 705.272903,178.172268 C706.062275,178.650148 706.437863,179.609027 706.437863,181.084466 L706.437863,182.090135 L706.526986,182.611685 L706.565181,182.768899 L708.653197,182.768899 L708.583172,182.584235 L708.46222,181.934793 L708.43039,180.998996 L708.43039,180.100008 C708.43039,179.424363 708.220316,178.791141 707.736507,178.120487 C707.29726,177.462934 706.565181,177.022486 705.584833,176.884612 C706.367838,176.754849 707.023526,176.560827 707.430944,176.280712 C708.220316,175.742941 708.653197,174.930046 708.653197,173.774649 C708.653197,172.176309 708.029338,171.10763 706.711597,170.599181 C705.973153,170.294111 704.808193,170.122549 703.216717,170.122549 L698.824246,170.122549 M706.48879,173.949955 C706.48879,174.944395 706.062275,175.610058 705.190147,175.930724 C704.706338,176.144709 704.031553,176.230803 703.102131,176.230803 L701.084141,176.230803 L701.084141,171.642282 L702.981179,171.642282 C704.203432,171.642282 705.10739,171.805734 705.648492,172.12952 C706.227789,172.427103 706.48879,173.060325 706.48879,173.949955 M715,176.452274 C715,173.30176 713.860504,170.599181 711.606975,168.366995 C709.359812,166.12857 706.647938,165 703.471353,165 C700.294769,165 697.601993,166.12857 695.342098,168.366995 C693.126764,170.599181 692,173.30176 692,176.452274 C692,179.672037 693.126764,182.36713 695.342098,184.621776 C697.570163,186.866439 700.288403,188 703.471353,188 C706.647938,188 709.359812,186.866439 711.606975,184.621776 C713.860504,182.36713 715,179.647707 715,176.452274 M703.439524,166.569018 C706.202325,166.569018 708.500415,167.559091 710.48021,169.496189 C712.389981,171.420186 713.389427,173.732851 713.389427,176.487835 C713.389427,179.239699 712.389981,181.602897 710.48021,183.530013 C708.544976,185.480213 706.202325,186.457184 703.439524,186.457184 C700.714918,186.457184 698.327706,185.480213 696.443399,183.530013 C694.495433,181.602897 693.540548,179.239699 693.540548,176.487835 C693.540548,173.732851 694.520897,171.420186 696.443399,169.496189 C698.384999,167.559091 700.714918,166.569018 703.439524,166.569018" id="Fill-9" fill="#FFFFFE"></path>
            <path d="M326.880538,239.242078 C311.248212,223.644494 288.217397,213.799102 260.257223,213.799102 C216.251823,213.799102 187.451851,246.229151 187.451851,293.014285 C187.451851,341.019062 218.708868,372.22185 262.312182,372.22185 C290.272992,372.22185 310.426229,364.006246 331,347.18013 L331,400.947893 C308.362998,414.49729 284.938368,419 260.257223,419 C183.760559,419 134,367.286138 134,293.014285 C134,218.3107 185.80852,167 260.257223,167 C284.938368,167 307.131931,171.935711 326.880538,183.427398 L326.880538,239.242078" id="Fill-10" fill="#FFFFFE"></path>
            <polyline id="Fill-11" fill="#FFFFFE" points="516 369.399525 516 415 358 415 358 171 513.54739 171 513.54739 216.597298 409.295923 216.597298 409.295923 270.005956 504.926115 270.005956 504.926115 314.772109 409.295923 314.772109 409.295923 369.399525 516 369.399525"></polyline>
            <path d="M539.116461,349.642904 C557.640535,363.603717 578.231122,374.683988 605.404733,374.683988 C626.406838,374.683988 644.942379,367.286136 644.942379,347.180128 C644.942379,328.709622 629.705995,321.737152 604.168903,314.346283 C555.161868,300.796886 535,280.292161 535,239.242077 C535,192.867089 571.233393,167 616.533574,167 C644.126986,167 664.288854,173.985803 681.596846,185.057821 L681.596846,236.365981 C662.23126,220.768397 642.470719,211.336325 618.179012,211.336325 C597.165441,211.336325 585.646739,221.593767 585.646739,236.779301 C585.646739,254.022545 599.644745,260.990571 628.052913,268.79349 C677.061222,282.744779 696,304.499621 696,345.542086 C696,396.431212 655.650783,419.010155 605.404733,419 C578.64264,419 554.749712,411.62881 539.116461,401.350416 L539.116461,349.642904" id="Fill-12" fill="#FFFFFE"></path>
        </g>
    </g>
</svg>