<svg xmlns="http://www.w3.org/2000/svg" width="37" height="37" viewBox="0 0 37 37">
    <defs>
        <filter id="a" width="182.8%" height="182.8%" x="-41.4%" y="-41.4%" filterUnits="objectBoundingBox">
            <feOffset dy="2" in="SourceAlpha" result="shadowOffsetOuter1"/>
            <feGaussianBlur in="shadowOffsetOuter1" result="shadowBlurOuter1" stdDeviation="2"/>
            <feColorMatrix in="shadowBlurOuter1" result="shadowMatrixOuter1" values="0 0 0 0 0 0 0 0 0 0 0 0 0 0 0 0 0 0 0.16 0"/>
            <feMerge>
                <feMergeNode in="shadowMatrixOuter1"/>
                <feMergeNode in="SourceGraphic"/>
            </feMerge>
        </filter>
    </defs>
    <g fill="none" fill-rule="nonzero" filter="url(#a)" transform="translate(4 2)">
        <path fill="#FFF" d="M26.364 0H2.636A2.636 2.636 0 0 0 0 2.636v23.728A2.636 2.636 0 0 0 2.636 29h23.728A2.636 2.636 0 0 0 29 26.364V2.636A2.636 2.636 0 0 0 26.364 0z"/>
        <path fill="#112154" d="M7.668 4l1.64 5.06v3.374h1.094V9.06L12.042 4H10.95L9.856 7.373 8.762 4H7.668zm6.015 2.249c-.583 0-.87.094-1.226.395-.342.297-.436.525-.414 1.292v2.81c0 .56.09.93.418 1.257.342.327.665.43 1.222.43.583 0 .901-.103 1.23-.43.342-.314.41-.696.41-1.256V7.936c0-.497-.085-.967-.416-1.28-.342-.324-.694-.407-1.224-.407zm2.734 0v5.06c0 .547.536 1.125 1.093 1.125.558 0 .853-.288 1.094-.563v.563h1.094V6.249h-1.094v4.498c-.006.384-.446.562-.547.562-.113 0-.547-.024-.547-.562V6.249h-1.093zm-2.734 1.124c.164 0 .547-.002.547.563v2.81c0 .546-.37.563-.547.563-.164 0-.547-.006-.547-.562V7.936c0-.46.237-.563.547-.563zm.797 6.141c-2.758-.006-5.513 0-8.27.044a3.812 3.812 0 0 0-1.098.185c-.286.098-.56.235-.808.412-.292.211-.544.477-.74.782-.14.213-.25.446-.334.688-.137.388-.198.8-.21 1.21-.027 1.845-.027 3.69 0 5.534.012.352.056.699.146 1.04.173.64.504 1.24.987 1.69a3.035 3.035 0 0 0 1.076.652c.316.11.647.165.98.176 5.528.106 11.06.088 16.588 0a3.812 3.812 0 0 0 1.098-.184 2.938 2.938 0 0 0 1.55-1.195c.137-.213.248-.446.333-.687.135-.389.197-.8.208-1.21.027-1.922.008-3.846 0-5.766a4 4 0 0 0-.197-1.22 3.054 3.054 0 0 0-.325-.695 2.893 2.893 0 0 0-.73-.79 3.016 3.016 0 0 0-.84-.437 3.821 3.821 0 0 0-1.144-.185c-2.756-.013-5.513-.037-8.27-.044zm4.175 1.133c1.374.003 2.747.014 4.118.036.218.006.436.033.647.087.34.093.66.266.906.525a1.907 1.907 0 0 1 .438.76c.085.26.12.532.128.806.028 1.922.028 3.844 0 5.763a2.848 2.848 0 0 1-.128.806 1.907 1.907 0 0 1-.438.76c-.246.26-.566.433-.906.525-.211.055-.429.081-.647.088-5.5.088-11.002.035-16.504 0a2.241 2.241 0 0 1-.69-.117 1.976 1.976 0 0 1-.691-.419c-.338-.316-.56-.74-.675-1.188a3.406 3.406 0 0 1-.099-.736c-.027-1.814-.008-3.63 0-5.447.005-.276.039-.55.12-.814a2.04 2.04 0 0 1 .446-.787 1.94 1.94 0 0 1 .934-.531c.226-.057.459-.08.69-.081 4.118 0 8.235-.049 12.351-.036zm-12.08 1.16v1.125h1.093v6.746h1.094v-6.746h1.094v-1.125H6.575zm8.202 0v7.871h1.093v-.562c.212.253.52.569 1.094.562.34-.004.602-.285.777-.507.18-.222.316-.48.316-.898v-3.374c0-.485-.15-.814-.34-1.063-.19-.246-.467-.377-.822-.377-.18 0-.356.052-.531.145-.18.09-.368.25-.494.452v-2.249h-1.093zm-4.375 1.687v5.06c0 .351.148.525.274.694.14.184.442.43.707.43.213 0 .444.01.67-.123.229-.116.334-.193.536-.439v.562h1.094v-6.184h-1.094v4.498c-.098.131-.102.558-.546.562-.4.004-.547-.433-.547-.562v-4.498h-1.094zm9.951 0c-.519 0-1 .13-1.256.4a1.676 1.676 0 0 0-.49 1.223v2.646c0 .574.15 1.02.441 1.344.29.325.697.484 1.216.484.568 0 1.001-.145 1.279-.46.295-.298.342-.755.342-1.368v-.334H20.79v.282c0 .338-.032.6-.109.691-.075.104-.216.15-.438.152-.2.002-.352-.055-.427-.185-.079-.118-.12-.318-.12-.632v-.87h2.188v-1.75c0-.562-.09-.912-.372-1.21-.275-.299-.64-.413-1.16-.413zm-3.936.843c.301 0 .547.281.547.843v2.825c0 .31-.246.549-.547.549-.301 0-.543-.119-.547-.281v-3.374c.004-.283.246-.562.547-.562zm3.827.281c.302 0 .547.218.547.562v.563h-1.093v-.563c.004-.3.245-.562.546-.562z"/>
    </g>
</svg>
