<svg xmlns="http://www.w3.org/2000/svg" width="37" height="37" viewBox="0 0 37 37">
    <defs>
        <filter id="a" width="182.8%" height="182.8%" x="-41.4%" y="-41.4%" filterUnits="objectBoundingBox">
            <feOffset dy="2" in="SourceAlpha" result="shadowOffsetOuter1"/>
            <feGaussianBlur in="shadowOffsetOuter1" result="shadowBlurOuter1" stdDeviation="2"/>
            <feColorMatrix in="shadowBlurOuter1" result="shadowMatrixOuter1" values="0 0 0 0 0 0 0 0 0 0 0 0 0 0 0 0 0 0 0.16 0"/>
            <feMerge>
                <feMergeNode in="shadowMatrixOuter1"/>
                <feMergeNode in="SourceGraphic"/>
            </feMerge>
        </filter>
    </defs>
    <g fill="none" fill-rule="nonzero" filter="url(#a)" transform="translate(4 2)">
        <path fill="#FFF" d="M26.364 0H2.636A2.636 2.636 0 0 0 0 2.636v23.728A2.636 2.636 0 0 0 2.636 29h23.728A2.636 2.636 0 0 0 29 26.364V2.636A2.636 2.636 0 0 0 26.364 0z"/>
        <path fill="#112154" d="M18.736 5c-2.75 0-4.985 2.252-4.985 5.021 0 .167.041.33.057.492-3.4-.327-6.406-1.977-8.448-4.5a.457.457 0 0 0-.761.058 5.009 5.009 0 0 0-.676 2.518c0 1.112.395 2.13 1.006 2.966-.119-.052-.248-.081-.36-.144a.456.456 0 0 0-.45.01.466.466 0 0 0-.224.395v.058c0 1.705.876 3.187 2.169 4.095-.014-.002-.029.003-.043 0a.458.458 0 0 0-.424.15.467.467 0 0 0-.093.443c.513 1.608 1.824 2.836 3.448 3.285a8.544 8.544 0 0 1-4.41 1.23c-.351 0-.687-.018-1.021-.058a.463.463 0 0 0-.302.854A13.191 13.191 0 0 0 10.403 24c4.29 0 7.656-1.805 9.914-4.385 2.257-2.579 3.434-5.929 3.434-9.058 0-.132-.011-.26-.015-.391.843-.65 1.595-1.41 2.184-2.3a.465.465 0 0 0-.03-.562.456.456 0 0 0-.544-.119c-.237.107-.514.118-.762.203.327-.44.607-.914.776-1.447a.467.467 0 0 0-.155-.503.458.458 0 0 0-.52-.033 8.579 8.579 0 0 1-2.572.999C21.222 5.564 20.049 5 18.736 5zm-.167 1c1.146 0 2.18.5 2.905 1.291a.446.446 0 0 0 .421.13 9.091 9.091 0 0 0 1.684-.517c-.312.43-.698.798-1.15 1.076a.462.462 0 0 0-.227.565.447.447 0 0 0 .521.296c.45-.056.849-.243 1.277-.36a8.593 8.593 0 0 1-1.263 1.149.462.462 0 0 0-.182.401c.007.187.014.371.014.56 0 2.869-1.077 5.984-3.13 8.363C17.387 21.334 14.374 23 10.431 23c-1.791 0-3.482-.405-5.01-1.119 1.894-.149 3.641-.834 5.052-1.965a.465.465 0 0 0 .145-.504.45.45 0 0 0-.412-.314c-1.48-.027-2.72-.907-3.382-2.152h.07c.444 0 .883-.057 1.291-.172a.46.46 0 0 0 .325-.456.458.458 0 0 0-.353-.434c-1.598-.33-2.796-1.66-3.073-3.314.453.16.916.286 1.417.302a.45.45 0 0 0 .455-.318.463.463 0 0 0-.188-.529A4.09 4.09 0 0 1 5 8.64c0-.524.133-1.005.309-1.464 2.245 2.52 5.388 4.193 8.938 4.376a.45.45 0 0 0 .369-.161.466.466 0 0 0 .094-.399 4.184 4.184 0 0 1-.112-.932C14.598 7.81 16.37 6 18.57 6z"/>
    </g>
</svg>
