<svg xmlns="http://www.w3.org/2000/svg" xmlns:xlink="http://www.w3.org/1999/xlink" width="78" height="76" viewBox="0 0 78 76">
    <defs>
        <path id="b" d="M32.647.001C32.373.048 21.612 13.344.362 39.887a1.654 1.654 0 0 0-.199 1.75c.184.383 6.4.695 18.647.937L10.611 69.75c-.301.781.026 1.66.756 2.053.487.263 11.577-12.994 33.27-39.77a1.654 1.654 0 0 0 .2-1.75c-.184-.383-6.195-.695-18.032-.936L34.44 2.12a1.67 1.67 0 0 0-.282-1.485A1.643 1.643 0 0 0 32.8.001h-.153zM29.11 9.043l-6.099 21.492a1.668 1.668 0 0 0 .263 1.46c.314.42.807.665 1.326.659h15.322L16.248 62.568l6.406-21.183a1.668 1.668 0 0 0-.263-1.46 1.634 1.634 0 0 0-1.326-.658H5.077L29.11 9.043z"/>
        <filter id="a" width="108.9%" height="111%" x="-4.4%" y="-2.8%" filterUnits="objectBoundingBox">
            <feOffset dy="4" in="SourceAlpha" result="shadowOffsetOuter1"/>
            <feColorMatrix in="shadowOffsetOuter1" values="0 0 0 0 0.0666666667 0 0 0 0 0.129411765 0 0 0 0 0.329411765 0 0 0 1 0"/>
        </filter>
    </defs>
    <g fill="none" fill-rule="evenodd">
        <path fill="#E0F9FF" d="M32.75 11C-5.57 27.4-10.262 42.448 18.673 56.145 62.075 76.69 80.908 68.837 77.638 45.578 75.458 30.072 60.496 18.546 32.75 11z"/>
        <path fill="#E0F9FF" d="M74.53 28.022c-1.115.181-4.41 1.717-1.08 3.15 3.329 1.435 4.773.886 4.522-.737-.25-1.623-2.328-2.595-3.443-2.413zM74.804 33.033c-.777.052-1.605.385.718.794 2.323.408 1.257.026 1.082-.437-.175-.462-1.022-.408-1.8-.357z"/>
        <g fill-rule="nonzero" transform="translate(4)">
            <use fill="#000" filter="url(#a)" xlink:href="#b"/>
            <use fill="#2D8EFF" xlink:href="#b"/>
        </g>
    </g>
</svg>
